<?xml version="1.0" encoding="UTF-8" standalone="no"?>
<!DOCTYPE svg PUBLIC "-//W3C//DTD SVG 1.1//EN"
 "http://www.w3.org/Graphics/SVG/1.1/DTD/svg11.dtd">
<!-- Generated by graphviz version 2.40.1 (20161225.0304)
 -->
<!-- Title: Tree Pages: 1 -->
<svg width="896pt" height="790pt"
 viewBox="0.00 0.00 896.00 790.00" xmlns="http://www.w3.org/2000/svg" xmlns:xlink="http://www.w3.org/1999/xlink">
<g id="graph0" class="graph" transform="scale(1 1) rotate(0) translate(4 786)">
<title>Tree</title>
<polygon fill="#ffffff" stroke="transparent" points="-4,4 -4,-786 892,-786 892,4 -4,4"/>
<!-- 0 -->
<g id="node1" class="node">
<title>0</title>
<polygon fill="none" stroke="#000000" points="508,-782 396,-782 396,-699 508,-699 508,-782"/>
<text text-anchor="middle" x="452" y="-766.8" font-family="Times,serif" font-size="14.00" fill="#000000">fruity &lt;= 0.5</text>
<text text-anchor="middle" x="452" y="-751.8" font-family="Times,serif" font-size="14.00" fill="#000000">gini = 0.495</text>
<text text-anchor="middle" x="452" y="-736.8" font-family="Times,serif" font-size="14.00" fill="#000000">samples = 62</text>
<text text-anchor="middle" x="452" y="-721.8" font-family="Times,serif" font-size="14.00" fill="#000000">value = [34, 28]</text>
<text text-anchor="middle" x="452" y="-706.8" font-family="Times,serif" font-size="14.00" fill="#000000">class = chocolate</text>
</g>
<!-- 1 -->
<g id="node2" class="node">
<title>1</title>
<polygon fill="none" stroke="#000000" points="441,-663 301,-663 301,-580 441,-580 441,-663"/>
<text text-anchor="middle" x="371" y="-647.8" font-family="Times,serif" font-size="14.00" fill="#000000">pricepercent &lt;= 0.488</text>
<text text-anchor="middle" x="371" y="-632.8" font-family="Times,serif" font-size="14.00" fill="#000000">gini = 0.298</text>
<text text-anchor="middle" x="371" y="-617.8" font-family="Times,serif" font-size="14.00" fill="#000000">samples = 33</text>
<text text-anchor="middle" x="371" y="-602.8" font-family="Times,serif" font-size="14.00" fill="#000000">value = [6, 27]</text>
<text text-anchor="middle" x="371" y="-587.8" font-family="Times,serif" font-size="14.00" fill="#000000">class = candy</text>
</g>
<!-- 0&#45;&gt;1 -->
<g id="edge1" class="edge">
<title>0&#45;&gt;1</title>
<path fill="none" stroke="#000000" d="M423.6701,-698.8796C417.7237,-690.1434 411.3914,-680.8404 405.255,-671.8253"/>
<polygon fill="#000000" stroke="#000000" points="407.9711,-669.5953 399.4508,-663.2981 402.1844,-673.5342 407.9711,-669.5953"/>
<text text-anchor="middle" x="394.7843" y="-684.1587" font-family="Times,serif" font-size="14.00" fill="#000000">True</text>
</g>
<!-- 16 -->
<g id="node17" class="node">
<title>16</title>
<polygon fill="none" stroke="#000000" points="630,-663 518,-663 518,-580 630,-580 630,-663"/>
<text text-anchor="middle" x="574" y="-647.8" font-family="Times,serif" font-size="14.00" fill="#000000">pluribus &lt;= 0.5</text>
<text text-anchor="middle" x="574" y="-632.8" font-family="Times,serif" font-size="14.00" fill="#000000">gini = 0.067</text>
<text text-anchor="middle" x="574" y="-617.8" font-family="Times,serif" font-size="14.00" fill="#000000">samples = 29</text>
<text text-anchor="middle" x="574" y="-602.8" font-family="Times,serif" font-size="14.00" fill="#000000">value = [28, 1]</text>
<text text-anchor="middle" x="574" y="-587.8" font-family="Times,serif" font-size="14.00" fill="#000000">class = chocolate</text>
</g>
<!-- 0&#45;&gt;16 -->
<g id="edge16" class="edge">
<title>0&#45;&gt;16</title>
<path fill="none" stroke="#000000" d="M494.6697,-698.8796C504.0877,-689.6931 514.1484,-679.8798 523.8328,-670.4336"/>
<polygon fill="#000000" stroke="#000000" points="526.4335,-672.7861 531.1482,-663.2981 521.5457,-667.7751 526.4335,-672.7861"/>
<text text-anchor="middle" x="530.837" y="-684.5961" font-family="Times,serif" font-size="14.00" fill="#000000">False</text>
</g>
<!-- 2 -->
<g id="node3" class="node">
<title>2</title>
<polygon fill="none" stroke="#000000" points="237,-544 95,-544 95,-461 237,-461 237,-544"/>
<text text-anchor="middle" x="166" y="-528.8" font-family="Times,serif" font-size="14.00" fill="#000000">sugarpercent &lt;= 0.319</text>
<text text-anchor="middle" x="166" y="-513.8" font-family="Times,serif" font-size="14.00" fill="#000000">gini = 0.494</text>
<text text-anchor="middle" x="166" y="-498.8" font-family="Times,serif" font-size="14.00" fill="#000000">samples = 9</text>
<text text-anchor="middle" x="166" y="-483.8" font-family="Times,serif" font-size="14.00" fill="#000000">value = [4, 5]</text>
<text text-anchor="middle" x="166" y="-468.8" font-family="Times,serif" font-size="14.00" fill="#000000">class = candy</text>
</g>
<!-- 1&#45;&gt;2 -->
<g id="edge2" class="edge">
<title>1&#45;&gt;2</title>
<path fill="none" stroke="#000000" d="M300.7374,-580.7134C283.1072,-570.4793 264.0603,-559.4228 245.9946,-548.9359"/>
<polygon fill="#000000" stroke="#000000" points="247.6209,-545.833 237.2152,-543.8396 244.1066,-551.8869 247.6209,-545.833"/>
</g>
<!-- 7 -->
<g id="node8" class="node">
<title>7</title>
<polygon fill="none" stroke="#000000" points="446,-544 296,-544 296,-461 446,-461 446,-544"/>
<text text-anchor="middle" x="371" y="-528.8" font-family="Times,serif" font-size="14.00" fill="#000000">peanutyalmondy &lt;= 0.5</text>
<text text-anchor="middle" x="371" y="-513.8" font-family="Times,serif" font-size="14.00" fill="#000000">gini = 0.153</text>
<text text-anchor="middle" x="371" y="-498.8" font-family="Times,serif" font-size="14.00" fill="#000000">samples = 24</text>
<text text-anchor="middle" x="371" y="-483.8" font-family="Times,serif" font-size="14.00" fill="#000000">value = [2, 22]</text>
<text text-anchor="middle" x="371" y="-468.8" font-family="Times,serif" font-size="14.00" fill="#000000">class = candy</text>
</g>
<!-- 1&#45;&gt;7 -->
<g id="edge7" class="edge">
<title>1&#45;&gt;7</title>
<path fill="none" stroke="#000000" d="M371,-579.8796C371,-571.6838 371,-562.9891 371,-554.5013"/>
<polygon fill="#000000" stroke="#000000" points="374.5001,-554.298 371,-544.2981 367.5001,-554.2981 374.5001,-554.298"/>
</g>
<!-- 3 -->
<g id="node4" class="node">
<title>3</title>
<polygon fill="none" stroke="#000000" points="92,-417.5 0,-417.5 0,-349.5 92,-349.5 92,-417.5"/>
<text text-anchor="middle" x="46" y="-402.3" font-family="Times,serif" font-size="14.00" fill="#000000">gini = 0.0</text>
<text text-anchor="middle" x="46" y="-387.3" font-family="Times,serif" font-size="14.00" fill="#000000">samples = 3</text>
<text text-anchor="middle" x="46" y="-372.3" font-family="Times,serif" font-size="14.00" fill="#000000">value = [0, 3]</text>
<text text-anchor="middle" x="46" y="-357.3" font-family="Times,serif" font-size="14.00" fill="#000000">class = candy</text>
</g>
<!-- 2&#45;&gt;3 -->
<g id="edge3" class="edge">
<title>2&#45;&gt;3</title>
<path fill="none" stroke="#000000" d="M124.0298,-460.8796C112.276,-449.2237 99.5046,-436.5587 87.7628,-424.9148"/>
<polygon fill="#000000" stroke="#000000" points="90.1684,-422.3712 80.6033,-417.8149 85.2394,-427.3416 90.1684,-422.3712"/>
</g>
<!-- 4 -->
<g id="node5" class="node">
<title>4</title>
<polygon fill="none" stroke="#000000" points="222,-425 110,-425 110,-342 222,-342 222,-425"/>
<text text-anchor="middle" x="166" y="-409.8" font-family="Times,serif" font-size="14.00" fill="#000000">bar &lt;= 0.5</text>
<text text-anchor="middle" x="166" y="-394.8" font-family="Times,serif" font-size="14.00" fill="#000000">gini = 0.444</text>
<text text-anchor="middle" x="166" y="-379.8" font-family="Times,serif" font-size="14.00" fill="#000000">samples = 6</text>
<text text-anchor="middle" x="166" y="-364.8" font-family="Times,serif" font-size="14.00" fill="#000000">value = [4, 2]</text>
<text text-anchor="middle" x="166" y="-349.8" font-family="Times,serif" font-size="14.00" fill="#000000">class = chocolate</text>
</g>
<!-- 2&#45;&gt;4 -->
<g id="edge4" class="edge">
<title>2&#45;&gt;4</title>
<path fill="none" stroke="#000000" d="M166,-460.8796C166,-452.6838 166,-443.9891 166,-435.5013"/>
<polygon fill="#000000" stroke="#000000" points="169.5001,-435.298 166,-425.2981 162.5001,-435.2981 169.5001,-435.298"/>
</g>
<!-- 5 -->
<g id="node6" class="node">
<title>5</title>
<polygon fill="none" stroke="#000000" points="167,-298.5 55,-298.5 55,-230.5 167,-230.5 167,-298.5"/>
<text text-anchor="middle" x="111" y="-283.3" font-family="Times,serif" font-size="14.00" fill="#000000">gini = 0.0</text>
<text text-anchor="middle" x="111" y="-268.3" font-family="Times,serif" font-size="14.00" fill="#000000">samples = 4</text>
<text text-anchor="middle" x="111" y="-253.3" font-family="Times,serif" font-size="14.00" fill="#000000">value = [4, 0]</text>
<text text-anchor="middle" x="111" y="-238.3" font-family="Times,serif" font-size="14.00" fill="#000000">class = chocolate</text>
</g>
<!-- 4&#45;&gt;5 -->
<g id="edge5" class="edge">
<title>4&#45;&gt;5</title>
<path fill="none" stroke="#000000" d="M146.7637,-341.8796C141.6814,-330.8835 136.1841,-318.9893 131.0595,-307.9015"/>
<polygon fill="#000000" stroke="#000000" points="134.2324,-306.4239 126.8598,-298.8149 127.8782,-309.3607 134.2324,-306.4239"/>
</g>
<!-- 6 -->
<g id="node7" class="node">
<title>6</title>
<polygon fill="none" stroke="#000000" points="277,-298.5 185,-298.5 185,-230.5 277,-230.5 277,-298.5"/>
<text text-anchor="middle" x="231" y="-283.3" font-family="Times,serif" font-size="14.00" fill="#000000">gini = 0.0</text>
<text text-anchor="middle" x="231" y="-268.3" font-family="Times,serif" font-size="14.00" fill="#000000">samples = 2</text>
<text text-anchor="middle" x="231" y="-253.3" font-family="Times,serif" font-size="14.00" fill="#000000">value = [0, 2]</text>
<text text-anchor="middle" x="231" y="-238.3" font-family="Times,serif" font-size="14.00" fill="#000000">class = candy</text>
</g>
<!-- 4&#45;&gt;6 -->
<g id="edge6" class="edge">
<title>4&#45;&gt;6</title>
<path fill="none" stroke="#000000" d="M188.7338,-341.8796C194.7401,-330.8835 201.237,-318.9893 207.2933,-307.9015"/>
<polygon fill="#000000" stroke="#000000" points="210.5345,-309.2689 212.2565,-298.8149 204.3912,-305.9133 210.5345,-309.2689"/>
</g>
<!-- 8 -->
<g id="node9" class="node">
<title>8</title>
<polygon fill="none" stroke="#000000" points="339.5,-417.5 240.5,-417.5 240.5,-349.5 339.5,-349.5 339.5,-417.5"/>
<text text-anchor="middle" x="290" y="-402.3" font-family="Times,serif" font-size="14.00" fill="#000000">gini = 0.0</text>
<text text-anchor="middle" x="290" y="-387.3" font-family="Times,serif" font-size="14.00" fill="#000000">samples = 17</text>
<text text-anchor="middle" x="290" y="-372.3" font-family="Times,serif" font-size="14.00" fill="#000000">value = [0, 17]</text>
<text text-anchor="middle" x="290" y="-357.3" font-family="Times,serif" font-size="14.00" fill="#000000">class = candy</text>
</g>
<!-- 7&#45;&gt;8 -->
<g id="edge8" class="edge">
<title>7&#45;&gt;8</title>
<path fill="none" stroke="#000000" d="M342.6701,-460.8796C335.0357,-449.6636 326.7652,-437.5131 319.0901,-426.2372"/>
<polygon fill="#000000" stroke="#000000" points="321.8775,-424.1122 313.3572,-417.8149 316.0908,-428.0511 321.8775,-424.1122"/>
</g>
<!-- 9 -->
<g id="node10" class="node">
<title>9</title>
<polygon fill="none" stroke="#000000" points="500,-425 358,-425 358,-342 500,-342 500,-425"/>
<text text-anchor="middle" x="429" y="-409.8" font-family="Times,serif" font-size="14.00" fill="#000000">sugarpercent &lt;= 0.359</text>
<text text-anchor="middle" x="429" y="-394.8" font-family="Times,serif" font-size="14.00" fill="#000000">gini = 0.408</text>
<text text-anchor="middle" x="429" y="-379.8" font-family="Times,serif" font-size="14.00" fill="#000000">samples = 7</text>
<text text-anchor="middle" x="429" y="-364.8" font-family="Times,serif" font-size="14.00" fill="#000000">value = [2, 5]</text>
<text text-anchor="middle" x="429" y="-349.8" font-family="Times,serif" font-size="14.00" fill="#000000">class = candy</text>
</g>
<!-- 7&#45;&gt;9 -->
<g id="edge9" class="edge">
<title>7&#45;&gt;9</title>
<path fill="none" stroke="#000000" d="M391.2856,-460.8796C395.4557,-452.3236 399.8909,-443.2238 404.1997,-434.3833"/>
<polygon fill="#000000" stroke="#000000" points="407.3927,-435.8207 408.6278,-425.2981 401.1003,-432.7538 407.3927,-435.8207"/>
</g>
<!-- 10 -->
<g id="node11" class="node">
<title>10</title>
<polygon fill="none" stroke="#000000" points="418,-298.5 306,-298.5 306,-230.5 418,-230.5 418,-298.5"/>
<text text-anchor="middle" x="362" y="-283.3" font-family="Times,serif" font-size="14.00" fill="#000000">gini = 0.0</text>
<text text-anchor="middle" x="362" y="-268.3" font-family="Times,serif" font-size="14.00" fill="#000000">samples = 1</text>
<text text-anchor="middle" x="362" y="-253.3" font-family="Times,serif" font-size="14.00" fill="#000000">value = [1, 0]</text>
<text text-anchor="middle" x="362" y="-238.3" font-family="Times,serif" font-size="14.00" fill="#000000">class = chocolate</text>
</g>
<!-- 9&#45;&gt;10 -->
<g id="edge10" class="edge">
<title>9&#45;&gt;10</title>
<path fill="none" stroke="#000000" d="M405.5667,-341.8796C399.3137,-330.7735 392.5448,-318.7513 386.249,-307.5691"/>
<polygon fill="#000000" stroke="#000000" points="389.2761,-305.8116 381.3202,-298.8149 383.1765,-309.2459 389.2761,-305.8116"/>
</g>
<!-- 11 -->
<g id="node12" class="node">
<title>11</title>
<polygon fill="none" stroke="#000000" points="531.5,-306 436.5,-306 436.5,-223 531.5,-223 531.5,-306"/>
<text text-anchor="middle" x="484" y="-290.8" font-family="Times,serif" font-size="14.00" fill="#000000">nougat &lt;= 0.5</text>
<text text-anchor="middle" x="484" y="-275.8" font-family="Times,serif" font-size="14.00" fill="#000000">gini = 0.278</text>
<text text-anchor="middle" x="484" y="-260.8" font-family="Times,serif" font-size="14.00" fill="#000000">samples = 6</text>
<text text-anchor="middle" x="484" y="-245.8" font-family="Times,serif" font-size="14.00" fill="#000000">value = [1, 5]</text>
<text text-anchor="middle" x="484" y="-230.8" font-family="Times,serif" font-size="14.00" fill="#000000">class = candy</text>
</g>
<!-- 9&#45;&gt;11 -->
<g id="edge11" class="edge">
<title>9&#45;&gt;11</title>
<path fill="none" stroke="#000000" d="M448.2363,-341.8796C452.1908,-333.3236 456.3966,-324.2238 460.4825,-315.3833"/>
<polygon fill="#000000" stroke="#000000" points="463.6632,-316.8439 464.6816,-306.2981 457.309,-313.907 463.6632,-316.8439"/>
</g>
<!-- 12 -->
<g id="node13" class="node">
<title>12</title>
<polygon fill="none" stroke="#000000" points="441,-179.5 349,-179.5 349,-111.5 441,-111.5 441,-179.5"/>
<text text-anchor="middle" x="395" y="-164.3" font-family="Times,serif" font-size="14.00" fill="#000000">gini = 0.0</text>
<text text-anchor="middle" x="395" y="-149.3" font-family="Times,serif" font-size="14.00" fill="#000000">samples = 4</text>
<text text-anchor="middle" x="395" y="-134.3" font-family="Times,serif" font-size="14.00" fill="#000000">value = [0, 4]</text>
<text text-anchor="middle" x="395" y="-119.3" font-family="Times,serif" font-size="14.00" fill="#000000">class = candy</text>
</g>
<!-- 11&#45;&gt;12 -->
<g id="edge12" class="edge">
<title>11&#45;&gt;12</title>
<path fill="none" stroke="#000000" d="M452.8721,-222.8796C444.4014,-211.5536 435.2181,-199.2748 426.7153,-187.9058"/>
<polygon fill="#000000" stroke="#000000" points="429.4562,-185.7268 420.6641,-179.8149 423.8505,-189.9193 429.4562,-185.7268"/>
</g>
<!-- 13 -->
<g id="node14" class="node">
<title>13</title>
<polygon fill="none" stroke="#000000" points="601,-187 459,-187 459,-104 601,-104 601,-187"/>
<text text-anchor="middle" x="530" y="-171.8" font-family="Times,serif" font-size="14.00" fill="#000000">sugarpercent &lt;= 0.534</text>
<text text-anchor="middle" x="530" y="-156.8" font-family="Times,serif" font-size="14.00" fill="#000000">gini = 0.5</text>
<text text-anchor="middle" x="530" y="-141.8" font-family="Times,serif" font-size="14.00" fill="#000000">samples = 2</text>
<text text-anchor="middle" x="530" y="-126.8" font-family="Times,serif" font-size="14.00" fill="#000000">value = [1, 1]</text>
<text text-anchor="middle" x="530" y="-111.8" font-family="Times,serif" font-size="14.00" fill="#000000">class = chocolate</text>
</g>
<!-- 11&#45;&gt;13 -->
<g id="edge13" class="edge">
<title>11&#45;&gt;13</title>
<path fill="none" stroke="#000000" d="M500.0886,-222.8796C503.3611,-214.4136 506.8395,-205.4153 510.2229,-196.6626"/>
<polygon fill="#000000" stroke="#000000" points="513.5017,-197.8874 513.8428,-187.2981 506.9726,-195.3635 513.5017,-197.8874"/>
</g>
<!-- 14 -->
<g id="node15" class="node">
<title>14</title>
<polygon fill="none" stroke="#000000" points="526,-68 414,-68 414,0 526,0 526,-68"/>
<text text-anchor="middle" x="470" y="-52.8" font-family="Times,serif" font-size="14.00" fill="#000000">gini = 0.0</text>
<text text-anchor="middle" x="470" y="-37.8" font-family="Times,serif" font-size="14.00" fill="#000000">samples = 1</text>
<text text-anchor="middle" x="470" y="-22.8" font-family="Times,serif" font-size="14.00" fill="#000000">value = [1, 0]</text>
<text text-anchor="middle" x="470" y="-7.8" font-family="Times,serif" font-size="14.00" fill="#000000">class = chocolate</text>
</g>
<!-- 13&#45;&gt;14 -->
<g id="edge14" class="edge">
<title>13&#45;&gt;14</title>
<path fill="none" stroke="#000000" d="M507.6582,-103.9815C502.9598,-95.2504 497.9929,-86.0202 493.2617,-77.2281"/>
<polygon fill="#000000" stroke="#000000" points="496.2586,-75.4111 488.4379,-68.2637 490.0944,-78.7282 496.2586,-75.4111"/>
</g>
<!-- 15 -->
<g id="node16" class="node">
<title>15</title>
<polygon fill="none" stroke="#000000" points="636,-68 544,-68 544,0 636,0 636,-68"/>
<text text-anchor="middle" x="590" y="-52.8" font-family="Times,serif" font-size="14.00" fill="#000000">gini = 0.0</text>
<text text-anchor="middle" x="590" y="-37.8" font-family="Times,serif" font-size="14.00" fill="#000000">samples = 1</text>
<text text-anchor="middle" x="590" y="-22.8" font-family="Times,serif" font-size="14.00" fill="#000000">value = [0, 1]</text>
<text text-anchor="middle" x="590" y="-7.8" font-family="Times,serif" font-size="14.00" fill="#000000">class = candy</text>
</g>
<!-- 13&#45;&gt;15 -->
<g id="edge15" class="edge">
<title>13&#45;&gt;15</title>
<path fill="none" stroke="#000000" d="M552.3418,-103.9815C557.0402,-95.2504 562.0071,-86.0202 566.7383,-77.2281"/>
<polygon fill="#000000" stroke="#000000" points="569.9056,-78.7282 571.5621,-68.2637 563.7414,-75.4111 569.9056,-78.7282"/>
</g>
<!-- 17 -->
<g id="node18" class="node">
<title>17</title>
<polygon fill="none" stroke="#000000" points="644,-544 504,-544 504,-461 644,-461 644,-544"/>
<text text-anchor="middle" x="574" y="-528.8" font-family="Times,serif" font-size="14.00" fill="#000000">pricepercent &lt;= 0.302</text>
<text text-anchor="middle" x="574" y="-513.8" font-family="Times,serif" font-size="14.00" fill="#000000">gini = 0.18</text>
<text text-anchor="middle" x="574" y="-498.8" font-family="Times,serif" font-size="14.00" fill="#000000">samples = 10</text>
<text text-anchor="middle" x="574" y="-483.8" font-family="Times,serif" font-size="14.00" fill="#000000">value = [9, 1]</text>
<text text-anchor="middle" x="574" y="-468.8" font-family="Times,serif" font-size="14.00" fill="#000000">class = chocolate</text>
</g>
<!-- 16&#45;&gt;17 -->
<g id="edge17" class="edge">
<title>16&#45;&gt;17</title>
<path fill="none" stroke="#000000" d="M574,-579.8796C574,-571.6838 574,-562.9891 574,-554.5013"/>
<polygon fill="#000000" stroke="#000000" points="577.5001,-554.298 574,-544.2981 570.5001,-554.2981 577.5001,-554.298"/>
</g>
<!-- 24 -->
<g id="node25" class="node">
<title>24</title>
<polygon fill="none" stroke="#000000" points="774,-536.5 662,-536.5 662,-468.5 774,-468.5 774,-536.5"/>
<text text-anchor="middle" x="718" y="-521.3" font-family="Times,serif" font-size="14.00" fill="#000000">gini = 0.0</text>
<text text-anchor="middle" x="718" y="-506.3" font-family="Times,serif" font-size="14.00" fill="#000000">samples = 19</text>
<text text-anchor="middle" x="718" y="-491.3" font-family="Times,serif" font-size="14.00" fill="#000000">value = [19, 0]</text>
<text text-anchor="middle" x="718" y="-476.3" font-family="Times,serif" font-size="14.00" fill="#000000">class = chocolate</text>
</g>
<!-- 16&#45;&gt;24 -->
<g id="edge24" class="edge">
<title>16&#45;&gt;24</title>
<path fill="none" stroke="#000000" d="M624.3642,-579.8796C638.7349,-568.0038 654.3733,-555.0804 668.6808,-543.2568"/>
<polygon fill="#000000" stroke="#000000" points="670.9971,-545.8831 676.476,-536.8149 666.538,-540.4872 670.9971,-545.8831"/>
</g>
<!-- 18 -->
<g id="node19" class="node">
<title>18</title>
<polygon fill="none" stroke="#000000" points="630,-417.5 518,-417.5 518,-349.5 630,-349.5 630,-417.5"/>
<text text-anchor="middle" x="574" y="-402.3" font-family="Times,serif" font-size="14.00" fill="#000000">gini = 0.0</text>
<text text-anchor="middle" x="574" y="-387.3" font-family="Times,serif" font-size="14.00" fill="#000000">samples = 6</text>
<text text-anchor="middle" x="574" y="-372.3" font-family="Times,serif" font-size="14.00" fill="#000000">value = [6, 0]</text>
<text text-anchor="middle" x="574" y="-357.3" font-family="Times,serif" font-size="14.00" fill="#000000">class = chocolate</text>
</g>
<!-- 17&#45;&gt;18 -->
<g id="edge18" class="edge">
<title>17&#45;&gt;18</title>
<path fill="none" stroke="#000000" d="M574,-460.8796C574,-450.2134 574,-438.7021 574,-427.9015"/>
<polygon fill="#000000" stroke="#000000" points="577.5001,-427.8149 574,-417.8149 570.5001,-427.815 577.5001,-427.8149"/>
</g>
<!-- 19 -->
<g id="node20" class="node">
<title>19</title>
<polygon fill="none" stroke="#000000" points="760,-425 648,-425 648,-342 760,-342 760,-425"/>
<text text-anchor="middle" x="704" y="-409.8" font-family="Times,serif" font-size="14.00" fill="#000000">hard &lt;= 0.5</text>
<text text-anchor="middle" x="704" y="-394.8" font-family="Times,serif" font-size="14.00" fill="#000000">gini = 0.375</text>
<text text-anchor="middle" x="704" y="-379.8" font-family="Times,serif" font-size="14.00" fill="#000000">samples = 4</text>
<text text-anchor="middle" x="704" y="-364.8" font-family="Times,serif" font-size="14.00" fill="#000000">value = [3, 1]</text>
<text text-anchor="middle" x="704" y="-349.8" font-family="Times,serif" font-size="14.00" fill="#000000">class = chocolate</text>
</g>
<!-- 17&#45;&gt;19 -->
<g id="edge19" class="edge">
<title>17&#45;&gt;19</title>
<path fill="none" stroke="#000000" d="M619.4677,-460.8796C629.6017,-451.6031 640.434,-441.6874 650.8465,-432.1559"/>
<polygon fill="#000000" stroke="#000000" points="653.3252,-434.6319 658.3382,-425.2981 648.5987,-429.4685 653.3252,-434.6319"/>
</g>
<!-- 20 -->
<g id="node21" class="node">
<title>20</title>
<polygon fill="none" stroke="#000000" points="683,-298.5 571,-298.5 571,-230.5 683,-230.5 683,-298.5"/>
<text text-anchor="middle" x="627" y="-283.3" font-family="Times,serif" font-size="14.00" fill="#000000">gini = 0.0</text>
<text text-anchor="middle" x="627" y="-268.3" font-family="Times,serif" font-size="14.00" fill="#000000">samples = 2</text>
<text text-anchor="middle" x="627" y="-253.3" font-family="Times,serif" font-size="14.00" fill="#000000">value = [2, 0]</text>
<text text-anchor="middle" x="627" y="-238.3" font-family="Times,serif" font-size="14.00" fill="#000000">class = chocolate</text>
</g>
<!-- 19&#45;&gt;20 -->
<g id="edge20" class="edge">
<title>19&#45;&gt;20</title>
<path fill="none" stroke="#000000" d="M677.0691,-341.8796C669.8117,-330.6636 661.9497,-318.5131 654.6535,-307.2372"/>
<polygon fill="#000000" stroke="#000000" points="657.5748,-305.3093 649.2038,-298.8149 651.6978,-309.112 657.5748,-305.3093"/>
</g>
<!-- 21 -->
<g id="node22" class="node">
<title>21</title>
<polygon fill="none" stroke="#000000" points="843,-306 701,-306 701,-223 843,-223 843,-306"/>
<text text-anchor="middle" x="772" y="-290.8" font-family="Times,serif" font-size="14.00" fill="#000000">sugarpercent &lt;= 0.668</text>
<text text-anchor="middle" x="772" y="-275.8" font-family="Times,serif" font-size="14.00" fill="#000000">gini = 0.5</text>
<text text-anchor="middle" x="772" y="-260.8" font-family="Times,serif" font-size="14.00" fill="#000000">samples = 2</text>
<text text-anchor="middle" x="772" y="-245.8" font-family="Times,serif" font-size="14.00" fill="#000000">value = [1, 1]</text>
<text text-anchor="middle" x="772" y="-230.8" font-family="Times,serif" font-size="14.00" fill="#000000">class = chocolate</text>
</g>
<!-- 19&#45;&gt;21 -->
<g id="edge21" class="edge">
<title>19&#45;&gt;21</title>
<path fill="none" stroke="#000000" d="M727.7831,-341.8796C732.7237,-333.2335 737.9816,-324.0322 743.0833,-315.1042"/>
<polygon fill="#000000" stroke="#000000" points="746.1928,-316.717 748.1154,-306.2981 740.1151,-313.244 746.1928,-316.717"/>
</g>
<!-- 22 -->
<g id="node23" class="node">
<title>22</title>
<polygon fill="none" stroke="#000000" points="758,-179.5 666,-179.5 666,-111.5 758,-111.5 758,-179.5"/>
<text text-anchor="middle" x="712" y="-164.3" font-family="Times,serif" font-size="14.00" fill="#000000">gini = 0.0</text>
<text text-anchor="middle" x="712" y="-149.3" font-family="Times,serif" font-size="14.00" fill="#000000">samples = 1</text>
<text text-anchor="middle" x="712" y="-134.3" font-family="Times,serif" font-size="14.00" fill="#000000">value = [0, 1]</text>
<text text-anchor="middle" x="712" y="-119.3" font-family="Times,serif" font-size="14.00" fill="#000000">class = candy</text>
</g>
<!-- 21&#45;&gt;22 -->
<g id="edge22" class="edge">
<title>21&#45;&gt;22</title>
<path fill="none" stroke="#000000" d="M751.0149,-222.8796C745.4707,-211.8835 739.4736,-199.9893 733.8831,-188.9015"/>
<polygon fill="#000000" stroke="#000000" points="736.9291,-187.1684 729.3016,-179.8149 730.6786,-190.3199 736.9291,-187.1684"/>
</g>
<!-- 23 -->
<g id="node24" class="node">
<title>23</title>
<polygon fill="none" stroke="#000000" points="888,-179.5 776,-179.5 776,-111.5 888,-111.5 888,-179.5"/>
<text text-anchor="middle" x="832" y="-164.3" font-family="Times,serif" font-size="14.00" fill="#000000">gini = 0.0</text>
<text text-anchor="middle" x="832" y="-149.3" font-family="Times,serif" font-size="14.00" fill="#000000">samples = 1</text>
<text text-anchor="middle" x="832" y="-134.3" font-family="Times,serif" font-size="14.00" fill="#000000">value = [1, 0]</text>
<text text-anchor="middle" x="832" y="-119.3" font-family="Times,serif" font-size="14.00" fill="#000000">class = chocolate</text>
</g>
<!-- 21&#45;&gt;23 -->
<g id="edge23" class="edge">
<title>21&#45;&gt;23</title>
<path fill="none" stroke="#000000" d="M792.9851,-222.8796C798.5293,-211.8835 804.5264,-199.9893 810.1169,-188.9015"/>
<polygon fill="#000000" stroke="#000000" points="813.3214,-190.3199 814.6984,-179.8149 807.0709,-187.1684 813.3214,-190.3199"/>
</g>
</g>
</svg>
