<?xml version="1.0" encoding="utf-8" standalone="no"?>
<!DOCTYPE svg PUBLIC "-//W3C//DTD SVG 1.1//EN"
  "http://www.w3.org/Graphics/SVG/1.1/DTD/svg11.dtd">
<!-- Created with matplotlib (https://matplotlib.org/) -->
<svg height="286.199063pt" version="1.1" viewBox="0 0 417.598125 286.199063" width="417.598125pt" xmlns="http://www.w3.org/2000/svg" xmlns:xlink="http://www.w3.org/1999/xlink">
 <defs>
  <style type="text/css">
*{stroke-linecap:butt;stroke-linejoin:round;}
  </style>
 </defs>
 <g id="figure_1">
  <g id="patch_1">
   <path d="M 0 286.199063 
L 417.598125 286.199063 
L 417.598125 0 
L 0 0 
z
" style="fill:#f0f0f0;"/>
  </g>
  <g id="axes_1">
   <g id="patch_2">
    <path d="M 34.558125 254.078438 
L 410.398125 254.078438 
L 410.398125 20.798438 
L 34.558125 20.798438 
z
" style="fill:#f0f0f0;"/>
   </g>
   <g id="matplotlib.axis_1">
    <g id="xtick_1">
     <g id="line2d_1">
      <path clip-path="url(#p86762040e8)" d="M 105.668206 254.078438 
L 105.668206 20.798438 
" style="fill:none;stroke:#808080;stroke-opacity:0.5;stroke-width:0.25;"/>
     </g>
     <g id="line2d_2"/>
     <g id="text_1">
      <!-- 0.2 -->
      <defs>
       <path d="M 31.78125 66.40625 
Q 24.171875 66.40625 20.328125 58.90625 
Q 16.5 51.421875 16.5 36.375 
Q 16.5 21.390625 20.328125 13.890625 
Q 24.171875 6.390625 31.78125 6.390625 
Q 39.453125 6.390625 43.28125 13.890625 
Q 47.125 21.390625 47.125 36.375 
Q 47.125 51.421875 43.28125 58.90625 
Q 39.453125 66.40625 31.78125 66.40625 
z
M 31.78125 74.21875 
Q 44.046875 74.21875 50.515625 64.515625 
Q 56.984375 54.828125 56.984375 36.375 
Q 56.984375 17.96875 50.515625 8.265625 
Q 44.046875 -1.421875 31.78125 -1.421875 
Q 19.53125 -1.421875 13.0625 8.265625 
Q 6.59375 17.96875 6.59375 36.375 
Q 6.59375 54.828125 13.0625 64.515625 
Q 19.53125 74.21875 31.78125 74.21875 
z
" id="DejaVuSans-48"/>
       <path d="M 10.6875 12.40625 
L 21 12.40625 
L 21 0 
L 10.6875 0 
z
" id="DejaVuSans-46"/>
       <path d="M 19.1875 8.296875 
L 53.609375 8.296875 
L 53.609375 0 
L 7.328125 0 
L 7.328125 8.296875 
Q 12.9375 14.109375 22.625 23.890625 
Q 32.328125 33.6875 34.8125 36.53125 
Q 39.546875 41.84375 41.421875 45.53125 
Q 43.3125 49.21875 43.3125 52.78125 
Q 43.3125 58.59375 39.234375 62.25 
Q 35.15625 65.921875 28.609375 65.921875 
Q 23.96875 65.921875 18.8125 64.3125 
Q 13.671875 62.703125 7.8125 59.421875 
L 7.8125 69.390625 
Q 13.765625 71.78125 18.9375 73 
Q 24.125 74.21875 28.421875 74.21875 
Q 39.75 74.21875 46.484375 68.546875 
Q 53.21875 62.890625 53.21875 53.421875 
Q 53.21875 48.921875 51.53125 44.890625 
Q 49.859375 40.875 45.40625 35.40625 
Q 44.1875 33.984375 37.640625 27.21875 
Q 31.109375 20.453125 19.1875 8.296875 
z
" id="DejaVuSans-50"/>
      </defs>
      <g transform="translate(99.306956 263.657188)scale(0.08 -0.08)">
       <use xlink:href="#DejaVuSans-48"/>
       <use x="63.623047" xlink:href="#DejaVuSans-46"/>
       <use x="95.410156" xlink:href="#DejaVuSans-50"/>
      </g>
     </g>
    </g>
    <g id="xtick_2">
     <g id="line2d_3">
      <path clip-path="url(#p86762040e8)" d="M 182.986425 254.078438 
L 182.986425 20.798438 
" style="fill:none;stroke:#808080;stroke-opacity:0.5;stroke-width:0.25;"/>
     </g>
     <g id="line2d_4"/>
     <g id="text_2">
      <!-- 0.4 -->
      <defs>
       <path d="M 37.796875 64.3125 
L 12.890625 25.390625 
L 37.796875 25.390625 
z
M 35.203125 72.90625 
L 47.609375 72.90625 
L 47.609375 25.390625 
L 58.015625 25.390625 
L 58.015625 17.1875 
L 47.609375 17.1875 
L 47.609375 0 
L 37.796875 0 
L 37.796875 17.1875 
L 4.890625 17.1875 
L 4.890625 26.703125 
z
" id="DejaVuSans-52"/>
      </defs>
      <g transform="translate(176.625175 263.657188)scale(0.08 -0.08)">
       <use xlink:href="#DejaVuSans-48"/>
       <use x="63.623047" xlink:href="#DejaVuSans-46"/>
       <use x="95.410156" xlink:href="#DejaVuSans-52"/>
      </g>
     </g>
    </g>
    <g id="xtick_3">
     <g id="line2d_5">
      <path clip-path="url(#p86762040e8)" d="M 260.304644 254.078438 
L 260.304644 20.798438 
" style="fill:none;stroke:#808080;stroke-opacity:0.5;stroke-width:0.25;"/>
     </g>
     <g id="line2d_6"/>
     <g id="text_3">
      <!-- 0.6 -->
      <defs>
       <path d="M 33.015625 40.375 
Q 26.375 40.375 22.484375 35.828125 
Q 18.609375 31.296875 18.609375 23.390625 
Q 18.609375 15.53125 22.484375 10.953125 
Q 26.375 6.390625 33.015625 6.390625 
Q 39.65625 6.390625 43.53125 10.953125 
Q 47.40625 15.53125 47.40625 23.390625 
Q 47.40625 31.296875 43.53125 35.828125 
Q 39.65625 40.375 33.015625 40.375 
z
M 52.59375 71.296875 
L 52.59375 62.3125 
Q 48.875 64.0625 45.09375 64.984375 
Q 41.3125 65.921875 37.59375 65.921875 
Q 27.828125 65.921875 22.671875 59.328125 
Q 17.53125 52.734375 16.796875 39.40625 
Q 19.671875 43.65625 24.015625 45.921875 
Q 28.375 48.1875 33.59375 48.1875 
Q 44.578125 48.1875 50.953125 41.515625 
Q 57.328125 34.859375 57.328125 23.390625 
Q 57.328125 12.15625 50.6875 5.359375 
Q 44.046875 -1.421875 33.015625 -1.421875 
Q 20.359375 -1.421875 13.671875 8.265625 
Q 6.984375 17.96875 6.984375 36.375 
Q 6.984375 53.65625 15.1875 63.9375 
Q 23.390625 74.21875 37.203125 74.21875 
Q 40.921875 74.21875 44.703125 73.484375 
Q 48.484375 72.75 52.59375 71.296875 
z
" id="DejaVuSans-54"/>
      </defs>
      <g transform="translate(253.943394 263.657188)scale(0.08 -0.08)">
       <use xlink:href="#DejaVuSans-48"/>
       <use x="63.623047" xlink:href="#DejaVuSans-46"/>
       <use x="95.410156" xlink:href="#DejaVuSans-54"/>
      </g>
     </g>
    </g>
    <g id="xtick_4">
     <g id="line2d_7">
      <path clip-path="url(#p86762040e8)" d="M 337.622863 254.078438 
L 337.622863 20.798438 
" style="fill:none;stroke:#808080;stroke-opacity:0.5;stroke-width:0.25;"/>
     </g>
     <g id="line2d_8"/>
     <g id="text_4">
      <!-- 0.8 -->
      <defs>
       <path d="M 31.78125 34.625 
Q 24.75 34.625 20.71875 30.859375 
Q 16.703125 27.09375 16.703125 20.515625 
Q 16.703125 13.921875 20.71875 10.15625 
Q 24.75 6.390625 31.78125 6.390625 
Q 38.8125 6.390625 42.859375 10.171875 
Q 46.921875 13.96875 46.921875 20.515625 
Q 46.921875 27.09375 42.890625 30.859375 
Q 38.875 34.625 31.78125 34.625 
z
M 21.921875 38.8125 
Q 15.578125 40.375 12.03125 44.71875 
Q 8.5 49.078125 8.5 55.328125 
Q 8.5 64.0625 14.71875 69.140625 
Q 20.953125 74.21875 31.78125 74.21875 
Q 42.671875 74.21875 48.875 69.140625 
Q 55.078125 64.0625 55.078125 55.328125 
Q 55.078125 49.078125 51.53125 44.71875 
Q 48 40.375 41.703125 38.8125 
Q 48.828125 37.15625 52.796875 32.3125 
Q 56.78125 27.484375 56.78125 20.515625 
Q 56.78125 9.90625 50.3125 4.234375 
Q 43.84375 -1.421875 31.78125 -1.421875 
Q 19.734375 -1.421875 13.25 4.234375 
Q 6.78125 9.90625 6.78125 20.515625 
Q 6.78125 27.484375 10.78125 32.3125 
Q 14.796875 37.15625 21.921875 38.8125 
z
M 18.3125 54.390625 
Q 18.3125 48.734375 21.84375 45.5625 
Q 25.390625 42.390625 31.78125 42.390625 
Q 38.140625 42.390625 41.71875 45.5625 
Q 45.3125 48.734375 45.3125 54.390625 
Q 45.3125 60.0625 41.71875 63.234375 
Q 38.140625 66.40625 31.78125 66.40625 
Q 25.390625 66.40625 21.84375 63.234375 
Q 18.3125 60.0625 18.3125 54.390625 
z
" id="DejaVuSans-56"/>
      </defs>
      <g transform="translate(331.261613 263.657188)scale(0.08 -0.08)">
       <use xlink:href="#DejaVuSans-48"/>
       <use x="63.623047" xlink:href="#DejaVuSans-46"/>
       <use x="95.410156" xlink:href="#DejaVuSans-56"/>
      </g>
     </g>
    </g>
    <g id="text_5">
     <!-- probability -->
     <defs>
      <path d="M 18.109375 8.203125 
L 18.109375 -20.796875 
L 9.078125 -20.796875 
L 9.078125 54.6875 
L 18.109375 54.6875 
L 18.109375 46.390625 
Q 20.953125 51.265625 25.265625 53.625 
Q 29.59375 56 35.59375 56 
Q 45.5625 56 51.78125 48.09375 
Q 58.015625 40.1875 58.015625 27.296875 
Q 58.015625 14.40625 51.78125 6.484375 
Q 45.5625 -1.421875 35.59375 -1.421875 
Q 29.59375 -1.421875 25.265625 0.953125 
Q 20.953125 3.328125 18.109375 8.203125 
z
M 48.6875 27.296875 
Q 48.6875 37.203125 44.609375 42.84375 
Q 40.53125 48.484375 33.40625 48.484375 
Q 26.265625 48.484375 22.1875 42.84375 
Q 18.109375 37.203125 18.109375 27.296875 
Q 18.109375 17.390625 22.1875 11.75 
Q 26.265625 6.109375 33.40625 6.109375 
Q 40.53125 6.109375 44.609375 11.75 
Q 48.6875 17.390625 48.6875 27.296875 
z
" id="DejaVuSans-112"/>
      <path d="M 41.109375 46.296875 
Q 39.59375 47.171875 37.8125 47.578125 
Q 36.03125 48 33.890625 48 
Q 26.265625 48 22.1875 43.046875 
Q 18.109375 38.09375 18.109375 28.8125 
L 18.109375 0 
L 9.078125 0 
L 9.078125 54.6875 
L 18.109375 54.6875 
L 18.109375 46.1875 
Q 20.953125 51.171875 25.484375 53.578125 
Q 30.03125 56 36.53125 56 
Q 37.453125 56 38.578125 55.875 
Q 39.703125 55.765625 41.0625 55.515625 
z
" id="DejaVuSans-114"/>
      <path d="M 30.609375 48.390625 
Q 23.390625 48.390625 19.1875 42.75 
Q 14.984375 37.109375 14.984375 27.296875 
Q 14.984375 17.484375 19.15625 11.84375 
Q 23.34375 6.203125 30.609375 6.203125 
Q 37.796875 6.203125 41.984375 11.859375 
Q 46.1875 17.53125 46.1875 27.296875 
Q 46.1875 37.015625 41.984375 42.703125 
Q 37.796875 48.390625 30.609375 48.390625 
z
M 30.609375 56 
Q 42.328125 56 49.015625 48.375 
Q 55.71875 40.765625 55.71875 27.296875 
Q 55.71875 13.875 49.015625 6.21875 
Q 42.328125 -1.421875 30.609375 -1.421875 
Q 18.84375 -1.421875 12.171875 6.21875 
Q 5.515625 13.875 5.515625 27.296875 
Q 5.515625 40.765625 12.171875 48.375 
Q 18.84375 56 30.609375 56 
z
" id="DejaVuSans-111"/>
      <path d="M 48.6875 27.296875 
Q 48.6875 37.203125 44.609375 42.84375 
Q 40.53125 48.484375 33.40625 48.484375 
Q 26.265625 48.484375 22.1875 42.84375 
Q 18.109375 37.203125 18.109375 27.296875 
Q 18.109375 17.390625 22.1875 11.75 
Q 26.265625 6.109375 33.40625 6.109375 
Q 40.53125 6.109375 44.609375 11.75 
Q 48.6875 17.390625 48.6875 27.296875 
z
M 18.109375 46.390625 
Q 20.953125 51.265625 25.265625 53.625 
Q 29.59375 56 35.59375 56 
Q 45.5625 56 51.78125 48.09375 
Q 58.015625 40.1875 58.015625 27.296875 
Q 58.015625 14.40625 51.78125 6.484375 
Q 45.5625 -1.421875 35.59375 -1.421875 
Q 29.59375 -1.421875 25.265625 0.953125 
Q 20.953125 3.328125 18.109375 8.203125 
L 18.109375 0 
L 9.078125 0 
L 9.078125 75.984375 
L 18.109375 75.984375 
z
" id="DejaVuSans-98"/>
      <path d="M 34.28125 27.484375 
Q 23.390625 27.484375 19.1875 25 
Q 14.984375 22.515625 14.984375 16.5 
Q 14.984375 11.71875 18.140625 8.90625 
Q 21.296875 6.109375 26.703125 6.109375 
Q 34.1875 6.109375 38.703125 11.40625 
Q 43.21875 16.703125 43.21875 25.484375 
L 43.21875 27.484375 
z
M 52.203125 31.203125 
L 52.203125 0 
L 43.21875 0 
L 43.21875 8.296875 
Q 40.140625 3.328125 35.546875 0.953125 
Q 30.953125 -1.421875 24.3125 -1.421875 
Q 15.921875 -1.421875 10.953125 3.296875 
Q 6 8.015625 6 15.921875 
Q 6 25.140625 12.171875 29.828125 
Q 18.359375 34.515625 30.609375 34.515625 
L 43.21875 34.515625 
L 43.21875 35.40625 
Q 43.21875 41.609375 39.140625 45 
Q 35.0625 48.390625 27.6875 48.390625 
Q 23 48.390625 18.546875 47.265625 
Q 14.109375 46.140625 10.015625 43.890625 
L 10.015625 52.203125 
Q 14.9375 54.109375 19.578125 55.046875 
Q 24.21875 56 28.609375 56 
Q 40.484375 56 46.34375 49.84375 
Q 52.203125 43.703125 52.203125 31.203125 
z
" id="DejaVuSans-97"/>
      <path d="M 9.421875 54.6875 
L 18.40625 54.6875 
L 18.40625 0 
L 9.421875 0 
z
M 9.421875 75.984375 
L 18.40625 75.984375 
L 18.40625 64.59375 
L 9.421875 64.59375 
z
" id="DejaVuSans-105"/>
      <path d="M 9.421875 75.984375 
L 18.40625 75.984375 
L 18.40625 0 
L 9.421875 0 
z
" id="DejaVuSans-108"/>
      <path d="M 18.3125 70.21875 
L 18.3125 54.6875 
L 36.8125 54.6875 
L 36.8125 47.703125 
L 18.3125 47.703125 
L 18.3125 18.015625 
Q 18.3125 11.328125 20.140625 9.421875 
Q 21.96875 7.515625 27.59375 7.515625 
L 36.8125 7.515625 
L 36.8125 0 
L 27.59375 0 
Q 17.1875 0 13.234375 3.875 
Q 9.28125 7.765625 9.28125 18.015625 
L 9.28125 47.703125 
L 2.6875 47.703125 
L 2.6875 54.6875 
L 9.28125 54.6875 
L 9.28125 70.21875 
z
" id="DejaVuSans-116"/>
      <path d="M 32.171875 -5.078125 
Q 28.375 -14.84375 24.75 -17.8125 
Q 21.140625 -20.796875 15.09375 -20.796875 
L 7.90625 -20.796875 
L 7.90625 -13.28125 
L 13.1875 -13.28125 
Q 16.890625 -13.28125 18.9375 -11.515625 
Q 21 -9.765625 23.484375 -3.21875 
L 25.09375 0.875 
L 2.984375 54.6875 
L 12.5 54.6875 
L 29.59375 11.921875 
L 46.6875 54.6875 
L 56.203125 54.6875 
z
" id="DejaVuSans-121"/>
     </defs>
     <g transform="translate(195.691406 276.919375)scale(0.1 -0.1)">
      <use xlink:href="#DejaVuSans-112"/>
      <use x="63.476562" xlink:href="#DejaVuSans-114"/>
      <use x="104.558594" xlink:href="#DejaVuSans-111"/>
      <use x="165.740234" xlink:href="#DejaVuSans-98"/>
      <use x="229.216797" xlink:href="#DejaVuSans-97"/>
      <use x="290.496094" xlink:href="#DejaVuSans-98"/>
      <use x="353.972656" xlink:href="#DejaVuSans-105"/>
      <use x="381.755859" xlink:href="#DejaVuSans-108"/>
      <use x="409.539062" xlink:href="#DejaVuSans-105"/>
      <use x="437.322266" xlink:href="#DejaVuSans-116"/>
      <use x="476.53125" xlink:href="#DejaVuSans-121"/>
     </g>
    </g>
   </g>
   <g id="matplotlib.axis_2">
    <g id="ytick_1">
     <g id="line2d_9">
      <path clip-path="url(#p86762040e8)" d="M 34.558125 254.078438 
L 410.398125 254.078438 
" style="fill:none;stroke:#808080;stroke-opacity:0.5;stroke-width:0.25;"/>
     </g>
     <g id="line2d_10"/>
     <g id="text_6">
      <!-- 0 -->
      <g transform="translate(25.968125 257.117813)scale(0.08 -0.08)">
       <use xlink:href="#DejaVuSans-48"/>
      </g>
     </g>
    </g>
    <g id="ytick_2">
     <g id="line2d_11">
      <path clip-path="url(#p86762040e8)" d="M 34.558125 206.299636 
L 410.398125 206.299636 
" style="fill:none;stroke:#808080;stroke-opacity:0.5;stroke-width:0.25;"/>
     </g>
     <g id="line2d_12"/>
     <g id="text_7">
      <!-- 20 -->
      <g transform="translate(20.878125 209.339011)scale(0.08 -0.08)">
       <use xlink:href="#DejaVuSans-50"/>
       <use x="63.623047" xlink:href="#DejaVuSans-48"/>
      </g>
     </g>
    </g>
    <g id="ytick_3">
     <g id="line2d_13">
      <path clip-path="url(#p86762040e8)" d="M 34.558125 158.520834 
L 410.398125 158.520834 
" style="fill:none;stroke:#808080;stroke-opacity:0.5;stroke-width:0.25;"/>
     </g>
     <g id="line2d_14"/>
     <g id="text_8">
      <!-- 40 -->
      <g transform="translate(20.878125 161.560209)scale(0.08 -0.08)">
       <use xlink:href="#DejaVuSans-52"/>
       <use x="63.623047" xlink:href="#DejaVuSans-48"/>
      </g>
     </g>
    </g>
    <g id="ytick_4">
     <g id="line2d_15">
      <path clip-path="url(#p86762040e8)" d="M 34.558125 110.742032 
L 410.398125 110.742032 
" style="fill:none;stroke:#808080;stroke-opacity:0.5;stroke-width:0.25;"/>
     </g>
     <g id="line2d_16"/>
     <g id="text_9">
      <!-- 60 -->
      <g transform="translate(20.878125 113.781407)scale(0.08 -0.08)">
       <use xlink:href="#DejaVuSans-54"/>
       <use x="63.623047" xlink:href="#DejaVuSans-48"/>
      </g>
     </g>
    </g>
    <g id="ytick_5">
     <g id="line2d_17">
      <path clip-path="url(#p86762040e8)" d="M 34.558125 62.96323 
L 410.398125 62.96323 
" style="fill:none;stroke:#808080;stroke-opacity:0.5;stroke-width:0.25;"/>
     </g>
     <g id="line2d_18"/>
     <g id="text_10">
      <!-- 80 -->
      <g transform="translate(20.878125 66.002605)scale(0.08 -0.08)">
       <use xlink:href="#DejaVuSans-56"/>
       <use x="63.623047" xlink:href="#DejaVuSans-48"/>
      </g>
     </g>
    </g>
    <g id="text_11">
     <!-- count -->
     <defs>
      <path d="M 48.78125 52.59375 
L 48.78125 44.1875 
Q 44.96875 46.296875 41.140625 47.34375 
Q 37.3125 48.390625 33.40625 48.390625 
Q 24.65625 48.390625 19.8125 42.84375 
Q 14.984375 37.3125 14.984375 27.296875 
Q 14.984375 17.28125 19.8125 11.734375 
Q 24.65625 6.203125 33.40625 6.203125 
Q 37.3125 6.203125 41.140625 7.25 
Q 44.96875 8.296875 48.78125 10.40625 
L 48.78125 2.09375 
Q 45.015625 0.34375 40.984375 -0.53125 
Q 36.96875 -1.421875 32.421875 -1.421875 
Q 20.0625 -1.421875 12.78125 6.34375 
Q 5.515625 14.109375 5.515625 27.296875 
Q 5.515625 40.671875 12.859375 48.328125 
Q 20.21875 56 33.015625 56 
Q 37.15625 56 41.109375 55.140625 
Q 45.0625 54.296875 48.78125 52.59375 
z
" id="DejaVuSans-99"/>
      <path d="M 8.5 21.578125 
L 8.5 54.6875 
L 17.484375 54.6875 
L 17.484375 21.921875 
Q 17.484375 14.15625 20.5 10.265625 
Q 23.53125 6.390625 29.59375 6.390625 
Q 36.859375 6.390625 41.078125 11.03125 
Q 45.3125 15.671875 45.3125 23.6875 
L 45.3125 54.6875 
L 54.296875 54.6875 
L 54.296875 0 
L 45.3125 0 
L 45.3125 8.40625 
Q 42.046875 3.421875 37.71875 1 
Q 33.40625 -1.421875 27.6875 -1.421875 
Q 18.265625 -1.421875 13.375 4.4375 
Q 8.5 10.296875 8.5 21.578125 
z
M 31.109375 56 
z
" id="DejaVuSans-117"/>
      <path d="M 54.890625 33.015625 
L 54.890625 0 
L 45.90625 0 
L 45.90625 32.71875 
Q 45.90625 40.484375 42.875 44.328125 
Q 39.84375 48.1875 33.796875 48.1875 
Q 26.515625 48.1875 22.3125 43.546875 
Q 18.109375 38.921875 18.109375 30.90625 
L 18.109375 0 
L 9.078125 0 
L 9.078125 54.6875 
L 18.109375 54.6875 
L 18.109375 46.1875 
Q 21.34375 51.125 25.703125 53.5625 
Q 30.078125 56 35.796875 56 
Q 45.21875 56 50.046875 50.171875 
Q 54.890625 44.34375 54.890625 33.015625 
z
" id="DejaVuSans-110"/>
     </defs>
     <g transform="translate(14.798438 151.544688)rotate(-90)scale(0.1 -0.1)">
      <use xlink:href="#DejaVuSans-99"/>
      <use x="54.980469" xlink:href="#DejaVuSans-111"/>
      <use x="116.162109" xlink:href="#DejaVuSans-117"/>
      <use x="179.541016" xlink:href="#DejaVuSans-110"/>
      <use x="242.919922" xlink:href="#DejaVuSans-116"/>
     </g>
    </g>
   </g>
   <g id="patch_3">
    <path clip-path="url(#p86762040e8)" d="M 51.641761 254.078438 
L 65.30867 254.078438 
L 65.30867 237.355857 
L 51.641761 237.355857 
z
" style="fill:#008fd5;"/>
   </g>
   <g id="patch_4">
    <path clip-path="url(#p86762040e8)" d="M 65.30867 254.078438 
L 78.97558 254.078438 
L 78.97558 218.244336 
L 65.30867 218.244336 
z
" style="fill:#008fd5;"/>
   </g>
   <g id="patch_5">
    <path clip-path="url(#p86762040e8)" d="M 78.97558 254.078438 
L 92.642489 254.078438 
L 92.642489 184.799175 
L 78.97558 184.799175 
z
" style="fill:#008fd5;"/>
   </g>
   <g id="patch_6">
    <path clip-path="url(#p86762040e8)" d="M 92.642489 254.078438 
L 106.309398 254.078438 
L 106.309398 182.410235 
L 92.642489 182.410235 
z
" style="fill:#008fd5;"/>
   </g>
   <g id="patch_7">
    <path clip-path="url(#p86762040e8)" d="M 106.309398 254.078438 
L 119.976307 254.078438 
L 119.976307 103.575212 
L 106.309398 103.575212 
z
" style="fill:#008fd5;"/>
   </g>
   <g id="patch_8">
    <path clip-path="url(#p86762040e8)" d="M 119.976307 254.078438 
L 133.643216 254.078438 
L 133.643216 137.020373 
L 119.976307 137.020373 
z
" style="fill:#008fd5;"/>
   </g>
   <g id="patch_9">
    <path clip-path="url(#p86762040e8)" d="M 133.643216 254.078438 
L 147.310125 254.078438 
L 147.310125 127.464613 
L 133.643216 127.464613 
z
" style="fill:#008fd5;"/>
   </g>
   <g id="patch_10">
    <path clip-path="url(#p86762040e8)" d="M 147.310125 254.078438 
L 160.977034 254.078438 
L 160.977034 105.964152 
L 147.310125 105.964152 
z
" style="fill:#008fd5;"/>
   </g>
   <g id="patch_11">
    <path clip-path="url(#p86762040e8)" d="M 160.977034 254.078438 
L 174.643943 254.078438 
L 174.643943 108.353092 
L 160.977034 108.353092 
z
" style="fill:#008fd5;"/>
   </g>
   <g id="patch_12">
    <path clip-path="url(#p86762040e8)" d="M 174.643943 254.078438 
L 188.310852 254.078438 
L 188.310852 117.908852 
L 174.643943 117.908852 
z
" style="fill:#008fd5;"/>
   </g>
   <g id="patch_13">
    <path clip-path="url(#p86762040e8)" d="M 188.310852 254.078438 
L 201.977761 254.078438 
L 201.977761 58.18535 
L 188.310852 58.18535 
z
" style="fill:#008fd5;"/>
   </g>
   <g id="patch_14">
    <path clip-path="url(#p86762040e8)" d="M 201.977761 254.078438 
L 215.64467 254.078438 
L 215.64467 105.964152 
L 201.977761 105.964152 
z
" style="fill:#008fd5;"/>
   </g>
   <g id="patch_15">
    <path clip-path="url(#p86762040e8)" d="M 215.64467 254.078438 
L 229.31158 254.078438 
L 229.31158 31.907009 
L 215.64467 31.907009 
z
" style="fill:#008fd5;"/>
   </g>
   <g id="patch_16">
    <path clip-path="url(#p86762040e8)" d="M 229.31158 254.078438 
L 242.978489 254.078438 
L 242.978489 89.241571 
L 229.31158 89.241571 
z
" style="fill:#008fd5;"/>
   </g>
   <g id="patch_17">
    <path clip-path="url(#p86762040e8)" d="M 242.978489 254.078438 
L 256.645398 254.078438 
L 256.645398 108.353092 
L 242.978489 108.353092 
z
" style="fill:#008fd5;"/>
   </g>
   <g id="patch_18">
    <path clip-path="url(#p86762040e8)" d="M 256.645398 254.078438 
L 270.312307 254.078438 
L 270.312307 108.353092 
L 256.645398 108.353092 
z
" style="fill:#008fd5;"/>
   </g>
   <g id="patch_19">
    <path clip-path="url(#p86762040e8)" d="M 270.312307 254.078438 
L 283.979216 254.078438 
L 283.979216 101.186272 
L 270.312307 101.186272 
z
" style="fill:#008fd5;"/>
   </g>
   <g id="patch_20">
    <path clip-path="url(#p86762040e8)" d="M 283.979216 254.078438 
L 297.646125 254.078438 
L 297.646125 94.019451 
L 283.979216 94.019451 
z
" style="fill:#008fd5;"/>
   </g>
   <g id="patch_21">
    <path clip-path="url(#p86762040e8)" d="M 297.646125 254.078438 
L 311.313034 254.078438 
L 311.313034 137.020373 
L 297.646125 137.020373 
z
" style="fill:#008fd5;"/>
   </g>
   <g id="patch_22">
    <path clip-path="url(#p86762040e8)" d="M 311.313034 254.078438 
L 324.979943 254.078438 
L 324.979943 103.575212 
L 311.313034 103.575212 
z
" style="fill:#008fd5;"/>
   </g>
   <g id="patch_23">
    <path clip-path="url(#p86762040e8)" d="M 324.979943 254.078438 
L 338.646852 254.078438 
L 338.646852 115.519912 
L 324.979943 115.519912 
z
" style="fill:#008fd5;"/>
   </g>
   <g id="patch_24">
    <path clip-path="url(#p86762040e8)" d="M 338.646852 254.078438 
L 352.313761 254.078438 
L 352.313761 182.410235 
L 338.646852 182.410235 
z
" style="fill:#008fd5;"/>
   </g>
   <g id="patch_25">
    <path clip-path="url(#p86762040e8)" d="M 352.313761 254.078438 
L 365.98067 254.078438 
L 365.98067 194.354935 
L 352.313761 194.354935 
z
" style="fill:#008fd5;"/>
   </g>
   <g id="patch_26">
    <path clip-path="url(#p86762040e8)" d="M 365.98067 254.078438 
L 379.64758 254.078438 
L 379.64758 218.244336 
L 365.98067 218.244336 
z
" style="fill:#008fd5;"/>
   </g>
   <g id="patch_27">
    <path clip-path="url(#p86762040e8)" d="M 379.64758 254.078438 
L 393.314489 254.078438 
L 393.314489 242.133737 
L 379.64758 242.133737 
z
" style="fill:#008fd5;"/>
   </g>
   <g id="patch_28">
    <path d="M 34.558125 254.078438 
L 34.558125 20.798438 
" style="fill:none;stroke:#f0f0f0;stroke-linecap:square;stroke-linejoin:miter;stroke-width:3;"/>
   </g>
   <g id="patch_29">
    <path d="M 410.398125 254.078438 
L 410.398125 20.798438 
" style="fill:none;stroke:#f0f0f0;stroke-linecap:square;stroke-linejoin:miter;stroke-width:3;"/>
   </g>
   <g id="patch_30">
    <path d="M 34.558125 254.078438 
L 410.398125 254.078438 
" style="fill:none;stroke:#f0f0f0;stroke-linecap:square;stroke-linejoin:miter;stroke-width:3;"/>
   </g>
   <g id="patch_31">
    <path d="M 34.558125 20.798438 
L 410.398125 20.798438 
" style="fill:none;stroke:#f0f0f0;stroke-linecap:square;stroke-linejoin:miter;stroke-width:3;"/>
   </g>
   <g id="text_12">
    <!-- Distribution of prediction probabilities -->
    <defs>
     <path d="M 19.671875 64.796875 
L 19.671875 8.109375 
L 31.59375 8.109375 
Q 46.6875 8.109375 53.6875 14.9375 
Q 60.6875 21.78125 60.6875 36.53125 
Q 60.6875 51.171875 53.6875 57.984375 
Q 46.6875 64.796875 31.59375 64.796875 
z
M 9.8125 72.90625 
L 30.078125 72.90625 
Q 51.265625 72.90625 61.171875 64.09375 
Q 71.09375 55.28125 71.09375 36.53125 
Q 71.09375 17.671875 61.125 8.828125 
Q 51.171875 0 30.078125 0 
L 9.8125 0 
z
" id="DejaVuSans-68"/>
     <path d="M 44.28125 53.078125 
L 44.28125 44.578125 
Q 40.484375 46.53125 36.375 47.5 
Q 32.28125 48.484375 27.875 48.484375 
Q 21.1875 48.484375 17.84375 46.4375 
Q 14.5 44.390625 14.5 40.28125 
Q 14.5 37.15625 16.890625 35.375 
Q 19.28125 33.59375 26.515625 31.984375 
L 29.59375 31.296875 
Q 39.15625 29.25 43.1875 25.515625 
Q 47.21875 21.78125 47.21875 15.09375 
Q 47.21875 7.46875 41.1875 3.015625 
Q 35.15625 -1.421875 24.609375 -1.421875 
Q 20.21875 -1.421875 15.453125 -0.5625 
Q 10.6875 0.296875 5.421875 2 
L 5.421875 11.28125 
Q 10.40625 8.6875 15.234375 7.390625 
Q 20.0625 6.109375 24.8125 6.109375 
Q 31.15625 6.109375 34.5625 8.28125 
Q 37.984375 10.453125 37.984375 14.40625 
Q 37.984375 18.0625 35.515625 20.015625 
Q 33.0625 21.96875 24.703125 23.78125 
L 21.578125 24.515625 
Q 13.234375 26.265625 9.515625 29.90625 
Q 5.8125 33.546875 5.8125 39.890625 
Q 5.8125 47.609375 11.28125 51.796875 
Q 16.75 56 26.8125 56 
Q 31.78125 56 36.171875 55.265625 
Q 40.578125 54.546875 44.28125 53.078125 
z
" id="DejaVuSans-115"/>
     <path id="DejaVuSans-32"/>
     <path d="M 37.109375 75.984375 
L 37.109375 68.5 
L 28.515625 68.5 
Q 23.6875 68.5 21.796875 66.546875 
Q 19.921875 64.59375 19.921875 59.515625 
L 19.921875 54.6875 
L 34.71875 54.6875 
L 34.71875 47.703125 
L 19.921875 47.703125 
L 19.921875 0 
L 10.890625 0 
L 10.890625 47.703125 
L 2.296875 47.703125 
L 2.296875 54.6875 
L 10.890625 54.6875 
L 10.890625 58.5 
Q 10.890625 67.625 15.140625 71.796875 
Q 19.390625 75.984375 28.609375 75.984375 
z
" id="DejaVuSans-102"/>
     <path d="M 56.203125 29.59375 
L 56.203125 25.203125 
L 14.890625 25.203125 
Q 15.484375 15.921875 20.484375 11.0625 
Q 25.484375 6.203125 34.421875 6.203125 
Q 39.59375 6.203125 44.453125 7.46875 
Q 49.3125 8.734375 54.109375 11.28125 
L 54.109375 2.78125 
Q 49.265625 0.734375 44.1875 -0.34375 
Q 39.109375 -1.421875 33.890625 -1.421875 
Q 20.796875 -1.421875 13.15625 6.1875 
Q 5.515625 13.8125 5.515625 26.8125 
Q 5.515625 40.234375 12.765625 48.109375 
Q 20.015625 56 32.328125 56 
Q 43.359375 56 49.78125 48.890625 
Q 56.203125 41.796875 56.203125 29.59375 
z
M 47.21875 32.234375 
Q 47.125 39.59375 43.09375 43.984375 
Q 39.0625 48.390625 32.421875 48.390625 
Q 24.90625 48.390625 20.390625 44.140625 
Q 15.875 39.890625 15.1875 32.171875 
z
" id="DejaVuSans-101"/>
     <path d="M 45.40625 46.390625 
L 45.40625 75.984375 
L 54.390625 75.984375 
L 54.390625 0 
L 45.40625 0 
L 45.40625 8.203125 
Q 42.578125 3.328125 38.25 0.953125 
Q 33.9375 -1.421875 27.875 -1.421875 
Q 17.96875 -1.421875 11.734375 6.484375 
Q 5.515625 14.40625 5.515625 27.296875 
Q 5.515625 40.1875 11.734375 48.09375 
Q 17.96875 56 27.875 56 
Q 33.9375 56 38.25 53.625 
Q 42.578125 51.265625 45.40625 46.390625 
z
M 14.796875 27.296875 
Q 14.796875 17.390625 18.875 11.75 
Q 22.953125 6.109375 30.078125 6.109375 
Q 37.203125 6.109375 41.296875 11.75 
Q 45.40625 17.390625 45.40625 27.296875 
Q 45.40625 37.203125 41.296875 42.84375 
Q 37.203125 48.484375 30.078125 48.484375 
Q 22.953125 48.484375 18.875 42.84375 
Q 14.796875 37.203125 14.796875 27.296875 
z
" id="DejaVuSans-100"/>
    </defs>
    <g transform="translate(127.630469 14.798438)scale(0.1 -0.1)">
     <use xlink:href="#DejaVuSans-68"/>
     <use x="77.001953" xlink:href="#DejaVuSans-105"/>
     <use x="104.785156" xlink:href="#DejaVuSans-115"/>
     <use x="156.884766" xlink:href="#DejaVuSans-116"/>
     <use x="196.09375" xlink:href="#DejaVuSans-114"/>
     <use x="237.207031" xlink:href="#DejaVuSans-105"/>
     <use x="264.990234" xlink:href="#DejaVuSans-98"/>
     <use x="328.466797" xlink:href="#DejaVuSans-117"/>
     <use x="391.845703" xlink:href="#DejaVuSans-116"/>
     <use x="431.054688" xlink:href="#DejaVuSans-105"/>
     <use x="458.837891" xlink:href="#DejaVuSans-111"/>
     <use x="520.019531" xlink:href="#DejaVuSans-110"/>
     <use x="583.398438" xlink:href="#DejaVuSans-32"/>
     <use x="615.185547" xlink:href="#DejaVuSans-111"/>
     <use x="676.367188" xlink:href="#DejaVuSans-102"/>
     <use x="711.572266" xlink:href="#DejaVuSans-32"/>
     <use x="743.359375" xlink:href="#DejaVuSans-112"/>
     <use x="806.835938" xlink:href="#DejaVuSans-114"/>
     <use x="847.917969" xlink:href="#DejaVuSans-101"/>
     <use x="909.441406" xlink:href="#DejaVuSans-100"/>
     <use x="972.917969" xlink:href="#DejaVuSans-105"/>
     <use x="1000.701172" xlink:href="#DejaVuSans-99"/>
     <use x="1055.681641" xlink:href="#DejaVuSans-116"/>
     <use x="1094.890625" xlink:href="#DejaVuSans-105"/>
     <use x="1122.673828" xlink:href="#DejaVuSans-111"/>
     <use x="1183.855469" xlink:href="#DejaVuSans-110"/>
     <use x="1247.234375" xlink:href="#DejaVuSans-32"/>
     <use x="1279.021484" xlink:href="#DejaVuSans-112"/>
     <use x="1342.498047" xlink:href="#DejaVuSans-114"/>
     <use x="1383.580078" xlink:href="#DejaVuSans-111"/>
     <use x="1444.761719" xlink:href="#DejaVuSans-98"/>
     <use x="1508.238281" xlink:href="#DejaVuSans-97"/>
     <use x="1569.517578" xlink:href="#DejaVuSans-98"/>
     <use x="1632.994141" xlink:href="#DejaVuSans-105"/>
     <use x="1660.777344" xlink:href="#DejaVuSans-108"/>
     <use x="1688.560547" xlink:href="#DejaVuSans-105"/>
     <use x="1716.34375" xlink:href="#DejaVuSans-116"/>
     <use x="1755.552734" xlink:href="#DejaVuSans-105"/>
     <use x="1783.335938" xlink:href="#DejaVuSans-101"/>
     <use x="1844.859375" xlink:href="#DejaVuSans-115"/>
    </g>
   </g>
  </g>
 </g>
 <defs>
  <clipPath id="p86762040e8">
   <rect height="233.28" width="375.84" x="34.558125" y="20.798438"/>
  </clipPath>
 </defs>
</svg>
