<?xml version="1.0" encoding="utf-8" standalone="no"?>
<!DOCTYPE svg PUBLIC "-//W3C//DTD SVG 1.1//EN"
  "http://www.w3.org/Graphics/SVG/1.1/DTD/svg11.dtd">
<!-- Created with matplotlib (https://matplotlib.org/) -->
<svg height="203.120625pt" version="1.1" viewBox="0 0 670.700625 203.120625" width="670.700625pt" xmlns="http://www.w3.org/2000/svg" xmlns:xlink="http://www.w3.org/1999/xlink">
 <defs>
  <style type="text/css">
*{stroke-linecap:butt;stroke-linejoin:round;}
  </style>
 </defs>
 <g id="figure_1">
  <g id="patch_1">
   <path d="M 0 203.120625 
L 670.700625 203.120625 
L 670.700625 0 
L 0 0 
z
" style="fill:#f0f0f0;"/>
  </g>
  <g id="axes_1">
   <g id="patch_2">
    <path d="M 37.100625 171 
L 162.280481 171 
L 162.280481 35.1 
L 37.100625 35.1 
z
" style="fill:#f0f0f0;"/>
   </g>
   <g id="matplotlib.axis_1">
    <g id="xtick_1">
     <g id="line2d_1">
      <path clip-path="url(#p502f5aab30)" d="M 65.42163 171 
L 65.42163 35.1 
" style="fill:none;stroke:#808080;stroke-opacity:0.5;stroke-width:0.25;"/>
     </g>
     <g id="line2d_2"/>
     <g id="text_1">
      <!-- −2 -->
      <defs>
       <path d="M 10.59375 35.5 
L 73.1875 35.5 
L 73.1875 27.203125 
L 10.59375 27.203125 
z
" id="DejaVuSans-8722"/>
       <path d="M 19.1875 8.296875 
L 53.609375 8.296875 
L 53.609375 0 
L 7.328125 0 
L 7.328125 8.296875 
Q 12.9375 14.109375 22.625 23.890625 
Q 32.328125 33.6875 34.8125 36.53125 
Q 39.546875 41.84375 41.421875 45.53125 
Q 43.3125 49.21875 43.3125 52.78125 
Q 43.3125 58.59375 39.234375 62.25 
Q 35.15625 65.921875 28.609375 65.921875 
Q 23.96875 65.921875 18.8125 64.3125 
Q 13.671875 62.703125 7.8125 59.421875 
L 7.8125 69.390625 
Q 13.765625 71.78125 18.9375 73 
Q 24.125 74.21875 28.421875 74.21875 
Q 39.75 74.21875 46.484375 68.546875 
Q 53.21875 62.890625 53.21875 53.421875 
Q 53.21875 48.921875 51.53125 44.890625 
Q 49.859375 40.875 45.40625 35.40625 
Q 44.1875 33.984375 37.640625 27.21875 
Q 31.109375 20.453125 19.1875 8.296875 
z
" id="DejaVuSans-50"/>
      </defs>
      <g transform="translate(59.524755 180.57875)scale(0.08 -0.08)">
       <use xlink:href="#DejaVuSans-8722"/>
       <use x="83.789062" xlink:href="#DejaVuSans-50"/>
      </g>
     </g>
    </g>
    <g id="xtick_2">
     <g id="line2d_3">
      <path clip-path="url(#p502f5aab30)" d="M 95.164462 171 
L 95.164462 35.1 
" style="fill:none;stroke:#808080;stroke-opacity:0.5;stroke-width:0.25;"/>
     </g>
     <g id="line2d_4"/>
     <g id="text_2">
      <!-- 0 -->
      <defs>
       <path d="M 31.78125 66.40625 
Q 24.171875 66.40625 20.328125 58.90625 
Q 16.5 51.421875 16.5 36.375 
Q 16.5 21.390625 20.328125 13.890625 
Q 24.171875 6.390625 31.78125 6.390625 
Q 39.453125 6.390625 43.28125 13.890625 
Q 47.125 21.390625 47.125 36.375 
Q 47.125 51.421875 43.28125 58.90625 
Q 39.453125 66.40625 31.78125 66.40625 
z
M 31.78125 74.21875 
Q 44.046875 74.21875 50.515625 64.515625 
Q 56.984375 54.828125 56.984375 36.375 
Q 56.984375 17.96875 50.515625 8.265625 
Q 44.046875 -1.421875 31.78125 -1.421875 
Q 19.53125 -1.421875 13.0625 8.265625 
Q 6.59375 17.96875 6.59375 36.375 
Q 6.59375 54.828125 13.0625 64.515625 
Q 19.53125 74.21875 31.78125 74.21875 
z
" id="DejaVuSans-48"/>
      </defs>
      <g transform="translate(92.619462 180.57875)scale(0.08 -0.08)">
       <use xlink:href="#DejaVuSans-48"/>
      </g>
     </g>
    </g>
    <g id="xtick_3">
     <g id="line2d_5">
      <path clip-path="url(#p502f5aab30)" d="M 124.907294 171 
L 124.907294 35.1 
" style="fill:none;stroke:#808080;stroke-opacity:0.5;stroke-width:0.25;"/>
     </g>
     <g id="line2d_6"/>
     <g id="text_3">
      <!-- 2 -->
      <g transform="translate(122.362294 180.57875)scale(0.08 -0.08)">
       <use xlink:href="#DejaVuSans-50"/>
      </g>
     </g>
    </g>
    <g id="text_4">
     <!-- Standardized Salaries -->
     <defs>
      <path d="M 53.515625 70.515625 
L 53.515625 60.890625 
Q 47.90625 63.578125 42.921875 64.890625 
Q 37.9375 66.21875 33.296875 66.21875 
Q 25.25 66.21875 20.875 63.09375 
Q 16.5 59.96875 16.5 54.203125 
Q 16.5 49.359375 19.40625 46.890625 
Q 22.3125 44.4375 30.421875 42.921875 
L 36.375 41.703125 
Q 47.40625 39.59375 52.65625 34.296875 
Q 57.90625 29 57.90625 20.125 
Q 57.90625 9.515625 50.796875 4.046875 
Q 43.703125 -1.421875 29.984375 -1.421875 
Q 24.8125 -1.421875 18.96875 -0.25 
Q 13.140625 0.921875 6.890625 3.21875 
L 6.890625 13.375 
Q 12.890625 10.015625 18.65625 8.296875 
Q 24.421875 6.59375 29.984375 6.59375 
Q 38.421875 6.59375 43.015625 9.90625 
Q 47.609375 13.234375 47.609375 19.390625 
Q 47.609375 24.75 44.3125 27.78125 
Q 41.015625 30.8125 33.5 32.328125 
L 27.484375 33.5 
Q 16.453125 35.6875 11.515625 40.375 
Q 6.59375 45.0625 6.59375 53.421875 
Q 6.59375 63.09375 13.40625 68.65625 
Q 20.21875 74.21875 32.171875 74.21875 
Q 37.3125 74.21875 42.625 73.28125 
Q 47.953125 72.359375 53.515625 70.515625 
z
" id="DejaVuSans-83"/>
      <path d="M 18.3125 70.21875 
L 18.3125 54.6875 
L 36.8125 54.6875 
L 36.8125 47.703125 
L 18.3125 47.703125 
L 18.3125 18.015625 
Q 18.3125 11.328125 20.140625 9.421875 
Q 21.96875 7.515625 27.59375 7.515625 
L 36.8125 7.515625 
L 36.8125 0 
L 27.59375 0 
Q 17.1875 0 13.234375 3.875 
Q 9.28125 7.765625 9.28125 18.015625 
L 9.28125 47.703125 
L 2.6875 47.703125 
L 2.6875 54.6875 
L 9.28125 54.6875 
L 9.28125 70.21875 
z
" id="DejaVuSans-116"/>
      <path d="M 34.28125 27.484375 
Q 23.390625 27.484375 19.1875 25 
Q 14.984375 22.515625 14.984375 16.5 
Q 14.984375 11.71875 18.140625 8.90625 
Q 21.296875 6.109375 26.703125 6.109375 
Q 34.1875 6.109375 38.703125 11.40625 
Q 43.21875 16.703125 43.21875 25.484375 
L 43.21875 27.484375 
z
M 52.203125 31.203125 
L 52.203125 0 
L 43.21875 0 
L 43.21875 8.296875 
Q 40.140625 3.328125 35.546875 0.953125 
Q 30.953125 -1.421875 24.3125 -1.421875 
Q 15.921875 -1.421875 10.953125 3.296875 
Q 6 8.015625 6 15.921875 
Q 6 25.140625 12.171875 29.828125 
Q 18.359375 34.515625 30.609375 34.515625 
L 43.21875 34.515625 
L 43.21875 35.40625 
Q 43.21875 41.609375 39.140625 45 
Q 35.0625 48.390625 27.6875 48.390625 
Q 23 48.390625 18.546875 47.265625 
Q 14.109375 46.140625 10.015625 43.890625 
L 10.015625 52.203125 
Q 14.9375 54.109375 19.578125 55.046875 
Q 24.21875 56 28.609375 56 
Q 40.484375 56 46.34375 49.84375 
Q 52.203125 43.703125 52.203125 31.203125 
z
" id="DejaVuSans-97"/>
      <path d="M 54.890625 33.015625 
L 54.890625 0 
L 45.90625 0 
L 45.90625 32.71875 
Q 45.90625 40.484375 42.875 44.328125 
Q 39.84375 48.1875 33.796875 48.1875 
Q 26.515625 48.1875 22.3125 43.546875 
Q 18.109375 38.921875 18.109375 30.90625 
L 18.109375 0 
L 9.078125 0 
L 9.078125 54.6875 
L 18.109375 54.6875 
L 18.109375 46.1875 
Q 21.34375 51.125 25.703125 53.5625 
Q 30.078125 56 35.796875 56 
Q 45.21875 56 50.046875 50.171875 
Q 54.890625 44.34375 54.890625 33.015625 
z
" id="DejaVuSans-110"/>
      <path d="M 45.40625 46.390625 
L 45.40625 75.984375 
L 54.390625 75.984375 
L 54.390625 0 
L 45.40625 0 
L 45.40625 8.203125 
Q 42.578125 3.328125 38.25 0.953125 
Q 33.9375 -1.421875 27.875 -1.421875 
Q 17.96875 -1.421875 11.734375 6.484375 
Q 5.515625 14.40625 5.515625 27.296875 
Q 5.515625 40.1875 11.734375 48.09375 
Q 17.96875 56 27.875 56 
Q 33.9375 56 38.25 53.625 
Q 42.578125 51.265625 45.40625 46.390625 
z
M 14.796875 27.296875 
Q 14.796875 17.390625 18.875 11.75 
Q 22.953125 6.109375 30.078125 6.109375 
Q 37.203125 6.109375 41.296875 11.75 
Q 45.40625 17.390625 45.40625 27.296875 
Q 45.40625 37.203125 41.296875 42.84375 
Q 37.203125 48.484375 30.078125 48.484375 
Q 22.953125 48.484375 18.875 42.84375 
Q 14.796875 37.203125 14.796875 27.296875 
z
" id="DejaVuSans-100"/>
      <path d="M 41.109375 46.296875 
Q 39.59375 47.171875 37.8125 47.578125 
Q 36.03125 48 33.890625 48 
Q 26.265625 48 22.1875 43.046875 
Q 18.109375 38.09375 18.109375 28.8125 
L 18.109375 0 
L 9.078125 0 
L 9.078125 54.6875 
L 18.109375 54.6875 
L 18.109375 46.1875 
Q 20.953125 51.171875 25.484375 53.578125 
Q 30.03125 56 36.53125 56 
Q 37.453125 56 38.578125 55.875 
Q 39.703125 55.765625 41.0625 55.515625 
z
" id="DejaVuSans-114"/>
      <path d="M 9.421875 54.6875 
L 18.40625 54.6875 
L 18.40625 0 
L 9.421875 0 
z
M 9.421875 75.984375 
L 18.40625 75.984375 
L 18.40625 64.59375 
L 9.421875 64.59375 
z
" id="DejaVuSans-105"/>
      <path d="M 5.515625 54.6875 
L 48.1875 54.6875 
L 48.1875 46.484375 
L 14.40625 7.171875 
L 48.1875 7.171875 
L 48.1875 0 
L 4.296875 0 
L 4.296875 8.203125 
L 38.09375 47.515625 
L 5.515625 47.515625 
z
" id="DejaVuSans-122"/>
      <path d="M 56.203125 29.59375 
L 56.203125 25.203125 
L 14.890625 25.203125 
Q 15.484375 15.921875 20.484375 11.0625 
Q 25.484375 6.203125 34.421875 6.203125 
Q 39.59375 6.203125 44.453125 7.46875 
Q 49.3125 8.734375 54.109375 11.28125 
L 54.109375 2.78125 
Q 49.265625 0.734375 44.1875 -0.34375 
Q 39.109375 -1.421875 33.890625 -1.421875 
Q 20.796875 -1.421875 13.15625 6.1875 
Q 5.515625 13.8125 5.515625 26.8125 
Q 5.515625 40.234375 12.765625 48.109375 
Q 20.015625 56 32.328125 56 
Q 43.359375 56 49.78125 48.890625 
Q 56.203125 41.796875 56.203125 29.59375 
z
M 47.21875 32.234375 
Q 47.125 39.59375 43.09375 43.984375 
Q 39.0625 48.390625 32.421875 48.390625 
Q 24.90625 48.390625 20.390625 44.140625 
Q 15.875 39.890625 15.1875 32.171875 
z
" id="DejaVuSans-101"/>
      <path id="DejaVuSans-32"/>
      <path d="M 9.421875 75.984375 
L 18.40625 75.984375 
L 18.40625 0 
L 9.421875 0 
z
" id="DejaVuSans-108"/>
      <path d="M 44.28125 53.078125 
L 44.28125 44.578125 
Q 40.484375 46.53125 36.375 47.5 
Q 32.28125 48.484375 27.875 48.484375 
Q 21.1875 48.484375 17.84375 46.4375 
Q 14.5 44.390625 14.5 40.28125 
Q 14.5 37.15625 16.890625 35.375 
Q 19.28125 33.59375 26.515625 31.984375 
L 29.59375 31.296875 
Q 39.15625 29.25 43.1875 25.515625 
Q 47.21875 21.78125 47.21875 15.09375 
Q 47.21875 7.46875 41.1875 3.015625 
Q 35.15625 -1.421875 24.609375 -1.421875 
Q 20.21875 -1.421875 15.453125 -0.5625 
Q 10.6875 0.296875 5.421875 2 
L 5.421875 11.28125 
Q 10.40625 8.6875 15.234375 7.390625 
Q 20.0625 6.109375 24.8125 6.109375 
Q 31.15625 6.109375 34.5625 8.28125 
Q 37.984375 10.453125 37.984375 14.40625 
Q 37.984375 18.0625 35.515625 20.015625 
Q 33.0625 21.96875 24.703125 23.78125 
L 21.578125 24.515625 
Q 13.234375 26.265625 9.515625 29.90625 
Q 5.8125 33.546875 5.8125 39.890625 
Q 5.8125 47.609375 11.28125 51.796875 
Q 16.75 56 26.8125 56 
Q 31.78125 56 36.171875 55.265625 
Q 40.578125 54.546875 44.28125 53.078125 
z
" id="DejaVuSans-115"/>
     </defs>
     <g transform="translate(45.185866 193.840937)scale(0.1 -0.1)">
      <use xlink:href="#DejaVuSans-83"/>
      <use x="63.476562" xlink:href="#DejaVuSans-116"/>
      <use x="102.685547" xlink:href="#DejaVuSans-97"/>
      <use x="163.964844" xlink:href="#DejaVuSans-110"/>
      <use x="227.34375" xlink:href="#DejaVuSans-100"/>
      <use x="290.820312" xlink:href="#DejaVuSans-97"/>
      <use x="352.099609" xlink:href="#DejaVuSans-114"/>
      <use x="393.197266" xlink:href="#DejaVuSans-100"/>
      <use x="456.673828" xlink:href="#DejaVuSans-105"/>
      <use x="484.457031" xlink:href="#DejaVuSans-122"/>
      <use x="536.947266" xlink:href="#DejaVuSans-101"/>
      <use x="598.470703" xlink:href="#DejaVuSans-100"/>
      <use x="661.947266" xlink:href="#DejaVuSans-32"/>
      <use x="693.734375" xlink:href="#DejaVuSans-83"/>
      <use x="757.210938" xlink:href="#DejaVuSans-97"/>
      <use x="818.490234" xlink:href="#DejaVuSans-108"/>
      <use x="846.273438" xlink:href="#DejaVuSans-97"/>
      <use x="907.552734" xlink:href="#DejaVuSans-114"/>
      <use x="948.666016" xlink:href="#DejaVuSans-105"/>
      <use x="976.449219" xlink:href="#DejaVuSans-101"/>
      <use x="1037.972656" xlink:href="#DejaVuSans-115"/>
     </g>
    </g>
   </g>
   <g id="matplotlib.axis_2">
    <g id="ytick_1">
     <g id="line2d_7">
      <path clip-path="url(#p502f5aab30)" d="M 37.100625 149.379545 
L 162.280481 149.379545 
" style="fill:none;stroke:#808080;stroke-opacity:0.5;stroke-width:0.25;"/>
     </g>
     <g id="line2d_8"/>
     <g id="text_5">
      <!-- 0.2 -->
      <defs>
       <path d="M 10.6875 12.40625 
L 21 12.40625 
L 21 0 
L 10.6875 0 
z
" id="DejaVuSans-46"/>
      </defs>
      <g transform="translate(20.878125 152.41892)scale(0.08 -0.08)">
       <use xlink:href="#DejaVuSans-48"/>
       <use x="63.623047" xlink:href="#DejaVuSans-46"/>
       <use x="95.410156" xlink:href="#DejaVuSans-50"/>
      </g>
     </g>
    </g>
    <g id="ytick_2">
     <g id="line2d_9">
      <path clip-path="url(#p502f5aab30)" d="M 37.100625 118.493182 
L 162.280481 118.493182 
" style="fill:none;stroke:#808080;stroke-opacity:0.5;stroke-width:0.25;"/>
     </g>
     <g id="line2d_10"/>
     <g id="text_6">
      <!-- 0.4 -->
      <defs>
       <path d="M 37.796875 64.3125 
L 12.890625 25.390625 
L 37.796875 25.390625 
z
M 35.203125 72.90625 
L 47.609375 72.90625 
L 47.609375 25.390625 
L 58.015625 25.390625 
L 58.015625 17.1875 
L 47.609375 17.1875 
L 47.609375 0 
L 37.796875 0 
L 37.796875 17.1875 
L 4.890625 17.1875 
L 4.890625 26.703125 
z
" id="DejaVuSans-52"/>
      </defs>
      <g transform="translate(20.878125 121.532557)scale(0.08 -0.08)">
       <use xlink:href="#DejaVuSans-48"/>
       <use x="63.623047" xlink:href="#DejaVuSans-46"/>
       <use x="95.410156" xlink:href="#DejaVuSans-52"/>
      </g>
     </g>
    </g>
    <g id="ytick_3">
     <g id="line2d_11">
      <path clip-path="url(#p502f5aab30)" d="M 37.100625 87.606818 
L 162.280481 87.606818 
" style="fill:none;stroke:#808080;stroke-opacity:0.5;stroke-width:0.25;"/>
     </g>
     <g id="line2d_12"/>
     <g id="text_7">
      <!-- 0.6 -->
      <defs>
       <path d="M 33.015625 40.375 
Q 26.375 40.375 22.484375 35.828125 
Q 18.609375 31.296875 18.609375 23.390625 
Q 18.609375 15.53125 22.484375 10.953125 
Q 26.375 6.390625 33.015625 6.390625 
Q 39.65625 6.390625 43.53125 10.953125 
Q 47.40625 15.53125 47.40625 23.390625 
Q 47.40625 31.296875 43.53125 35.828125 
Q 39.65625 40.375 33.015625 40.375 
z
M 52.59375 71.296875 
L 52.59375 62.3125 
Q 48.875 64.0625 45.09375 64.984375 
Q 41.3125 65.921875 37.59375 65.921875 
Q 27.828125 65.921875 22.671875 59.328125 
Q 17.53125 52.734375 16.796875 39.40625 
Q 19.671875 43.65625 24.015625 45.921875 
Q 28.375 48.1875 33.59375 48.1875 
Q 44.578125 48.1875 50.953125 41.515625 
Q 57.328125 34.859375 57.328125 23.390625 
Q 57.328125 12.15625 50.6875 5.359375 
Q 44.046875 -1.421875 33.015625 -1.421875 
Q 20.359375 -1.421875 13.671875 8.265625 
Q 6.984375 17.96875 6.984375 36.375 
Q 6.984375 53.65625 15.1875 63.9375 
Q 23.390625 74.21875 37.203125 74.21875 
Q 40.921875 74.21875 44.703125 73.484375 
Q 48.484375 72.75 52.59375 71.296875 
z
" id="DejaVuSans-54"/>
      </defs>
      <g transform="translate(20.878125 90.646193)scale(0.08 -0.08)">
       <use xlink:href="#DejaVuSans-48"/>
       <use x="63.623047" xlink:href="#DejaVuSans-46"/>
       <use x="95.410156" xlink:href="#DejaVuSans-54"/>
      </g>
     </g>
    </g>
    <g id="ytick_4">
     <g id="line2d_13">
      <path clip-path="url(#p502f5aab30)" d="M 37.100625 56.720455 
L 162.280481 56.720455 
" style="fill:none;stroke:#808080;stroke-opacity:0.5;stroke-width:0.25;"/>
     </g>
     <g id="line2d_14"/>
     <g id="text_8">
      <!-- 0.8 -->
      <defs>
       <path d="M 31.78125 34.625 
Q 24.75 34.625 20.71875 30.859375 
Q 16.703125 27.09375 16.703125 20.515625 
Q 16.703125 13.921875 20.71875 10.15625 
Q 24.75 6.390625 31.78125 6.390625 
Q 38.8125 6.390625 42.859375 10.171875 
Q 46.921875 13.96875 46.921875 20.515625 
Q 46.921875 27.09375 42.890625 30.859375 
Q 38.875 34.625 31.78125 34.625 
z
M 21.921875 38.8125 
Q 15.578125 40.375 12.03125 44.71875 
Q 8.5 49.078125 8.5 55.328125 
Q 8.5 64.0625 14.71875 69.140625 
Q 20.953125 74.21875 31.78125 74.21875 
Q 42.671875 74.21875 48.875 69.140625 
Q 55.078125 64.0625 55.078125 55.328125 
Q 55.078125 49.078125 51.53125 44.71875 
Q 48 40.375 41.703125 38.8125 
Q 48.828125 37.15625 52.796875 32.3125 
Q 56.78125 27.484375 56.78125 20.515625 
Q 56.78125 9.90625 50.3125 4.234375 
Q 43.84375 -1.421875 31.78125 -1.421875 
Q 19.734375 -1.421875 13.25 4.234375 
Q 6.78125 9.90625 6.78125 20.515625 
Q 6.78125 27.484375 10.78125 32.3125 
Q 14.796875 37.15625 21.921875 38.8125 
z
M 18.3125 54.390625 
Q 18.3125 48.734375 21.84375 45.5625 
Q 25.390625 42.390625 31.78125 42.390625 
Q 38.140625 42.390625 41.71875 45.5625 
Q 45.3125 48.734375 45.3125 54.390625 
Q 45.3125 60.0625 41.71875 63.234375 
Q 38.140625 66.40625 31.78125 66.40625 
Q 25.390625 66.40625 21.84375 63.234375 
Q 18.3125 60.0625 18.3125 54.390625 
z
" id="DejaVuSans-56"/>
      </defs>
      <g transform="translate(20.878125 59.75983)scale(0.08 -0.08)">
       <use xlink:href="#DejaVuSans-48"/>
       <use x="63.623047" xlink:href="#DejaVuSans-46"/>
       <use x="95.410156" xlink:href="#DejaVuSans-56"/>
      </g>
     </g>
    </g>
    <g id="text_9">
     <!-- Win % -->
     <defs>
      <path d="M 3.328125 72.90625 
L 13.28125 72.90625 
L 28.609375 11.28125 
L 43.890625 72.90625 
L 54.984375 72.90625 
L 70.3125 11.28125 
L 85.59375 72.90625 
L 95.609375 72.90625 
L 77.296875 0 
L 64.890625 0 
L 49.515625 63.28125 
L 33.984375 0 
L 21.578125 0 
z
" id="DejaVuSans-87"/>
      <path d="M 72.703125 32.078125 
Q 68.453125 32.078125 66.03125 28.46875 
Q 63.625 24.859375 63.625 18.40625 
Q 63.625 12.0625 66.03125 8.421875 
Q 68.453125 4.78125 72.703125 4.78125 
Q 76.859375 4.78125 79.265625 8.421875 
Q 81.6875 12.0625 81.6875 18.40625 
Q 81.6875 24.8125 79.265625 28.4375 
Q 76.859375 32.078125 72.703125 32.078125 
z
M 72.703125 38.28125 
Q 80.421875 38.28125 84.953125 32.90625 
Q 89.5 27.546875 89.5 18.40625 
Q 89.5 9.28125 84.9375 3.921875 
Q 80.375 -1.421875 72.703125 -1.421875 
Q 64.890625 -1.421875 60.34375 3.921875 
Q 55.8125 9.28125 55.8125 18.40625 
Q 55.8125 27.59375 60.375 32.9375 
Q 64.9375 38.28125 72.703125 38.28125 
z
M 22.3125 68.015625 
Q 18.109375 68.015625 15.6875 64.375 
Q 13.28125 60.75 13.28125 54.390625 
Q 13.28125 47.953125 15.671875 44.328125 
Q 18.0625 40.71875 22.3125 40.71875 
Q 26.5625 40.71875 28.96875 44.328125 
Q 31.390625 47.953125 31.390625 54.390625 
Q 31.390625 60.6875 28.953125 64.34375 
Q 26.515625 68.015625 22.3125 68.015625 
z
M 66.40625 74.21875 
L 74.21875 74.21875 
L 28.609375 -1.421875 
L 20.796875 -1.421875 
z
M 22.3125 74.21875 
Q 30.03125 74.21875 34.609375 68.875 
Q 39.203125 63.53125 39.203125 54.390625 
Q 39.203125 45.171875 34.640625 39.84375 
Q 30.078125 34.515625 22.3125 34.515625 
Q 14.546875 34.515625 10.03125 39.859375 
Q 5.515625 45.21875 5.515625 54.390625 
Q 5.515625 63.484375 10.046875 68.84375 
Q 14.59375 74.21875 22.3125 74.21875 
z
" id="DejaVuSans-37"/>
     </defs>
     <g transform="translate(14.798438 118.889844)rotate(-90)scale(0.1 -0.1)">
      <use xlink:href="#DejaVuSans-87"/>
      <use x="98.845703" xlink:href="#DejaVuSans-105"/>
      <use x="126.628906" xlink:href="#DejaVuSans-110"/>
      <use x="190.007812" xlink:href="#DejaVuSans-32"/>
      <use x="221.794922" xlink:href="#DejaVuSans-37"/>
     </g>
    </g>
   </g>
   <g id="PathCollection_1">
    <defs>
     <path d="M 0 1.581139 
C 0.419323 1.581139 0.821528 1.41454 1.118034 1.118034 
C 1.41454 0.821528 1.581139 0.419323 1.581139 0 
C 1.581139 -0.419323 1.41454 -0.821528 1.118034 -1.118034 
C 0.821528 -1.41454 0.419323 -1.581139 0 -1.581139 
C -0.419323 -1.581139 -0.821528 -1.41454 -1.118034 -1.118034 
C -1.41454 -0.821528 -1.581139 -0.419323 -1.581139 0 
C -1.581139 0.419323 -1.41454 0.821528 -1.118034 1.118034 
C -0.821528 1.41454 -0.419323 1.581139 0 1.581139 
z
" id="m04d4e8b6bf" style="stroke:#007a33;stroke-opacity:0.5;stroke-width:0.5;"/>
    </defs>
    <g clip-path="url(#p502f5aab30)">
     <use style="fill:#007a33;fill-opacity:0.5;stroke:#007a33;stroke-opacity:0.5;stroke-width:0.5;" x="96.445804" xlink:href="#m04d4e8b6bf" y="112.315909"/>
     <use style="fill:#007a33;fill-opacity:0.5;stroke:#007a33;stroke-opacity:0.5;stroke-width:0.5;" x="90.690806" xlink:href="#m04d4e8b6bf" y="87.606818"/>
     <use style="fill:#007a33;fill-opacity:0.5;stroke:#007a33;stroke-opacity:0.5;stroke-width:0.5;" x="92.468895" xlink:href="#m04d4e8b6bf" y="96.872727"/>
     <use style="fill:#007a33;fill-opacity:0.5;stroke:#007a33;stroke-opacity:0.5;stroke-width:0.5;" x="99.179901" xlink:href="#m04d4e8b6bf" y="112.315909"/>
     <use style="fill:#007a33;fill-opacity:0.5;stroke:#007a33;stroke-opacity:0.5;stroke-width:0.5;" x="100.429267" xlink:href="#m04d4e8b6bf" y="95.328409"/>
     <use style="fill:#007a33;fill-opacity:0.5;stroke:#007a33;stroke-opacity:0.5;stroke-width:0.5;" x="89.792132" xlink:href="#m04d4e8b6bf" y="118.493182"/>
     <use style="fill:#007a33;fill-opacity:0.5;stroke:#007a33;stroke-opacity:0.5;stroke-width:0.5;" x="93.274009" xlink:href="#m04d4e8b6bf" y="135.480682"/>
     <use style="fill:#007a33;fill-opacity:0.5;stroke:#007a33;stroke-opacity:0.5;stroke-width:0.5;" x="102.960959" xlink:href="#m04d4e8b6bf" y="56.720455"/>
     <use style="fill:#007a33;fill-opacity:0.5;stroke:#007a33;stroke-opacity:0.5;stroke-width:0.5;" x="106.964519" xlink:href="#m04d4e8b6bf" y="62.897727"/>
     <use style="fill:#007a33;fill-opacity:0.5;stroke:#007a33;stroke-opacity:0.5;stroke-width:0.5;" x="115.620172" xlink:href="#m04d4e8b6bf" y="86.0625"/>
     <use style="fill:#007a33;fill-opacity:0.5;stroke:#007a33;stroke-opacity:0.5;stroke-width:0.5;" x="115.134624" xlink:href="#m04d4e8b6bf" y="75.252273"/>
     <use style="fill:#007a33;fill-opacity:0.5;stroke:#007a33;stroke-opacity:0.5;stroke-width:0.5;" x="112.872153" xlink:href="#m04d4e8b6bf" y="89.151136"/>
     <use style="fill:#007a33;fill-opacity:0.5;stroke:#007a33;stroke-opacity:0.5;stroke-width:0.5;" x="107.037437" xlink:href="#m04d4e8b6bf" y="101.505682"/>
     <use style="fill:#007a33;fill-opacity:0.5;stroke:#007a33;stroke-opacity:0.5;stroke-width:0.5;" x="99.667488" xlink:href="#m04d4e8b6bf" y="133.936364"/>
     <use style="fill:#007a33;fill-opacity:0.5;stroke:#007a33;stroke-opacity:0.5;stroke-width:0.5;" x="81.291342" xlink:href="#m04d4e8b6bf" y="109.227273"/>
    </g>
   </g>
   <g id="LineCollection_1">
    <path clip-path="url(#p502f5aab30)" d="M 50.550214 103.05 
L 139.778709 103.05 
" style="fill:none;stroke:#000000;stroke-opacity:0.5;stroke-width:2;"/>
   </g>
   <g id="LineCollection_2">
    <path clip-path="url(#p502f5aab30)" d="M 95.164462 164.822727 
L 95.164462 41.277273 
" style="fill:none;stroke:#000000;stroke-opacity:0.5;stroke-width:2;"/>
   </g>
   <g id="line2d_15">
    <path clip-path="url(#p502f5aab30)" d="M 96.445804 102.641421 
L 90.690806 109.334243 
L 92.468895 107.2664 
L 99.179901 99.461781 
L 100.429267 98.008821 
L 89.792132 110.379363 
L 93.274009 106.330086 
L 102.960959 95.064569 
L 106.964519 90.408596 
L 115.620172 80.342435 
L 115.134624 80.907107 
L 112.872153 83.538266 
L 107.037437 90.323796 
L 99.667488 98.894738 
L 81.291342 120.265425 
" style="fill:none;stroke:#007a33;stroke-opacity:0.8;stroke-width:2;"/>
   </g>
   <g id="line2d_16">
    <path clip-path="url(#p502f5aab30)" d="M 84.9118 107.67487 
L 155.031016 76.841948 
L 42.790618 126.196456 
L 98.237255 101.815382 
" style="fill:none;stroke:#c4ced4;stroke-opacity:0.5;stroke-width:2;"/>
   </g>
   <g id="text_10">
    <!-- Celtics -->
    <defs>
     <path d="M 64.40625 67.28125 
L 64.40625 56.890625 
Q 59.421875 61.53125 53.78125 63.8125 
Q 48.140625 66.109375 41.796875 66.109375 
Q 29.296875 66.109375 22.65625 58.46875 
Q 16.015625 50.828125 16.015625 36.375 
Q 16.015625 21.96875 22.65625 14.328125 
Q 29.296875 6.6875 41.796875 6.6875 
Q 48.140625 6.6875 53.78125 8.984375 
Q 59.421875 11.28125 64.40625 15.921875 
L 64.40625 5.609375 
Q 59.234375 2.09375 53.4375 0.328125 
Q 47.65625 -1.421875 41.21875 -1.421875 
Q 24.65625 -1.421875 15.125 8.703125 
Q 5.609375 18.84375 5.609375 36.375 
Q 5.609375 53.953125 15.125 64.078125 
Q 24.65625 74.21875 41.21875 74.21875 
Q 47.75 74.21875 53.53125 72.484375 
Q 59.328125 70.75 64.40625 67.28125 
z
" id="DejaVuSans-67"/>
     <path d="M 48.78125 52.59375 
L 48.78125 44.1875 
Q 44.96875 46.296875 41.140625 47.34375 
Q 37.3125 48.390625 33.40625 48.390625 
Q 24.65625 48.390625 19.8125 42.84375 
Q 14.984375 37.3125 14.984375 27.296875 
Q 14.984375 17.28125 19.8125 11.734375 
Q 24.65625 6.203125 33.40625 6.203125 
Q 37.3125 6.203125 41.140625 7.25 
Q 44.96875 8.296875 48.78125 10.40625 
L 48.78125 2.09375 
Q 45.015625 0.34375 40.984375 -0.53125 
Q 36.96875 -1.421875 32.421875 -1.421875 
Q 20.0625 -1.421875 12.78125 6.34375 
Q 5.515625 14.109375 5.515625 27.296875 
Q 5.515625 40.671875 12.859375 48.328125 
Q 20.21875 56 33.015625 56 
Q 37.15625 56 41.109375 55.140625 
Q 45.0625 54.296875 48.78125 52.59375 
z
" id="DejaVuSans-99"/>
    </defs>
    <g transform="translate(83.030397 29.1)scale(0.1 -0.1)">
     <use xlink:href="#DejaVuSans-67"/>
     <use x="69.824219" xlink:href="#DejaVuSans-101"/>
     <use x="131.347656" xlink:href="#DejaVuSans-108"/>
     <use x="159.130859" xlink:href="#DejaVuSans-116"/>
     <use x="198.339844" xlink:href="#DejaVuSans-105"/>
     <use x="226.123047" xlink:href="#DejaVuSans-99"/>
     <use x="281.103516" xlink:href="#DejaVuSans-115"/>
    </g>
   </g>
  </g>
  <g id="axes_2">
   <g id="patch_3">
    <path d="M 162.405661 171 
L 287.585517 171 
L 287.585517 35.1 
L 162.405661 35.1 
z
" style="fill:#f0f0f0;"/>
   </g>
   <g id="matplotlib.axis_3">
    <g id="xtick_4">
     <g id="line2d_17">
      <path clip-path="url(#p264989b2da)" d="M 190.726666 171 
L 190.726666 35.1 
" style="fill:none;stroke:#808080;stroke-opacity:0.5;stroke-width:0.25;"/>
     </g>
     <g id="line2d_18"/>
     <g id="text_11">
      <!-- −2 -->
      <g transform="translate(184.829791 180.57875)scale(0.08 -0.08)">
       <use xlink:href="#DejaVuSans-8722"/>
       <use x="83.789062" xlink:href="#DejaVuSans-50"/>
      </g>
     </g>
    </g>
    <g id="xtick_5">
     <g id="line2d_19">
      <path clip-path="url(#p264989b2da)" d="M 220.469498 171 
L 220.469498 35.1 
" style="fill:none;stroke:#808080;stroke-opacity:0.5;stroke-width:0.25;"/>
     </g>
     <g id="line2d_20"/>
     <g id="text_12">
      <!-- 0 -->
      <g transform="translate(217.924498 180.57875)scale(0.08 -0.08)">
       <use xlink:href="#DejaVuSans-48"/>
      </g>
     </g>
    </g>
    <g id="xtick_6">
     <g id="line2d_21">
      <path clip-path="url(#p264989b2da)" d="M 250.212329 171 
L 250.212329 35.1 
" style="fill:none;stroke:#808080;stroke-opacity:0.5;stroke-width:0.25;"/>
     </g>
     <g id="line2d_22"/>
     <g id="text_13">
      <!-- 2 -->
      <g transform="translate(247.667329 180.57875)scale(0.08 -0.08)">
       <use xlink:href="#DejaVuSans-50"/>
      </g>
     </g>
    </g>
   </g>
   <g id="matplotlib.axis_4">
    <g id="ytick_5">
     <g id="line2d_23">
      <path clip-path="url(#p264989b2da)" d="M 162.405661 149.379545 
L 287.585517 149.379545 
" style="fill:none;stroke:#808080;stroke-opacity:0.5;stroke-width:0.25;"/>
     </g>
     <g id="line2d_24"/>
    </g>
    <g id="ytick_6">
     <g id="line2d_25">
      <path clip-path="url(#p264989b2da)" d="M 162.405661 118.493182 
L 287.585517 118.493182 
" style="fill:none;stroke:#808080;stroke-opacity:0.5;stroke-width:0.25;"/>
     </g>
     <g id="line2d_26"/>
    </g>
    <g id="ytick_7">
     <g id="line2d_27">
      <path clip-path="url(#p264989b2da)" d="M 162.405661 87.606818 
L 287.585517 87.606818 
" style="fill:none;stroke:#808080;stroke-opacity:0.5;stroke-width:0.25;"/>
     </g>
     <g id="line2d_28"/>
    </g>
    <g id="ytick_8">
     <g id="line2d_29">
      <path clip-path="url(#p264989b2da)" d="M 162.405661 56.720455 
L 287.585517 56.720455 
" style="fill:none;stroke:#808080;stroke-opacity:0.5;stroke-width:0.25;"/>
     </g>
     <g id="line2d_30"/>
    </g>
   </g>
   <g id="PathCollection_2">
    <defs>
     <path d="M 0 1.581139 
C 0.419323 1.581139 0.821528 1.41454 1.118034 1.118034 
C 1.41454 0.821528 1.581139 0.419323 1.581139 0 
C 1.581139 -0.419323 1.41454 -0.821528 1.118034 -1.118034 
C 0.821528 -1.41454 0.419323 -1.581139 0 -1.581139 
C -0.419323 -1.581139 -0.821528 -1.41454 -1.118034 -1.118034 
C -1.41454 -0.821528 -1.581139 -0.419323 -1.581139 0 
C -1.581139 0.419323 -1.41454 0.821528 -1.118034 1.118034 
C -0.821528 1.41454 -0.419323 1.581139 0 1.581139 
z
" id="m33ec7cc682" style="stroke:#000000;stroke-opacity:0.5;stroke-width:0.5;"/>
    </defs>
    <g clip-path="url(#p264989b2da)">
     <use style="fill-opacity:0.5;stroke:#000000;stroke-opacity:0.5;stroke-width:0.5;" x="238.319473" xlink:href="#m33ec7cc682" y="130.847727"/>
     <use style="fill-opacity:0.5;stroke:#000000;stroke-opacity:0.5;stroke-width:0.5;" x="243.897856" xlink:href="#m33ec7cc682" y="82.973864"/>
     <use style="fill-opacity:0.5;stroke:#000000;stroke-opacity:0.5;stroke-width:0.5;" x="224.584345" xlink:href="#m33ec7cc682" y="87.606818"/>
     <use style="fill-opacity:0.5;stroke:#000000;stroke-opacity:0.5;stroke-width:0.5;" x="227.666129" xlink:href="#m33ec7cc682" y="92.239773"/>
     <use style="fill-opacity:0.5;stroke:#000000;stroke-opacity:0.5;stroke-width:0.5;" x="216.475674" xlink:href="#m33ec7cc682" y="101.505682"/>
     <use style="fill-opacity:0.5;stroke:#000000;stroke-opacity:0.5;stroke-width:0.5;" x="223.180653" xlink:href="#m33ec7cc682" y="87.606818"/>
     <use style="fill-opacity:0.5;stroke:#000000;stroke-opacity:0.5;stroke-width:0.5;" x="220.288122" xlink:href="#m33ec7cc682" y="103.05"/>
     <use style="fill-opacity:0.5;stroke:#000000;stroke-opacity:0.5;stroke-width:0.5;" x="210.971541" xlink:href="#m33ec7cc682" y="116.948864"/>
     <use style="fill-opacity:0.5;stroke:#000000;stroke-opacity:0.5;stroke-width:0.5;" x="205.335173" xlink:href="#m33ec7cc682" y="116.948864"/>
     <use style="fill-opacity:0.5;stroke:#000000;stroke-opacity:0.5;stroke-width:0.5;" x="203.202798" xlink:href="#m33ec7cc682" y="157.101136"/>
     <use style="fill-opacity:0.5;stroke:#000000;stroke-opacity:0.5;stroke-width:0.5;" x="208.043197" xlink:href="#m33ec7cc682" y="135.480682"/>
     <use style="fill-opacity:0.5;stroke:#000000;stroke-opacity:0.5;stroke-width:0.5;" x="217.767857" xlink:href="#m33ec7cc682" y="129.303409"/>
     <use style="fill-opacity:0.5;stroke:#000000;stroke-opacity:0.5;stroke-width:0.5;" x="249.68129" xlink:href="#m33ec7cc682" y="87.606818"/>
     <use style="fill-opacity:0.5;stroke:#000000;stroke-opacity:0.5;stroke-width:0.5;" x="268.821902" xlink:href="#m33ec7cc682" y="96.872727"/>
     <use style="fill-opacity:0.5;stroke:#000000;stroke-opacity:0.5;stroke-width:0.5;" x="245.486159" xlink:href="#m33ec7cc682" y="120.0375"/>
    </g>
   </g>
   <g id="LineCollection_3">
    <path clip-path="url(#p264989b2da)" d="M 175.85525 103.05 
L 265.083745 103.05 
" style="fill:none;stroke:#000000;stroke-opacity:0.5;stroke-width:2;"/>
   </g>
   <g id="LineCollection_4">
    <path clip-path="url(#p264989b2da)" d="M 220.469498 164.822727 
L 220.469498 41.277273 
" style="fill:none;stroke:#000000;stroke-opacity:0.5;stroke-width:2;"/>
   </g>
   <g id="line2d_31">
    <path clip-path="url(#p264989b2da)" d="M 238.319473 103.100401 
L 243.897856 99.851762 
L 224.584345 111.099221 
L 227.666129 109.304506 
L 216.475674 115.821405 
L 223.180653 111.916678 
L 220.288122 113.601179 
L 210.971541 119.026804 
L 205.335173 122.309211 
L 203.202798 123.551026 
L 208.043197 120.732161 
L 217.767857 115.068886 
L 249.68129 96.483708 
L 268.821902 85.336939 
L 245.486159 98.926794 
" style="fill:none;stroke:#000000;stroke-opacity:0.8;stroke-width:2;"/>
   </g>
   <g id="line2d_32">
    <path clip-path="url(#p264989b2da)" d="M 210.216836 107.67487 
L 280.336052 76.841948 
L 168.095654 126.196456 
L 223.542291 101.815382 
" style="fill:none;stroke:#c4ced4;stroke-opacity:0.5;stroke-width:2;"/>
   </g>
   <g id="text_14">
    <!-- Nets -->
    <defs>
     <path d="M 9.8125 72.90625 
L 23.09375 72.90625 
L 55.421875 11.921875 
L 55.421875 72.90625 
L 64.984375 72.90625 
L 64.984375 0 
L 51.703125 0 
L 19.390625 60.984375 
L 19.390625 0 
L 9.8125 0 
z
" id="DejaVuSans-78"/>
    </defs>
    <g transform="translate(213.613558 29.1)scale(0.1 -0.1)">
     <use xlink:href="#DejaVuSans-78"/>
     <use x="74.804688" xlink:href="#DejaVuSans-101"/>
     <use x="136.328125" xlink:href="#DejaVuSans-116"/>
     <use x="175.537109" xlink:href="#DejaVuSans-115"/>
    </g>
   </g>
  </g>
  <g id="axes_3">
   <g id="patch_4">
    <path d="M 287.710697 171 
L 412.890553 171 
L 412.890553 35.1 
L 287.710697 35.1 
z
" style="fill:#f0f0f0;"/>
   </g>
   <g id="matplotlib.axis_5">
    <g id="xtick_7">
     <g id="line2d_33">
      <path clip-path="url(#p13190533f9)" d="M 316.031702 171 
L 316.031702 35.1 
" style="fill:none;stroke:#808080;stroke-opacity:0.5;stroke-width:0.25;"/>
     </g>
     <g id="line2d_34"/>
     <g id="text_15">
      <!-- −2 -->
      <g transform="translate(310.134827 180.57875)scale(0.08 -0.08)">
       <use xlink:href="#DejaVuSans-8722"/>
       <use x="83.789062" xlink:href="#DejaVuSans-50"/>
      </g>
     </g>
    </g>
    <g id="xtick_8">
     <g id="line2d_35">
      <path clip-path="url(#p13190533f9)" d="M 345.774534 171 
L 345.774534 35.1 
" style="fill:none;stroke:#808080;stroke-opacity:0.5;stroke-width:0.25;"/>
     </g>
     <g id="line2d_36"/>
     <g id="text_16">
      <!-- 0 -->
      <g transform="translate(343.229534 180.57875)scale(0.08 -0.08)">
       <use xlink:href="#DejaVuSans-48"/>
      </g>
     </g>
    </g>
    <g id="xtick_9">
     <g id="line2d_37">
      <path clip-path="url(#p13190533f9)" d="M 375.517365 171 
L 375.517365 35.1 
" style="fill:none;stroke:#808080;stroke-opacity:0.5;stroke-width:0.25;"/>
     </g>
     <g id="line2d_38"/>
     <g id="text_17">
      <!-- 2 -->
      <g transform="translate(372.972365 180.57875)scale(0.08 -0.08)">
       <use xlink:href="#DejaVuSans-50"/>
      </g>
     </g>
    </g>
   </g>
   <g id="matplotlib.axis_6">
    <g id="ytick_9">
     <g id="line2d_39">
      <path clip-path="url(#p13190533f9)" d="M 287.710697 149.379545 
L 412.890553 149.379545 
" style="fill:none;stroke:#808080;stroke-opacity:0.5;stroke-width:0.25;"/>
     </g>
     <g id="line2d_40"/>
    </g>
    <g id="ytick_10">
     <g id="line2d_41">
      <path clip-path="url(#p13190533f9)" d="M 287.710697 118.493182 
L 412.890553 118.493182 
" style="fill:none;stroke:#808080;stroke-opacity:0.5;stroke-width:0.25;"/>
     </g>
     <g id="line2d_42"/>
    </g>
    <g id="ytick_11">
     <g id="line2d_43">
      <path clip-path="url(#p13190533f9)" d="M 287.710697 87.606818 
L 412.890553 87.606818 
" style="fill:none;stroke:#808080;stroke-opacity:0.5;stroke-width:0.25;"/>
     </g>
     <g id="line2d_44"/>
    </g>
    <g id="ytick_12">
     <g id="line2d_45">
      <path clip-path="url(#p13190533f9)" d="M 287.710697 56.720455 
L 412.890553 56.720455 
" style="fill:none;stroke:#808080;stroke-opacity:0.5;stroke-width:0.25;"/>
     </g>
     <g id="line2d_46"/>
    </g>
   </g>
   <g id="PathCollection_3">
    <defs>
     <path d="M 0 1.581139 
C 0.419323 1.581139 0.821528 1.41454 1.118034 1.118034 
C 1.41454 0.821528 1.581139 0.419323 1.581139 0 
C 1.581139 -0.419323 1.41454 -0.821528 1.118034 -1.118034 
C 0.821528 -1.41454 0.419323 -1.581139 0 -1.581139 
C -0.419323 -1.581139 -0.821528 -1.41454 -1.118034 -1.118034 
C -1.41454 -0.821528 -1.581139 -0.419323 -1.581139 0 
C -1.581139 0.419323 -1.41454 0.821528 -1.118034 1.118034 
C -0.821528 1.41454 -0.419323 1.581139 0 1.581139 
z
" id="m467b21edd5" style="stroke:#006bb6;stroke-opacity:0.5;stroke-width:0.5;"/>
    </defs>
    <g clip-path="url(#p13190533f9)">
     <use style="fill:#006bb6;fill-opacity:0.5;stroke:#006bb6;stroke-opacity:0.5;stroke-width:0.5;" x="346.683533" xlink:href="#m467b21edd5" y="75.252273"/>
     <use style="fill:#006bb6;fill-opacity:0.5;stroke:#006bb6;stroke-opacity:0.5;stroke-width:0.5;" x="351.944002" xlink:href="#m467b21edd5" y="99.961364"/>
     <use style="fill:#006bb6;fill-opacity:0.5;stroke:#006bb6;stroke-opacity:0.5;stroke-width:0.5;" x="353.707822" xlink:href="#m467b21edd5" y="89.151136"/>
     <use style="fill:#006bb6;fill-opacity:0.5;stroke:#006bb6;stroke-opacity:0.5;stroke-width:0.5;" x="349.993972" xlink:href="#m467b21edd5" y="118.493182"/>
     <use style="fill:#006bb6;fill-opacity:0.5;stroke:#006bb6;stroke-opacity:0.5;stroke-width:0.5;" x="358.156534" xlink:href="#m467b21edd5" y="99.961364"/>
     <use style="fill:#006bb6;fill-opacity:0.5;stroke:#006bb6;stroke-opacity:0.5;stroke-width:0.5;" x="364.037509" xlink:href="#m467b21edd5" y="109.227273"/>
     <use style="fill:#006bb6;fill-opacity:0.5;stroke:#006bb6;stroke-opacity:0.5;stroke-width:0.5;" x="350.879597" xlink:href="#m467b21edd5" y="113.860227"/>
     <use style="fill:#006bb6;fill-opacity:0.5;stroke:#006bb6;stroke-opacity:0.5;stroke-width:0.5;" x="352.927972" xlink:href="#m467b21edd5" y="104.594318"/>
     <use style="fill:#006bb6;fill-opacity:0.5;stroke:#006bb6;stroke-opacity:0.5;stroke-width:0.5;" x="339.825368" xlink:href="#m467b21edd5" y="103.05"/>
     <use style="fill:#006bb6;fill-opacity:0.5;stroke:#006bb6;stroke-opacity:0.5;stroke-width:0.5;" x="337.112363" xlink:href="#m467b21edd5" y="129.303409"/>
     <use style="fill:#006bb6;fill-opacity:0.5;stroke:#006bb6;stroke-opacity:0.5;stroke-width:0.5;" x="347.681518" xlink:href="#m467b21edd5" y="103.05"/>
     <use style="fill:#006bb6;fill-opacity:0.5;stroke:#006bb6;stroke-opacity:0.5;stroke-width:0.5;" x="345.025679" xlink:href="#m467b21edd5" y="98.417045"/>
     <use style="fill:#006bb6;fill-opacity:0.5;stroke:#006bb6;stroke-opacity:0.5;stroke-width:0.5;" x="345.060042" xlink:href="#m467b21edd5" y="116.948864"/>
     <use style="fill:#006bb6;fill-opacity:0.5;stroke:#006bb6;stroke-opacity:0.5;stroke-width:0.5;" x="323.799867" xlink:href="#m467b21edd5" y="144.746591"/>
     <use style="fill:#006bb6;fill-opacity:0.5;stroke:#006bb6;stroke-opacity:0.5;stroke-width:0.5;" x="319.955983" xlink:href="#m467b21edd5" y="110.771591"/>
    </g>
   </g>
   <g id="LineCollection_5">
    <path clip-path="url(#p13190533f9)" d="M 301.160286 103.05 
L 390.388781 103.05 
" style="fill:none;stroke:#000000;stroke-opacity:0.5;stroke-width:2;"/>
   </g>
   <g id="LineCollection_6">
    <path clip-path="url(#p13190533f9)" d="M 345.774534 164.822727 
L 345.774534 41.277273 
" style="fill:none;stroke:#000000;stroke-opacity:0.5;stroke-width:2;"/>
   </g>
   <g id="line2d_47">
    <path clip-path="url(#p13190533f9)" d="M 346.683533 107.187605 
L 351.944002 103.680467 
L 353.707822 102.504534 
L 349.993972 104.980546 
L 358.156534 99.538591 
L 364.037509 95.617764 
L 350.879597 104.390103 
L 352.927972 103.024457 
L 339.825368 111.759922 
L 337.112363 113.568674 
L 347.681518 106.522251 
L 345.025679 108.292891 
L 345.060042 108.269981 
L 323.799867 122.444073 
L 319.955983 125.006778 
" style="fill:none;stroke:#006bb6;stroke-opacity:0.8;stroke-width:2;"/>
   </g>
   <g id="line2d_48">
    <path clip-path="url(#p13190533f9)" d="M 335.521872 107.67487 
L 405.641088 76.841948 
L 293.40069 126.196456 
L 348.847327 101.815382 
" style="fill:none;stroke:#c4ced4;stroke-opacity:0.5;stroke-width:2;"/>
   </g>
   <g id="text_18">
    <!-- Sixers -->
    <defs>
     <path d="M 54.890625 54.6875 
L 35.109375 28.078125 
L 55.90625 0 
L 45.3125 0 
L 29.390625 21.484375 
L 13.484375 0 
L 2.875 0 
L 24.125 28.609375 
L 4.6875 54.6875 
L 15.28125 54.6875 
L 29.78125 35.203125 
L 44.28125 54.6875 
z
" id="DejaVuSans-120"/>
    </defs>
    <g transform="translate(335.043594 29.1)scale(0.1 -0.1)">
     <use xlink:href="#DejaVuSans-83"/>
     <use x="63.476562" xlink:href="#DejaVuSans-105"/>
     <use x="91.259766" xlink:href="#DejaVuSans-120"/>
     <use x="150.392578" xlink:href="#DejaVuSans-101"/>
     <use x="211.916016" xlink:href="#DejaVuSans-114"/>
     <use x="253.029297" xlink:href="#DejaVuSans-115"/>
    </g>
   </g>
  </g>
  <g id="axes_4">
   <g id="patch_5">
    <path d="M 413.015733 171 
L 538.195589 171 
L 538.195589 35.1 
L 413.015733 35.1 
z
" style="fill:#f0f0f0;"/>
   </g>
   <g id="matplotlib.axis_7">
    <g id="xtick_10">
     <g id="line2d_49">
      <path clip-path="url(#p92abb0865a)" d="M 441.336738 171 
L 441.336738 35.1 
" style="fill:none;stroke:#808080;stroke-opacity:0.5;stroke-width:0.25;"/>
     </g>
     <g id="line2d_50"/>
     <g id="text_19">
      <!-- −2 -->
      <g transform="translate(435.439863 180.57875)scale(0.08 -0.08)">
       <use xlink:href="#DejaVuSans-8722"/>
       <use x="83.789062" xlink:href="#DejaVuSans-50"/>
      </g>
     </g>
    </g>
    <g id="xtick_11">
     <g id="line2d_51">
      <path clip-path="url(#p92abb0865a)" d="M 471.07957 171 
L 471.07957 35.1 
" style="fill:none;stroke:#808080;stroke-opacity:0.5;stroke-width:0.25;"/>
     </g>
     <g id="line2d_52"/>
     <g id="text_20">
      <!-- 0 -->
      <g transform="translate(468.53457 180.57875)scale(0.08 -0.08)">
       <use xlink:href="#DejaVuSans-48"/>
      </g>
     </g>
    </g>
    <g id="xtick_12">
     <g id="line2d_53">
      <path clip-path="url(#p92abb0865a)" d="M 500.822401 171 
L 500.822401 35.1 
" style="fill:none;stroke:#808080;stroke-opacity:0.5;stroke-width:0.25;"/>
     </g>
     <g id="line2d_54"/>
     <g id="text_21">
      <!-- 2 -->
      <g transform="translate(498.277401 180.57875)scale(0.08 -0.08)">
       <use xlink:href="#DejaVuSans-50"/>
      </g>
     </g>
    </g>
   </g>
   <g id="matplotlib.axis_8">
    <g id="ytick_13">
     <g id="line2d_55">
      <path clip-path="url(#p92abb0865a)" d="M 413.015733 149.379545 
L 538.195589 149.379545 
" style="fill:none;stroke:#808080;stroke-opacity:0.5;stroke-width:0.25;"/>
     </g>
     <g id="line2d_56"/>
    </g>
    <g id="ytick_14">
     <g id="line2d_57">
      <path clip-path="url(#p92abb0865a)" d="M 413.015733 118.493182 
L 538.195589 118.493182 
" style="fill:none;stroke:#808080;stroke-opacity:0.5;stroke-width:0.25;"/>
     </g>
     <g id="line2d_58"/>
    </g>
    <g id="ytick_15">
     <g id="line2d_59">
      <path clip-path="url(#p92abb0865a)" d="M 413.015733 87.606818 
L 538.195589 87.606818 
" style="fill:none;stroke:#808080;stroke-opacity:0.5;stroke-width:0.25;"/>
     </g>
     <g id="line2d_60"/>
    </g>
    <g id="ytick_16">
     <g id="line2d_61">
      <path clip-path="url(#p92abb0865a)" d="M 413.015733 56.720455 
L 538.195589 56.720455 
" style="fill:none;stroke:#808080;stroke-opacity:0.5;stroke-width:0.25;"/>
     </g>
     <g id="line2d_62"/>
    </g>
   </g>
   <g id="PathCollection_4">
    <defs>
     <path d="M 0 1.581139 
C 0.419323 1.581139 0.821528 1.41454 1.118034 1.118034 
C 1.41454 0.821528 1.581139 0.419323 1.581139 0 
C 1.581139 -0.419323 1.41454 -0.821528 1.118034 -1.118034 
C 0.821528 -1.41454 0.419323 -1.581139 0 -1.581139 
C -0.419323 -1.581139 -0.821528 -1.41454 -1.118034 -1.118034 
C -1.41454 -0.821528 -1.581139 -0.419323 -1.581139 0 
C -1.581139 0.419323 -1.41454 0.821528 -1.118034 1.118034 
C -0.821528 1.41454 -0.419323 1.581139 0 1.581139 
z
" id="m2b8e1f779c" style="stroke:#ce1141;stroke-opacity:0.5;stroke-width:0.5;"/>
    </defs>
    <g clip-path="url(#p92abb0865a)">
     <use style="fill:#ce1141;fill-opacity:0.5;stroke:#ce1141;stroke-opacity:0.5;stroke-width:0.5;" x="459.895804" xlink:href="#m2b8e1f779c" y="92.239773"/>
     <use style="fill:#ce1141;fill-opacity:0.5;stroke:#ce1141;stroke-opacity:0.5;stroke-width:0.5;" x="471.789002" xlink:href="#m2b8e1f779c" y="101.505682"/>
     <use style="fill:#ce1141;fill-opacity:0.5;stroke:#ce1141;stroke-opacity:0.5;stroke-width:0.5;" x="470.860612" xlink:href="#m2b8e1f779c" y="135.480682"/>
     <use style="fill:#ce1141;fill-opacity:0.5;stroke:#ce1141;stroke-opacity:0.5;stroke-width:0.5;" x="477.674719" xlink:href="#m2b8e1f779c" y="118.493182"/>
     <use style="fill:#ce1141;fill-opacity:0.5;stroke:#ce1141;stroke-opacity:0.5;stroke-width:0.5;" x="473.571062" xlink:href="#m2b8e1f779c" y="118.493182"/>
     <use style="fill:#ce1141;fill-opacity:0.5;stroke:#ce1141;stroke-opacity:0.5;stroke-width:0.5;" x="470.370413" xlink:href="#m2b8e1f779c" y="129.303409"/>
     <use style="fill:#ce1141;fill-opacity:0.5;stroke:#ce1141;stroke-opacity:0.5;stroke-width:0.5;" x="455.597212" xlink:href="#m2b8e1f779c" y="92.239773"/>
     <use style="fill:#ce1141;fill-opacity:0.5;stroke:#ce1141;stroke-opacity:0.5;stroke-width:0.5;" x="467.321527" xlink:href="#m2b8e1f779c" y="103.05"/>
     <use style="fill:#ce1141;fill-opacity:0.5;stroke:#ce1141;stroke-opacity:0.5;stroke-width:0.5;" x="473.519194" xlink:href="#m2b8e1f779c" y="118.493182"/>
     <use style="fill:#ce1141;fill-opacity:0.5;stroke:#ce1141;stroke-opacity:0.5;stroke-width:0.5;" x="467.001373" xlink:href="#m2b8e1f779c" y="104.594318"/>
     <use style="fill:#ce1141;fill-opacity:0.5;stroke:#ce1141;stroke-opacity:0.5;stroke-width:0.5;" x="474.468682" xlink:href="#m2b8e1f779c" y="138.569318"/>
     <use style="fill:#ce1141;fill-opacity:0.5;stroke:#ce1141;stroke-opacity:0.5;stroke-width:0.5;" x="454.034297" xlink:href="#m2b8e1f779c" y="126.214773"/>
     <use style="fill:#ce1141;fill-opacity:0.5;stroke:#ce1141;stroke-opacity:0.5;stroke-width:0.5;" x="466.093759" xlink:href="#m2b8e1f779c" y="116.948864"/>
     <use style="fill:#ce1141;fill-opacity:0.5;stroke:#ce1141;stroke-opacity:0.5;stroke-width:0.5;" x="476.51774" xlink:href="#m2b8e1f779c" y="89.151136"/>
     <use style="fill:#ce1141;fill-opacity:0.5;stroke:#ce1141;stroke-opacity:0.5;stroke-width:0.5;" x="486.222429" xlink:href="#m2b8e1f779c" y="89.151136"/>
    </g>
   </g>
   <g id="LineCollection_7">
    <path clip-path="url(#p92abb0865a)" d="M 426.465322 103.05 
L 515.693817 103.05 
" style="fill:none;stroke:#000000;stroke-opacity:0.5;stroke-width:2;"/>
   </g>
   <g id="LineCollection_8">
    <path clip-path="url(#p92abb0865a)" d="M 471.07957 164.822727 
L 471.07957 41.277273 
" style="fill:none;stroke:#000000;stroke-opacity:0.5;stroke-width:2;"/>
   </g>
   <g id="line2d_63">
    <path clip-path="url(#p92abb0865a)" d="M 459.895804 111.740865 
L 471.789002 111.563518 
L 470.860612 111.577362 
L 477.674719 111.475752 
L 473.571062 111.536945 
L 470.370413 111.584671 
L 455.597212 111.804964 
L 467.321527 111.630135 
L 473.519194 111.537718 
L 467.001373 111.634909 
L 474.468682 111.52356 
L 454.034297 111.828269 
L 466.093759 111.648443 
L 476.51774 111.493005 
L 486.222429 111.348292 
" style="fill:none;stroke:#ce1141;stroke-opacity:0.8;stroke-width:2;"/>
   </g>
   <g id="line2d_64">
    <path clip-path="url(#p92abb0865a)" d="M 460.826908 107.67487 
L 530.946124 76.841948 
L 418.705726 126.196456 
L 474.152363 101.815382 
" style="fill:none;stroke:#c4ced4;stroke-opacity:0.5;stroke-width:2;"/>
   </g>
   <g id="text_22">
    <!-- Raptors -->
    <defs>
     <path d="M 44.390625 34.1875 
Q 47.5625 33.109375 50.5625 29.59375 
Q 53.5625 26.078125 56.59375 19.921875 
L 66.609375 0 
L 56 0 
L 46.6875 18.703125 
Q 43.0625 26.03125 39.671875 28.421875 
Q 36.28125 30.8125 30.421875 30.8125 
L 19.671875 30.8125 
L 19.671875 0 
L 9.8125 0 
L 9.8125 72.90625 
L 32.078125 72.90625 
Q 44.578125 72.90625 50.734375 67.671875 
Q 56.890625 62.453125 56.890625 51.90625 
Q 56.890625 45.015625 53.6875 40.46875 
Q 50.484375 35.9375 44.390625 34.1875 
z
M 19.671875 64.796875 
L 19.671875 38.921875 
L 32.078125 38.921875 
Q 39.203125 38.921875 42.84375 42.21875 
Q 46.484375 45.515625 46.484375 51.90625 
Q 46.484375 58.296875 42.84375 61.546875 
Q 39.203125 64.796875 32.078125 64.796875 
z
" id="DejaVuSans-82"/>
     <path d="M 18.109375 8.203125 
L 18.109375 -20.796875 
L 9.078125 -20.796875 
L 9.078125 54.6875 
L 18.109375 54.6875 
L 18.109375 46.390625 
Q 20.953125 51.265625 25.265625 53.625 
Q 29.59375 56 35.59375 56 
Q 45.5625 56 51.78125 48.09375 
Q 58.015625 40.1875 58.015625 27.296875 
Q 58.015625 14.40625 51.78125 6.484375 
Q 45.5625 -1.421875 35.59375 -1.421875 
Q 29.59375 -1.421875 25.265625 0.953125 
Q 20.953125 3.328125 18.109375 8.203125 
z
M 48.6875 27.296875 
Q 48.6875 37.203125 44.609375 42.84375 
Q 40.53125 48.484375 33.40625 48.484375 
Q 26.265625 48.484375 22.1875 42.84375 
Q 18.109375 37.203125 18.109375 27.296875 
Q 18.109375 17.390625 22.1875 11.75 
Q 26.265625 6.109375 33.40625 6.109375 
Q 40.53125 6.109375 44.609375 11.75 
Q 48.6875 17.390625 48.6875 27.296875 
z
" id="DejaVuSans-112"/>
     <path d="M 30.609375 48.390625 
Q 23.390625 48.390625 19.1875 42.75 
Q 14.984375 37.109375 14.984375 27.296875 
Q 14.984375 17.484375 19.15625 11.84375 
Q 23.34375 6.203125 30.609375 6.203125 
Q 37.796875 6.203125 41.984375 11.859375 
Q 46.1875 17.53125 46.1875 27.296875 
Q 46.1875 37.015625 41.984375 42.703125 
Q 37.796875 48.390625 30.609375 48.390625 
z
M 30.609375 56 
Q 42.328125 56 49.015625 48.375 
Q 55.71875 40.765625 55.71875 27.296875 
Q 55.71875 13.875 49.015625 6.21875 
Q 42.328125 -1.421875 30.609375 -1.421875 
Q 18.84375 -1.421875 12.171875 6.21875 
Q 5.515625 13.875 5.515625 27.296875 
Q 5.515625 40.765625 12.171875 48.375 
Q 18.84375 56 30.609375 56 
z
" id="DejaVuSans-111"/>
    </defs>
    <g transform="translate(456.215036 29.1)scale(0.1 -0.1)">
     <use xlink:href="#DejaVuSans-82"/>
     <use x="69.451172" xlink:href="#DejaVuSans-97"/>
     <use x="130.730469" xlink:href="#DejaVuSans-112"/>
     <use x="194.207031" xlink:href="#DejaVuSans-116"/>
     <use x="233.416016" xlink:href="#DejaVuSans-111"/>
     <use x="294.597656" xlink:href="#DejaVuSans-114"/>
     <use x="335.710938" xlink:href="#DejaVuSans-115"/>
    </g>
   </g>
  </g>
  <g id="axes_5">
   <g id="patch_6">
    <path d="M 538.320769 171 
L 663.500625 171 
L 663.500625 35.1 
L 538.320769 35.1 
z
" style="fill:#f0f0f0;"/>
   </g>
   <g id="matplotlib.axis_9">
    <g id="xtick_13">
     <g id="line2d_65">
      <path clip-path="url(#p64249bbad5)" d="M 566.641774 171 
L 566.641774 35.1 
" style="fill:none;stroke:#808080;stroke-opacity:0.5;stroke-width:0.25;"/>
     </g>
     <g id="line2d_66"/>
     <g id="text_23">
      <!-- −2 -->
      <g transform="translate(560.744899 180.57875)scale(0.08 -0.08)">
       <use xlink:href="#DejaVuSans-8722"/>
       <use x="83.789062" xlink:href="#DejaVuSans-50"/>
      </g>
     </g>
    </g>
    <g id="xtick_14">
     <g id="line2d_67">
      <path clip-path="url(#p64249bbad5)" d="M 596.384606 171 
L 596.384606 35.1 
" style="fill:none;stroke:#808080;stroke-opacity:0.5;stroke-width:0.25;"/>
     </g>
     <g id="line2d_68"/>
     <g id="text_24">
      <!-- 0 -->
      <g transform="translate(593.839606 180.57875)scale(0.08 -0.08)">
       <use xlink:href="#DejaVuSans-48"/>
      </g>
     </g>
    </g>
    <g id="xtick_15">
     <g id="line2d_69">
      <path clip-path="url(#p64249bbad5)" d="M 626.127437 171 
L 626.127437 35.1 
" style="fill:none;stroke:#808080;stroke-opacity:0.5;stroke-width:0.25;"/>
     </g>
     <g id="line2d_70"/>
     <g id="text_25">
      <!-- 2 -->
      <g transform="translate(623.582437 180.57875)scale(0.08 -0.08)">
       <use xlink:href="#DejaVuSans-50"/>
      </g>
     </g>
    </g>
   </g>
   <g id="matplotlib.axis_10">
    <g id="ytick_17">
     <g id="line2d_71">
      <path clip-path="url(#p64249bbad5)" d="M 538.320769 149.379545 
L 663.500625 149.379545 
" style="fill:none;stroke:#808080;stroke-opacity:0.5;stroke-width:0.25;"/>
     </g>
     <g id="line2d_72"/>
    </g>
    <g id="ytick_18">
     <g id="line2d_73">
      <path clip-path="url(#p64249bbad5)" d="M 538.320769 118.493182 
L 663.500625 118.493182 
" style="fill:none;stroke:#808080;stroke-opacity:0.5;stroke-width:0.25;"/>
     </g>
     <g id="line2d_74"/>
    </g>
    <g id="ytick_19">
     <g id="line2d_75">
      <path clip-path="url(#p64249bbad5)" d="M 538.320769 87.606818 
L 663.500625 87.606818 
" style="fill:none;stroke:#808080;stroke-opacity:0.5;stroke-width:0.25;"/>
     </g>
     <g id="line2d_76"/>
    </g>
    <g id="ytick_20">
     <g id="line2d_77">
      <path clip-path="url(#p64249bbad5)" d="M 538.320769 56.720455 
L 663.500625 56.720455 
" style="fill:none;stroke:#808080;stroke-opacity:0.5;stroke-width:0.25;"/>
     </g>
     <g id="line2d_78"/>
    </g>
   </g>
   <g id="PathCollection_5">
    <defs>
     <path d="M 0 1.581139 
C 0.419323 1.581139 0.821528 1.41454 1.118034 1.118034 
C 1.41454 0.821528 1.581139 0.419323 1.581139 0 
C 1.581139 -0.419323 1.41454 -0.821528 1.118034 -1.118034 
C 0.821528 -1.41454 0.419323 -1.581139 0 -1.581139 
C -0.419323 -1.581139 -0.821528 -1.41454 -1.118034 -1.118034 
C -1.41454 -0.821528 -1.581139 -0.419323 -1.581139 0 
C -1.581139 0.419323 -1.41454 0.821528 -1.118034 1.118034 
C -0.821528 1.41454 -0.419323 1.581139 0 1.581139 
z
" id="m6ac846a6fb" style="stroke:#f58426;stroke-opacity:0.5;stroke-width:0.5;"/>
    </defs>
    <g clip-path="url(#p64249bbad5)">
     <use style="fill:#f58426;fill-opacity:0.5;stroke:#f58426;stroke-opacity:0.5;stroke-width:0.5;" x="618.997339" xlink:href="#m6ac846a6fb" y="89.151136"/>
     <use style="fill:#f58426;fill-opacity:0.5;stroke:#f58426;stroke-opacity:0.5;stroke-width:0.5;" x="630.699684" xlink:href="#m6ac846a6fb" y="123.126136"/>
     <use style="fill:#f58426;fill-opacity:0.5;stroke:#f58426;stroke-opacity:0.5;stroke-width:0.5;" x="629.109798" xlink:href="#m6ac846a6fb" y="110.771591"/>
     <use style="fill:#f58426;fill-opacity:0.5;stroke:#f58426;stroke-opacity:0.5;stroke-width:0.5;" x="626.908935" xlink:href="#m6ac846a6fb" y="106.138636"/>
     <use style="fill:#f58426;fill-opacity:0.5;stroke:#f58426;stroke-opacity:0.5;stroke-width:0.5;" x="638.313973" xlink:href="#m6ac846a6fb" y="118.493182"/>
     <use style="fill:#f58426;fill-opacity:0.5;stroke:#f58426;stroke-opacity:0.5;stroke-width:0.5;" x="650.078339" xlink:href="#m6ac846a6fb" y="137.025"/>
     <use style="fill:#f58426;fill-opacity:0.5;stroke:#f58426;stroke-opacity:0.5;stroke-width:0.5;" x="656.25116" xlink:href="#m6ac846a6fb" y="118.493182"/>
     <use style="fill:#f58426;fill-opacity:0.5;stroke:#f58426;stroke-opacity:0.5;stroke-width:0.5;" x="633.767455" xlink:href="#m6ac846a6fb" y="137.025"/>
     <use style="fill:#f58426;fill-opacity:0.5;stroke:#f58426;stroke-opacity:0.5;stroke-width:0.5;" x="636.638724" xlink:href="#m6ac846a6fb" y="120.0375"/>
     <use style="fill:#f58426;fill-opacity:0.5;stroke:#f58426;stroke-opacity:0.5;stroke-width:0.5;" x="620.206026" xlink:href="#m6ac846a6fb" y="126.214773"/>
     <use style="fill:#f58426;fill-opacity:0.5;stroke:#f58426;stroke-opacity:0.5;stroke-width:0.5;" x="595.679657" xlink:href="#m6ac846a6fb" y="101.505682"/>
     <use style="fill:#f58426;fill-opacity:0.5;stroke:#f58426;stroke-opacity:0.5;stroke-width:0.5;" x="610.263859" xlink:href="#m6ac846a6fb" y="95.328409"/>
     <use style="fill:#f58426;fill-opacity:0.5;stroke:#f58426;stroke-opacity:0.5;stroke-width:0.5;" x="614.641953" xlink:href="#m6ac846a6fb" y="78.340909"/>
     <use style="fill:#f58426;fill-opacity:0.5;stroke:#f58426;stroke-opacity:0.5;stroke-width:0.5;" x="626.041854" xlink:href="#m6ac846a6fb" y="110.771591"/>
     <use style="fill:#f58426;fill-opacity:0.5;stroke:#f58426;stroke-opacity:0.5;stroke-width:0.5;" x="611.605324" xlink:href="#m6ac846a6fb" y="118.493182"/>
    </g>
   </g>
   <g id="LineCollection_9">
    <path clip-path="url(#p64249bbad5)" d="M 551.770358 103.05 
L 640.998853 103.05 
" style="fill:none;stroke:#000000;stroke-opacity:0.5;stroke-width:2;"/>
   </g>
   <g id="LineCollection_10">
    <path clip-path="url(#p64249bbad5)" d="M 596.384606 164.822727 
L 596.384606 41.277273 
" style="fill:none;stroke:#000000;stroke-opacity:0.5;stroke-width:2;"/>
   </g>
   <g id="line2d_79">
    <path clip-path="url(#p64249bbad5)" d="M 618.997339 107.974733 
L 630.699684 115.277679 
L 629.109798 114.285497 
L 626.908935 112.91203 
L 638.313973 120.02944 
L 650.078339 127.371091 
L 656.25116 131.223292 
L 633.767455 117.192147 
L 636.638724 118.983987 
L 620.206026 108.729023 
L 595.679657 93.423137 
L 610.263859 102.524531 
L 614.641953 105.256717 
L 626.041854 112.370921 
L 611.605324 103.361683 
" style="fill:none;stroke:#f58426;stroke-opacity:0.8;stroke-width:2;"/>
   </g>
   <g id="line2d_80">
    <path clip-path="url(#p64249bbad5)" d="M 586.131944 107.67487 
L 656.25116 76.841948 
L 544.010762 126.196456 
L 599.457399 101.815382 
" style="fill:none;stroke:#c4ced4;stroke-opacity:0.5;stroke-width:2;"/>
   </g>
   <g id="text_26">
    <!-- Knicks -->
    <defs>
     <path d="M 9.8125 72.90625 
L 19.671875 72.90625 
L 19.671875 42.09375 
L 52.390625 72.90625 
L 65.09375 72.90625 
L 28.90625 38.921875 
L 67.671875 0 
L 54.6875 0 
L 19.671875 35.109375 
L 19.671875 0 
L 9.8125 0 
z
" id="DejaVuSans-75"/>
     <path d="M 9.078125 75.984375 
L 18.109375 75.984375 
L 18.109375 31.109375 
L 44.921875 54.6875 
L 56.390625 54.6875 
L 27.390625 29.109375 
L 57.625 0 
L 45.90625 0 
L 18.109375 26.703125 
L 18.109375 0 
L 9.078125 0 
z
" id="DejaVuSans-107"/>
    </defs>
    <g transform="translate(584.824759 29.1)scale(0.1 -0.1)">
     <use xlink:href="#DejaVuSans-75"/>
     <use x="65.576172" xlink:href="#DejaVuSans-110"/>
     <use x="128.955078" xlink:href="#DejaVuSans-105"/>
     <use x="156.738281" xlink:href="#DejaVuSans-99"/>
     <use x="211.71875" xlink:href="#DejaVuSans-107"/>
     <use x="269.628906" xlink:href="#DejaVuSans-115"/>
    </g>
   </g>
  </g>
  <g id="text_27">
   <!-- Atlantic -->
   <defs>
    <path d="M 34.1875 63.1875 
L 20.796875 26.90625 
L 47.609375 26.90625 
z
M 28.609375 72.90625 
L 39.796875 72.90625 
L 67.578125 0 
L 57.328125 0 
L 50.6875 18.703125 
L 17.828125 18.703125 
L 11.1875 0 
L 0.78125 0 
z
" id="DejaVuSans-65"/>
   </defs>
   <g style="fill:#808080;" transform="translate(320.400625 14.798437)scale(0.1 -0.1)">
    <use xlink:href="#DejaVuSans-65"/>
    <use x="68.392578" xlink:href="#DejaVuSans-116"/>
    <use x="107.601562" xlink:href="#DejaVuSans-108"/>
    <use x="135.384766" xlink:href="#DejaVuSans-97"/>
    <use x="196.664062" xlink:href="#DejaVuSans-110"/>
    <use x="260.042969" xlink:href="#DejaVuSans-116"/>
    <use x="299.251953" xlink:href="#DejaVuSans-105"/>
    <use x="327.035156" xlink:href="#DejaVuSans-99"/>
   </g>
  </g>
 </g>
 <defs>
  <clipPath id="p502f5aab30">
   <rect height="135.9" width="125.179856" x="37.100625" y="35.1"/>
  </clipPath>
  <clipPath id="p264989b2da">
   <rect height="135.9" width="125.179856" x="162.405661" y="35.1"/>
  </clipPath>
  <clipPath id="p13190533f9">
   <rect height="135.9" width="125.179856" x="287.710697" y="35.1"/>
  </clipPath>
  <clipPath id="p92abb0865a">
   <rect height="135.9" width="125.179856" x="413.015733" y="35.1"/>
  </clipPath>
  <clipPath id="p64249bbad5">
   <rect height="135.9" width="125.179856" x="538.320769" y="35.1"/>
  </clipPath>
 </defs>
</svg>
