<?xml version="1.0" encoding="utf-8" standalone="no"?>
<!DOCTYPE svg PUBLIC "-//W3C//DTD SVG 1.1//EN"
  "http://www.w3.org/Graphics/SVG/1.1/DTD/svg11.dtd">
<!-- Created with matplotlib (https://matplotlib.org/) -->
<svg height="720pt" version="1.1" viewBox="0 0 1080 720" width="1080pt" xmlns="http://www.w3.org/2000/svg" xmlns:xlink="http://www.w3.org/1999/xlink">
 <defs>
  <style type="text/css">
*{stroke-linecap:butt;stroke-linejoin:round;}
  </style>
 </defs>
 <g id="figure_1">
  <g id="patch_1">
   <path d="M 0 720 
L 1080 720 
L 1080 0 
L 0 0 
z
" style="fill:#f0f0f0;"/>
  </g>
  <g id="axes_1">
   <g id="patch_2">
    <path d="M 86.4 257.929412 
L 1026 257.929412 
L 1026 86.4 
L 86.4 86.4 
z
" style="fill:#f0f0f0;"/>
   </g>
   <g id="matplotlib.axis_1">
    <g id="xtick_1">
     <g id="line2d_1">
      <path clip-path="url(#p591cc09399)" d="M 86.4 257.929412 
L 86.4 86.4 
" style="fill:none;stroke:#cbcbcb;"/>
     </g>
     <g id="line2d_2"/>
     <g id="text_1">
      <!-- 0.0 -->
      <defs>
       <path d="M 31.78125 66.40625 
Q 24.171875 66.40625 20.328125 58.90625 
Q 16.5 51.421875 16.5 36.375 
Q 16.5 21.390625 20.328125 13.890625 
Q 24.171875 6.390625 31.78125 6.390625 
Q 39.453125 6.390625 43.28125 13.890625 
Q 47.125 21.390625 47.125 36.375 
Q 47.125 51.421875 43.28125 58.90625 
Q 39.453125 66.40625 31.78125 66.40625 
z
M 31.78125 74.21875 
Q 44.046875 74.21875 50.515625 64.515625 
Q 56.984375 54.828125 56.984375 36.375 
Q 56.984375 17.96875 50.515625 8.265625 
Q 44.046875 -1.421875 31.78125 -1.421875 
Q 19.53125 -1.421875 13.0625 8.265625 
Q 6.59375 17.96875 6.59375 36.375 
Q 6.59375 54.828125 13.0625 64.515625 
Q 19.53125 74.21875 31.78125 74.21875 
z
" id="DejaVuSans-48"/>
       <path d="M 10.6875 12.40625 
L 21 12.40625 
L 21 0 
L 10.6875 0 
z
" id="DejaVuSans-46"/>
      </defs>
      <g transform="translate(75.267813 272.067224)scale(0.14 -0.14)">
       <use xlink:href="#DejaVuSans-48"/>
       <use x="63.623047" xlink:href="#DejaVuSans-46"/>
       <use x="95.410156" xlink:href="#DejaVuSans-48"/>
      </g>
     </g>
    </g>
    <g id="xtick_2">
     <g id="line2d_3">
      <path clip-path="url(#p591cc09399)" d="M 274.32 257.929412 
L 274.32 86.4 
" style="fill:none;stroke:#cbcbcb;"/>
     </g>
     <g id="line2d_4"/>
     <g id="text_2">
      <!-- 0.2 -->
      <defs>
       <path d="M 19.1875 8.296875 
L 53.609375 8.296875 
L 53.609375 0 
L 7.328125 0 
L 7.328125 8.296875 
Q 12.9375 14.109375 22.625 23.890625 
Q 32.328125 33.6875 34.8125 36.53125 
Q 39.546875 41.84375 41.421875 45.53125 
Q 43.3125 49.21875 43.3125 52.78125 
Q 43.3125 58.59375 39.234375 62.25 
Q 35.15625 65.921875 28.609375 65.921875 
Q 23.96875 65.921875 18.8125 64.3125 
Q 13.671875 62.703125 7.8125 59.421875 
L 7.8125 69.390625 
Q 13.765625 71.78125 18.9375 73 
Q 24.125 74.21875 28.421875 74.21875 
Q 39.75 74.21875 46.484375 68.546875 
Q 53.21875 62.890625 53.21875 53.421875 
Q 53.21875 48.921875 51.53125 44.890625 
Q 49.859375 40.875 45.40625 35.40625 
Q 44.1875 33.984375 37.640625 27.21875 
Q 31.109375 20.453125 19.1875 8.296875 
z
" id="DejaVuSans-50"/>
      </defs>
      <g transform="translate(263.187813 272.067224)scale(0.14 -0.14)">
       <use xlink:href="#DejaVuSans-48"/>
       <use x="63.623047" xlink:href="#DejaVuSans-46"/>
       <use x="95.410156" xlink:href="#DejaVuSans-50"/>
      </g>
     </g>
    </g>
    <g id="xtick_3">
     <g id="line2d_5">
      <path clip-path="url(#p591cc09399)" d="M 462.24 257.929412 
L 462.24 86.4 
" style="fill:none;stroke:#cbcbcb;"/>
     </g>
     <g id="line2d_6"/>
     <g id="text_3">
      <!-- 0.4 -->
      <defs>
       <path d="M 37.796875 64.3125 
L 12.890625 25.390625 
L 37.796875 25.390625 
z
M 35.203125 72.90625 
L 47.609375 72.90625 
L 47.609375 25.390625 
L 58.015625 25.390625 
L 58.015625 17.1875 
L 47.609375 17.1875 
L 47.609375 0 
L 37.796875 0 
L 37.796875 17.1875 
L 4.890625 17.1875 
L 4.890625 26.703125 
z
" id="DejaVuSans-52"/>
      </defs>
      <g transform="translate(451.107813 272.067224)scale(0.14 -0.14)">
       <use xlink:href="#DejaVuSans-48"/>
       <use x="63.623047" xlink:href="#DejaVuSans-46"/>
       <use x="95.410156" xlink:href="#DejaVuSans-52"/>
      </g>
     </g>
    </g>
    <g id="xtick_4">
     <g id="line2d_7">
      <path clip-path="url(#p591cc09399)" d="M 650.16 257.929412 
L 650.16 86.4 
" style="fill:none;stroke:#cbcbcb;"/>
     </g>
     <g id="line2d_8"/>
     <g id="text_4">
      <!-- 0.6 -->
      <defs>
       <path d="M 33.015625 40.375 
Q 26.375 40.375 22.484375 35.828125 
Q 18.609375 31.296875 18.609375 23.390625 
Q 18.609375 15.53125 22.484375 10.953125 
Q 26.375 6.390625 33.015625 6.390625 
Q 39.65625 6.390625 43.53125 10.953125 
Q 47.40625 15.53125 47.40625 23.390625 
Q 47.40625 31.296875 43.53125 35.828125 
Q 39.65625 40.375 33.015625 40.375 
z
M 52.59375 71.296875 
L 52.59375 62.3125 
Q 48.875 64.0625 45.09375 64.984375 
Q 41.3125 65.921875 37.59375 65.921875 
Q 27.828125 65.921875 22.671875 59.328125 
Q 17.53125 52.734375 16.796875 39.40625 
Q 19.671875 43.65625 24.015625 45.921875 
Q 28.375 48.1875 33.59375 48.1875 
Q 44.578125 48.1875 50.953125 41.515625 
Q 57.328125 34.859375 57.328125 23.390625 
Q 57.328125 12.15625 50.6875 5.359375 
Q 44.046875 -1.421875 33.015625 -1.421875 
Q 20.359375 -1.421875 13.671875 8.265625 
Q 6.984375 17.96875 6.984375 36.375 
Q 6.984375 53.65625 15.1875 63.9375 
Q 23.390625 74.21875 37.203125 74.21875 
Q 40.921875 74.21875 44.703125 73.484375 
Q 48.484375 72.75 52.59375 71.296875 
z
" id="DejaVuSans-54"/>
      </defs>
      <g transform="translate(639.027813 272.067224)scale(0.14 -0.14)">
       <use xlink:href="#DejaVuSans-48"/>
       <use x="63.623047" xlink:href="#DejaVuSans-46"/>
       <use x="95.410156" xlink:href="#DejaVuSans-54"/>
      </g>
     </g>
    </g>
    <g id="xtick_5">
     <g id="line2d_9">
      <path clip-path="url(#p591cc09399)" d="M 838.08 257.929412 
L 838.08 86.4 
" style="fill:none;stroke:#cbcbcb;"/>
     </g>
     <g id="line2d_10"/>
     <g id="text_5">
      <!-- 0.8 -->
      <defs>
       <path d="M 31.78125 34.625 
Q 24.75 34.625 20.71875 30.859375 
Q 16.703125 27.09375 16.703125 20.515625 
Q 16.703125 13.921875 20.71875 10.15625 
Q 24.75 6.390625 31.78125 6.390625 
Q 38.8125 6.390625 42.859375 10.171875 
Q 46.921875 13.96875 46.921875 20.515625 
Q 46.921875 27.09375 42.890625 30.859375 
Q 38.875 34.625 31.78125 34.625 
z
M 21.921875 38.8125 
Q 15.578125 40.375 12.03125 44.71875 
Q 8.5 49.078125 8.5 55.328125 
Q 8.5 64.0625 14.71875 69.140625 
Q 20.953125 74.21875 31.78125 74.21875 
Q 42.671875 74.21875 48.875 69.140625 
Q 55.078125 64.0625 55.078125 55.328125 
Q 55.078125 49.078125 51.53125 44.71875 
Q 48 40.375 41.703125 38.8125 
Q 48.828125 37.15625 52.796875 32.3125 
Q 56.78125 27.484375 56.78125 20.515625 
Q 56.78125 9.90625 50.3125 4.234375 
Q 43.84375 -1.421875 31.78125 -1.421875 
Q 19.734375 -1.421875 13.25 4.234375 
Q 6.78125 9.90625 6.78125 20.515625 
Q 6.78125 27.484375 10.78125 32.3125 
Q 14.796875 37.15625 21.921875 38.8125 
z
M 18.3125 54.390625 
Q 18.3125 48.734375 21.84375 45.5625 
Q 25.390625 42.390625 31.78125 42.390625 
Q 38.140625 42.390625 41.71875 45.5625 
Q 45.3125 48.734375 45.3125 54.390625 
Q 45.3125 60.0625 41.71875 63.234375 
Q 38.140625 66.40625 31.78125 66.40625 
Q 25.390625 66.40625 21.84375 63.234375 
Q 18.3125 60.0625 18.3125 54.390625 
z
" id="DejaVuSans-56"/>
      </defs>
      <g transform="translate(826.947813 272.067224)scale(0.14 -0.14)">
       <use xlink:href="#DejaVuSans-48"/>
       <use x="63.623047" xlink:href="#DejaVuSans-46"/>
       <use x="95.410156" xlink:href="#DejaVuSans-56"/>
      </g>
     </g>
    </g>
    <g id="xtick_6">
     <g id="line2d_11">
      <path clip-path="url(#p591cc09399)" d="M 1026 257.929412 
L 1026 86.4 
" style="fill:none;stroke:#cbcbcb;"/>
     </g>
     <g id="line2d_12"/>
     <g id="text_6">
      <!-- 1.0 -->
      <defs>
       <path d="M 12.40625 8.296875 
L 28.515625 8.296875 
L 28.515625 63.921875 
L 10.984375 60.40625 
L 10.984375 69.390625 
L 28.421875 72.90625 
L 38.28125 72.90625 
L 38.28125 8.296875 
L 54.390625 8.296875 
L 54.390625 0 
L 12.40625 0 
z
" id="DejaVuSans-49"/>
      </defs>
      <g transform="translate(1014.867813 272.067224)scale(0.14 -0.14)">
       <use xlink:href="#DejaVuSans-49"/>
       <use x="63.623047" xlink:href="#DejaVuSans-46"/>
       <use x="95.410156" xlink:href="#DejaVuSans-48"/>
      </g>
     </g>
    </g>
   </g>
   <g id="matplotlib.axis_2">
    <g id="ytick_1">
     <g id="line2d_13">
      <path clip-path="url(#p591cc09399)" d="M 86.4 257.929412 
L 1026 257.929412 
" style="fill:none;stroke:#cbcbcb;"/>
     </g>
     <g id="line2d_14"/>
     <g id="text_7">
      <!-- 0 -->
      <g transform="translate(73.9925 263.248318)scale(0.14 -0.14)">
       <use xlink:href="#DejaVuSans-48"/>
      </g>
     </g>
    </g>
    <g id="ytick_2">
     <g id="line2d_15">
      <path clip-path="url(#p591cc09399)" d="M 86.4 214.366387 
L 1026 214.366387 
" style="fill:none;stroke:#cbcbcb;"/>
     </g>
     <g id="line2d_16"/>
     <g id="text_8">
      <!-- 2 -->
      <g transform="translate(73.9925 219.685293)scale(0.14 -0.14)">
       <use xlink:href="#DejaVuSans-50"/>
      </g>
     </g>
    </g>
    <g id="ytick_3">
     <g id="line2d_17">
      <path clip-path="url(#p591cc09399)" d="M 86.4 170.803361 
L 1026 170.803361 
" style="fill:none;stroke:#cbcbcb;"/>
     </g>
     <g id="line2d_18"/>
     <g id="text_9">
      <!-- 4 -->
      <g transform="translate(73.9925 176.122268)scale(0.14 -0.14)">
       <use xlink:href="#DejaVuSans-52"/>
      </g>
     </g>
    </g>
    <g id="ytick_4">
     <g id="line2d_19">
      <path clip-path="url(#p591cc09399)" d="M 86.4 127.240336 
L 1026 127.240336 
" style="fill:none;stroke:#cbcbcb;"/>
     </g>
     <g id="line2d_20"/>
     <g id="text_10">
      <!-- 6 -->
      <g transform="translate(73.9925 132.559242)scale(0.14 -0.14)">
       <use xlink:href="#DejaVuSans-54"/>
      </g>
     </g>
    </g>
   </g>
   <g id="patch_3">
    <path clip-path="url(#p591cc09399)" d="M 543.960082 257.929412 
L 543.960082 257.835904 
L 561.239091 257.835904 
L 561.239091 257.929412 
L 578.518101 257.929412 
L 578.518101 257.617718 
L 595.79711 257.617718 
L 595.79711 257.648887 
L 613.07612 257.648887 
L 613.07612 256.620296 
L 630.355129 256.620296 
L 630.355129 255.841061 
L 647.634138 255.841061 
L 647.634138 253.441016 
L 664.913148 253.441016 
L 664.913148 249.700687 
L 682.192157 249.700687 
L 682.192157 243.71616 
L 699.471167 243.71616 
L 699.471167 232.806866 
L 716.750176 232.806866 
L 716.750176 219.185833 
L 734.029186 219.185833 
L 734.029186 201.045235 
L 751.308195 201.045235 
L 751.308195 178.759106 
L 768.587204 178.759106 
L 768.587204 153.63656 
L 785.866214 153.63656 
L 785.866214 127.578932 
L 803.145223 127.578932 
L 803.145223 112.804631 
L 820.424233 112.804631 
L 820.424233 110.030553 
L 837.703242 110.030553 
L 837.703242 123.869772 
L 854.982252 123.869772 
L 854.982252 144.877956 
L 872.261261 144.877956 
L 872.261261 173.27329 
L 889.540271 173.27329 
L 889.540271 205.128428 
L 906.81928 205.128428 
L 906.81928 231.965292 
L 924.098289 231.965292 
L 924.098289 246.303221 
L 941.377299 246.303221 
L 941.377299 254.874809 
L 958.656308 254.874809 
L 958.656308 257.306024 
L 975.935318 257.306024 
L 975.935318 257.929412 
L 958.656308 257.929412 
L 958.656308 257.929412 
L 941.377299 257.929412 
L 941.377299 257.929412 
L 924.098289 257.929412 
L 924.098289 257.929412 
L 906.81928 257.929412 
L 906.81928 257.929412 
L 889.540271 257.929412 
L 889.540271 257.929412 
L 872.261261 257.929412 
L 872.261261 257.929412 
L 854.982252 257.929412 
L 854.982252 257.929412 
L 837.703242 257.929412 
L 837.703242 257.929412 
L 820.424233 257.929412 
L 820.424233 257.929412 
L 803.145223 257.929412 
L 803.145223 257.929412 
L 785.866214 257.929412 
L 785.866214 257.929412 
L 768.587204 257.929412 
L 768.587204 257.929412 
L 751.308195 257.929412 
L 751.308195 257.929412 
L 734.029186 257.929412 
L 734.029186 257.929412 
L 716.750176 257.929412 
L 716.750176 257.929412 
L 699.471167 257.929412 
L 699.471167 257.929412 
L 682.192157 257.929412 
L 682.192157 257.929412 
L 664.913148 257.929412 
L 664.913148 257.929412 
L 647.634138 257.929412 
L 647.634138 257.929412 
L 630.355129 257.929412 
L 630.355129 257.929412 
L 613.07612 257.929412 
L 613.07612 257.929412 
L 595.79711 257.929412 
L 595.79711 257.929412 
L 578.518101 257.929412 
L 578.518101 257.929412 
L 561.239091 257.929412 
L 561.239091 257.929412 
z
" style="fill:#a60628;opacity:0.85;"/>
   </g>
   <g id="LineCollection_1">
    <path clip-path="url(#p591cc09399)" d="M 819.288 257.929412 
L 819.288 94.568067 
" style="fill:none;stroke:#ffffff;stroke-dasharray:14.8,6.4;stroke-dashoffset:0;stroke-opacity:0.5;stroke-width:4;"/>
   </g>
   <g id="LineCollection_2">
    <path clip-path="url(#p591cc09399)" d="M 706.536 257.929412 
L 706.536 236.147899 
" style="fill:none;stroke:#000000;stroke-dasharray:14.8,6.4;stroke-dashoffset:0;stroke-opacity:0.5;stroke-width:4;"/>
   </g>
   <g id="LineCollection_3">
    <path clip-path="url(#p591cc09399)" d="M 913.248 257.929412 
L 913.248 236.147899 
" style="fill:none;stroke:#000000;stroke-dasharray:14.8,6.4;stroke-dashoffset:0;stroke-opacity:0.5;stroke-width:4;"/>
   </g>
   <g id="patch_4">
    <path d="M 86.4 257.929412 
L 86.4 86.4 
" style="fill:none;stroke:#f0f0f0;stroke-linecap:square;stroke-linejoin:miter;stroke-width:3;"/>
   </g>
   <g id="patch_5">
    <path d="M 1026 257.929412 
L 1026 86.4 
" style="fill:none;stroke:#f0f0f0;stroke-linecap:square;stroke-linejoin:miter;stroke-width:3;"/>
   </g>
   <g id="patch_6">
    <path d="M 86.4 257.929412 
L 1026 257.929412 
" style="fill:none;stroke:#f0f0f0;stroke-linecap:square;stroke-linejoin:miter;stroke-width:3;"/>
   </g>
   <g id="patch_7">
    <path d="M 86.4 86.4 
L 1026 86.4 
" style="fill:none;stroke:#f0f0f0;stroke-linecap:square;stroke-linejoin:miter;stroke-width:3;"/>
   </g>
   <g id="text_11">
    <!-- Playoffs  -->
    <defs>
     <path d="M 19.671875 64.796875 
L 19.671875 37.40625 
L 32.078125 37.40625 
Q 38.96875 37.40625 42.71875 40.96875 
Q 46.484375 44.53125 46.484375 51.125 
Q 46.484375 57.671875 42.71875 61.234375 
Q 38.96875 64.796875 32.078125 64.796875 
z
M 9.8125 72.90625 
L 32.078125 72.90625 
Q 44.34375 72.90625 50.609375 67.359375 
Q 56.890625 61.8125 56.890625 51.125 
Q 56.890625 40.328125 50.609375 34.8125 
Q 44.34375 29.296875 32.078125 29.296875 
L 19.671875 29.296875 
L 19.671875 0 
L 9.8125 0 
z
" id="DejaVuSans-80"/>
     <path d="M 9.421875 75.984375 
L 18.40625 75.984375 
L 18.40625 0 
L 9.421875 0 
z
" id="DejaVuSans-108"/>
     <path d="M 34.28125 27.484375 
Q 23.390625 27.484375 19.1875 25 
Q 14.984375 22.515625 14.984375 16.5 
Q 14.984375 11.71875 18.140625 8.90625 
Q 21.296875 6.109375 26.703125 6.109375 
Q 34.1875 6.109375 38.703125 11.40625 
Q 43.21875 16.703125 43.21875 25.484375 
L 43.21875 27.484375 
z
M 52.203125 31.203125 
L 52.203125 0 
L 43.21875 0 
L 43.21875 8.296875 
Q 40.140625 3.328125 35.546875 0.953125 
Q 30.953125 -1.421875 24.3125 -1.421875 
Q 15.921875 -1.421875 10.953125 3.296875 
Q 6 8.015625 6 15.921875 
Q 6 25.140625 12.171875 29.828125 
Q 18.359375 34.515625 30.609375 34.515625 
L 43.21875 34.515625 
L 43.21875 35.40625 
Q 43.21875 41.609375 39.140625 45 
Q 35.0625 48.390625 27.6875 48.390625 
Q 23 48.390625 18.546875 47.265625 
Q 14.109375 46.140625 10.015625 43.890625 
L 10.015625 52.203125 
Q 14.9375 54.109375 19.578125 55.046875 
Q 24.21875 56 28.609375 56 
Q 40.484375 56 46.34375 49.84375 
Q 52.203125 43.703125 52.203125 31.203125 
z
" id="DejaVuSans-97"/>
     <path d="M 32.171875 -5.078125 
Q 28.375 -14.84375 24.75 -17.8125 
Q 21.140625 -20.796875 15.09375 -20.796875 
L 7.90625 -20.796875 
L 7.90625 -13.28125 
L 13.1875 -13.28125 
Q 16.890625 -13.28125 18.9375 -11.515625 
Q 21 -9.765625 23.484375 -3.21875 
L 25.09375 0.875 
L 2.984375 54.6875 
L 12.5 54.6875 
L 29.59375 11.921875 
L 46.6875 54.6875 
L 56.203125 54.6875 
z
" id="DejaVuSans-121"/>
     <path d="M 30.609375 48.390625 
Q 23.390625 48.390625 19.1875 42.75 
Q 14.984375 37.109375 14.984375 27.296875 
Q 14.984375 17.484375 19.15625 11.84375 
Q 23.34375 6.203125 30.609375 6.203125 
Q 37.796875 6.203125 41.984375 11.859375 
Q 46.1875 17.53125 46.1875 27.296875 
Q 46.1875 37.015625 41.984375 42.703125 
Q 37.796875 48.390625 30.609375 48.390625 
z
M 30.609375 56 
Q 42.328125 56 49.015625 48.375 
Q 55.71875 40.765625 55.71875 27.296875 
Q 55.71875 13.875 49.015625 6.21875 
Q 42.328125 -1.421875 30.609375 -1.421875 
Q 18.84375 -1.421875 12.171875 6.21875 
Q 5.515625 13.875 5.515625 27.296875 
Q 5.515625 40.765625 12.171875 48.375 
Q 18.84375 56 30.609375 56 
z
" id="DejaVuSans-111"/>
     <path d="M 37.109375 75.984375 
L 37.109375 68.5 
L 28.515625 68.5 
Q 23.6875 68.5 21.796875 66.546875 
Q 19.921875 64.59375 19.921875 59.515625 
L 19.921875 54.6875 
L 34.71875 54.6875 
L 34.71875 47.703125 
L 19.921875 47.703125 
L 19.921875 0 
L 10.890625 0 
L 10.890625 47.703125 
L 2.296875 47.703125 
L 2.296875 54.6875 
L 10.890625 54.6875 
L 10.890625 58.5 
Q 10.890625 67.625 15.140625 71.796875 
Q 19.390625 75.984375 28.609375 75.984375 
z
" id="DejaVuSans-102"/>
     <path d="M 44.28125 53.078125 
L 44.28125 44.578125 
Q 40.484375 46.53125 36.375 47.5 
Q 32.28125 48.484375 27.875 48.484375 
Q 21.1875 48.484375 17.84375 46.4375 
Q 14.5 44.390625 14.5 40.28125 
Q 14.5 37.15625 16.890625 35.375 
Q 19.28125 33.59375 26.515625 31.984375 
L 29.59375 31.296875 
Q 39.15625 29.25 43.1875 25.515625 
Q 47.21875 21.78125 47.21875 15.09375 
Q 47.21875 7.46875 41.1875 3.015625 
Q 35.15625 -1.421875 24.609375 -1.421875 
Q 20.21875 -1.421875 15.453125 -0.5625 
Q 10.6875 0.296875 5.421875 2 
L 5.421875 11.28125 
Q 10.40625 8.6875 15.234375 7.390625 
Q 20.0625 6.109375 24.8125 6.109375 
Q 31.15625 6.109375 34.5625 8.28125 
Q 37.984375 10.453125 37.984375 14.40625 
Q 37.984375 18.0625 35.515625 20.015625 
Q 33.0625 21.96875 24.703125 23.78125 
L 21.578125 24.515625 
Q 13.234375 26.265625 9.515625 29.90625 
Q 5.8125 33.546875 5.8125 39.890625 
Q 5.8125 47.609375 11.28125 51.796875 
Q 16.75 56 26.8125 56 
Q 31.78125 56 36.171875 55.265625 
Q 40.578125 54.546875 44.28125 53.078125 
z
" id="DejaVuSans-115"/>
     <path id="DejaVuSans-32"/>
    </defs>
    <g transform="translate(513.459225 57.78111)scale(0.2016 -0.2016)">
     <use xlink:href="#DejaVuSans-80"/>
     <use x="60.302734" xlink:href="#DejaVuSans-108"/>
     <use x="88.085938" xlink:href="#DejaVuSans-97"/>
     <use x="149.365234" xlink:href="#DejaVuSans-121"/>
     <use x="208.544922" xlink:href="#DejaVuSans-111"/>
     <use x="269.726562" xlink:href="#DejaVuSans-102"/>
     <use x="304.931641" xlink:href="#DejaVuSans-102"/>
     <use x="340.136719" xlink:href="#DejaVuSans-115"/>
     <use x="392.236328" xlink:href="#DejaVuSans-32"/>
    </g>
    <!--  Posterior distributions of $p_A$, $p_B$, and delta unknowns -->
    <defs>
     <path d="M 18.3125 70.21875 
L 18.3125 54.6875 
L 36.8125 54.6875 
L 36.8125 47.703125 
L 18.3125 47.703125 
L 18.3125 18.015625 
Q 18.3125 11.328125 20.140625 9.421875 
Q 21.96875 7.515625 27.59375 7.515625 
L 36.8125 7.515625 
L 36.8125 0 
L 27.59375 0 
Q 17.1875 0 13.234375 3.875 
Q 9.28125 7.765625 9.28125 18.015625 
L 9.28125 47.703125 
L 2.6875 47.703125 
L 2.6875 54.6875 
L 9.28125 54.6875 
L 9.28125 70.21875 
z
" id="DejaVuSans-116"/>
     <path d="M 56.203125 29.59375 
L 56.203125 25.203125 
L 14.890625 25.203125 
Q 15.484375 15.921875 20.484375 11.0625 
Q 25.484375 6.203125 34.421875 6.203125 
Q 39.59375 6.203125 44.453125 7.46875 
Q 49.3125 8.734375 54.109375 11.28125 
L 54.109375 2.78125 
Q 49.265625 0.734375 44.1875 -0.34375 
Q 39.109375 -1.421875 33.890625 -1.421875 
Q 20.796875 -1.421875 13.15625 6.1875 
Q 5.515625 13.8125 5.515625 26.8125 
Q 5.515625 40.234375 12.765625 48.109375 
Q 20.015625 56 32.328125 56 
Q 43.359375 56 49.78125 48.890625 
Q 56.203125 41.796875 56.203125 29.59375 
z
M 47.21875 32.234375 
Q 47.125 39.59375 43.09375 43.984375 
Q 39.0625 48.390625 32.421875 48.390625 
Q 24.90625 48.390625 20.390625 44.140625 
Q 15.875 39.890625 15.1875 32.171875 
z
" id="DejaVuSans-101"/>
     <path d="M 41.109375 46.296875 
Q 39.59375 47.171875 37.8125 47.578125 
Q 36.03125 48 33.890625 48 
Q 26.265625 48 22.1875 43.046875 
Q 18.109375 38.09375 18.109375 28.8125 
L 18.109375 0 
L 9.078125 0 
L 9.078125 54.6875 
L 18.109375 54.6875 
L 18.109375 46.1875 
Q 20.953125 51.171875 25.484375 53.578125 
Q 30.03125 56 36.53125 56 
Q 37.453125 56 38.578125 55.875 
Q 39.703125 55.765625 41.0625 55.515625 
z
" id="DejaVuSans-114"/>
     <path d="M 9.421875 54.6875 
L 18.40625 54.6875 
L 18.40625 0 
L 9.421875 0 
z
M 9.421875 75.984375 
L 18.40625 75.984375 
L 18.40625 64.59375 
L 9.421875 64.59375 
z
" id="DejaVuSans-105"/>
     <path d="M 45.40625 46.390625 
L 45.40625 75.984375 
L 54.390625 75.984375 
L 54.390625 0 
L 45.40625 0 
L 45.40625 8.203125 
Q 42.578125 3.328125 38.25 0.953125 
Q 33.9375 -1.421875 27.875 -1.421875 
Q 17.96875 -1.421875 11.734375 6.484375 
Q 5.515625 14.40625 5.515625 27.296875 
Q 5.515625 40.1875 11.734375 48.09375 
Q 17.96875 56 27.875 56 
Q 33.9375 56 38.25 53.625 
Q 42.578125 51.265625 45.40625 46.390625 
z
M 14.796875 27.296875 
Q 14.796875 17.390625 18.875 11.75 
Q 22.953125 6.109375 30.078125 6.109375 
Q 37.203125 6.109375 41.296875 11.75 
Q 45.40625 17.390625 45.40625 27.296875 
Q 45.40625 37.203125 41.296875 42.84375 
Q 37.203125 48.484375 30.078125 48.484375 
Q 22.953125 48.484375 18.875 42.84375 
Q 14.796875 37.203125 14.796875 27.296875 
z
" id="DejaVuSans-100"/>
     <path d="M 48.6875 27.296875 
Q 48.6875 37.203125 44.609375 42.84375 
Q 40.53125 48.484375 33.40625 48.484375 
Q 26.265625 48.484375 22.1875 42.84375 
Q 18.109375 37.203125 18.109375 27.296875 
Q 18.109375 17.390625 22.1875 11.75 
Q 26.265625 6.109375 33.40625 6.109375 
Q 40.53125 6.109375 44.609375 11.75 
Q 48.6875 17.390625 48.6875 27.296875 
z
M 18.109375 46.390625 
Q 20.953125 51.265625 25.265625 53.625 
Q 29.59375 56 35.59375 56 
Q 45.5625 56 51.78125 48.09375 
Q 58.015625 40.1875 58.015625 27.296875 
Q 58.015625 14.40625 51.78125 6.484375 
Q 45.5625 -1.421875 35.59375 -1.421875 
Q 29.59375 -1.421875 25.265625 0.953125 
Q 20.953125 3.328125 18.109375 8.203125 
L 18.109375 0 
L 9.078125 0 
L 9.078125 75.984375 
L 18.109375 75.984375 
z
" id="DejaVuSans-98"/>
     <path d="M 8.5 21.578125 
L 8.5 54.6875 
L 17.484375 54.6875 
L 17.484375 21.921875 
Q 17.484375 14.15625 20.5 10.265625 
Q 23.53125 6.390625 29.59375 6.390625 
Q 36.859375 6.390625 41.078125 11.03125 
Q 45.3125 15.671875 45.3125 23.6875 
L 45.3125 54.6875 
L 54.296875 54.6875 
L 54.296875 0 
L 45.3125 0 
L 45.3125 8.40625 
Q 42.046875 3.421875 37.71875 1 
Q 33.40625 -1.421875 27.6875 -1.421875 
Q 18.265625 -1.421875 13.375 4.4375 
Q 8.5 10.296875 8.5 21.578125 
z
M 31.109375 56 
z
" id="DejaVuSans-117"/>
     <path d="M 54.890625 33.015625 
L 54.890625 0 
L 45.90625 0 
L 45.90625 32.71875 
Q 45.90625 40.484375 42.875 44.328125 
Q 39.84375 48.1875 33.796875 48.1875 
Q 26.515625 48.1875 22.3125 43.546875 
Q 18.109375 38.921875 18.109375 30.90625 
L 18.109375 0 
L 9.078125 0 
L 9.078125 54.6875 
L 18.109375 54.6875 
L 18.109375 46.1875 
Q 21.34375 51.125 25.703125 53.5625 
Q 30.078125 56 35.796875 56 
Q 45.21875 56 50.046875 50.171875 
Q 54.890625 44.34375 54.890625 33.015625 
z
" id="DejaVuSans-110"/>
     <path d="M 49.609375 33.6875 
Q 49.609375 40.875 46.484375 44.671875 
Q 43.359375 48.484375 37.5 48.484375 
Q 33.5 48.484375 29.859375 46.4375 
Q 26.21875 44.390625 23.390625 40.484375 
Q 20.609375 36.625 18.9375 31.15625 
Q 17.28125 25.6875 17.28125 20.3125 
Q 17.28125 13.484375 20.40625 9.796875 
Q 23.53125 6.109375 29.296875 6.109375 
Q 33.546875 6.109375 37.1875 8.109375 
Q 40.828125 10.109375 43.40625 13.921875 
Q 46.1875 17.921875 47.890625 23.34375 
Q 49.609375 28.765625 49.609375 33.6875 
z
M 21.78125 46.390625 
Q 25.390625 51.125 30.296875 53.5625 
Q 35.203125 56 41.21875 56 
Q 49.609375 56 54.25 50.5 
Q 58.890625 45.015625 58.890625 35.109375 
Q 58.890625 27 56 19.65625 
Q 53.125 12.3125 47.703125 6.5 
Q 44.09375 2.640625 39.546875 0.609375 
Q 35.015625 -1.421875 29.984375 -1.421875 
Q 24.171875 -1.421875 20.21875 1 
Q 16.265625 3.421875 14.3125 8.203125 
L 8.6875 -20.796875 
L -0.296875 -20.796875 
L 14.40625 54.6875 
L 23.390625 54.6875 
z
" id="DejaVuSans-Oblique-112"/>
     <path d="M 36.8125 72.90625 
L 48 72.90625 
L 61.53125 0 
L 51.21875 0 
L 48.1875 18.703125 
L 15.375 18.703125 
L 5.078125 0 
L -5.328125 0 
z
M 40.375 63.1875 
L 19.921875 26.90625 
L 46.6875 26.90625 
z
" id="DejaVuSans-Oblique-65"/>
     <path d="M 11.71875 12.40625 
L 22.015625 12.40625 
L 22.015625 4 
L 14.015625 -11.625 
L 7.71875 -11.625 
L 11.71875 4 
z
" id="DejaVuSans-44"/>
     <path d="M 16.890625 72.90625 
L 42.09375 72.90625 
Q 52.34375 72.90625 57.421875 69.09375 
Q 62.5 65.28125 62.5 57.625 
Q 62.5 50.59375 58.125 45.484375 
Q 53.765625 40.375 46.6875 39.3125 
Q 52.734375 37.9375 55.765625 34.078125 
Q 58.796875 30.21875 58.796875 23.78125 
Q 58.796875 12.796875 50.65625 6.390625 
Q 42.53125 0 28.421875 0 
L 2.6875 0 
z
M 19.28125 34.8125 
L 14.109375 8.109375 
L 29.984375 8.109375 
Q 38.921875 8.109375 43.75 12.203125 
Q 48.578125 16.3125 48.578125 23.78125 
Q 48.578125 29.546875 45.375 32.171875 
Q 42.1875 34.8125 35.109375 34.8125 
z
M 25.09375 64.796875 
L 20.796875 42.828125 
L 35.5 42.828125 
Q 43.359375 42.828125 47.78125 46.234375 
Q 52.203125 49.65625 52.203125 55.71875 
Q 52.203125 60.453125 49.21875 62.625 
Q 46.234375 64.796875 39.703125 64.796875 
z
" id="DejaVuSans-Oblique-66"/>
     <path d="M 9.078125 75.984375 
L 18.109375 75.984375 
L 18.109375 31.109375 
L 44.921875 54.6875 
L 56.390625 54.6875 
L 27.390625 29.109375 
L 57.625 0 
L 45.90625 0 
L 18.109375 26.703125 
L 18.109375 0 
L 9.078125 0 
z
" id="DejaVuSans-107"/>
     <path d="M 4.203125 54.6875 
L 13.1875 54.6875 
L 24.421875 12.015625 
L 35.59375 54.6875 
L 46.1875 54.6875 
L 57.421875 12.015625 
L 68.609375 54.6875 
L 77.59375 54.6875 
L 63.28125 0 
L 52.6875 0 
L 40.921875 44.828125 
L 29.109375 0 
L 18.5 0 
z
" id="DejaVuSans-119"/>
    </defs>
    <g transform="translate(288.2736 80.35968)scale(0.2016 -0.2016)">
     <use transform="translate(0 0.015625)" xlink:href="#DejaVuSans-32"/>
     <use transform="translate(31.787109 0.015625)" xlink:href="#DejaVuSans-80"/>
     <use transform="translate(92.089844 0.015625)" xlink:href="#DejaVuSans-111"/>
     <use transform="translate(153.271484 0.015625)" xlink:href="#DejaVuSans-115"/>
     <use transform="translate(205.371094 0.015625)" xlink:href="#DejaVuSans-116"/>
     <use transform="translate(244.580078 0.015625)" xlink:href="#DejaVuSans-101"/>
     <use transform="translate(306.103516 0.015625)" xlink:href="#DejaVuSans-114"/>
     <use transform="translate(347.216797 0.015625)" xlink:href="#DejaVuSans-105"/>
     <use transform="translate(375 0.015625)" xlink:href="#DejaVuSans-111"/>
     <use transform="translate(436.181641 0.015625)" xlink:href="#DejaVuSans-114"/>
     <use transform="translate(477.294922 0.015625)" xlink:href="#DejaVuSans-32"/>
     <use transform="translate(509.082031 0.015625)" xlink:href="#DejaVuSans-100"/>
     <use transform="translate(572.558594 0.015625)" xlink:href="#DejaVuSans-105"/>
     <use transform="translate(600.341797 0.015625)" xlink:href="#DejaVuSans-115"/>
     <use transform="translate(652.441406 0.015625)" xlink:href="#DejaVuSans-116"/>
     <use transform="translate(691.650391 0.015625)" xlink:href="#DejaVuSans-114"/>
     <use transform="translate(732.763672 0.015625)" xlink:href="#DejaVuSans-105"/>
     <use transform="translate(760.546875 0.015625)" xlink:href="#DejaVuSans-98"/>
     <use transform="translate(824.023438 0.015625)" xlink:href="#DejaVuSans-117"/>
     <use transform="translate(887.402344 0.015625)" xlink:href="#DejaVuSans-116"/>
     <use transform="translate(926.611328 0.015625)" xlink:href="#DejaVuSans-105"/>
     <use transform="translate(954.394531 0.015625)" xlink:href="#DejaVuSans-111"/>
     <use transform="translate(1015.576172 0.015625)" xlink:href="#DejaVuSans-110"/>
     <use transform="translate(1078.955078 0.015625)" xlink:href="#DejaVuSans-115"/>
     <use transform="translate(1131.054688 0.015625)" xlink:href="#DejaVuSans-32"/>
     <use transform="translate(1162.841797 0.015625)" xlink:href="#DejaVuSans-111"/>
     <use transform="translate(1224.023438 0.015625)" xlink:href="#DejaVuSans-102"/>
     <use transform="translate(1259.228516 0.015625)" xlink:href="#DejaVuSans-32"/>
     <use transform="translate(1291.015625 0.015625)" xlink:href="#DejaVuSans-Oblique-112"/>
     <use transform="translate(1354.492188 -16.390625)scale(0.7)" xlink:href="#DejaVuSans-Oblique-65"/>
     <use transform="translate(1405.112305 0.015625)" xlink:href="#DejaVuSans-44"/>
     <use transform="translate(1436.899414 0.015625)" xlink:href="#DejaVuSans-32"/>
     <use transform="translate(1468.686523 0.015625)" xlink:href="#DejaVuSans-Oblique-112"/>
     <use transform="translate(1532.163086 -16.390625)scale(0.7)" xlink:href="#DejaVuSans-Oblique-66"/>
     <use transform="translate(1582.919922 0.015625)" xlink:href="#DejaVuSans-44"/>
     <use transform="translate(1614.707031 0.015625)" xlink:href="#DejaVuSans-32"/>
     <use transform="translate(1646.494141 0.015625)" xlink:href="#DejaVuSans-97"/>
     <use transform="translate(1707.773438 0.015625)" xlink:href="#DejaVuSans-110"/>
     <use transform="translate(1771.152344 0.015625)" xlink:href="#DejaVuSans-100"/>
     <use transform="translate(1834.628906 0.015625)" xlink:href="#DejaVuSans-32"/>
     <use transform="translate(1866.416016 0.015625)" xlink:href="#DejaVuSans-100"/>
     <use transform="translate(1929.892578 0.015625)" xlink:href="#DejaVuSans-101"/>
     <use transform="translate(1991.416016 0.015625)" xlink:href="#DejaVuSans-108"/>
     <use transform="translate(2019.199219 0.015625)" xlink:href="#DejaVuSans-116"/>
     <use transform="translate(2058.408203 0.015625)" xlink:href="#DejaVuSans-97"/>
     <use transform="translate(2119.6875 0.015625)" xlink:href="#DejaVuSans-32"/>
     <use transform="translate(2151.474609 0.015625)" xlink:href="#DejaVuSans-117"/>
     <use transform="translate(2214.853516 0.015625)" xlink:href="#DejaVuSans-110"/>
     <use transform="translate(2278.232422 0.015625)" xlink:href="#DejaVuSans-107"/>
     <use transform="translate(2336.142578 0.015625)" xlink:href="#DejaVuSans-110"/>
     <use transform="translate(2399.521484 0.015625)" xlink:href="#DejaVuSans-111"/>
     <use transform="translate(2460.703125 0.015625)" xlink:href="#DejaVuSans-119"/>
     <use transform="translate(2542.490234 0.015625)" xlink:href="#DejaVuSans-110"/>
     <use transform="translate(2605.869141 0.015625)" xlink:href="#DejaVuSans-115"/>
    </g>
   </g>
   <g id="legend_1">
    <g id="patch_8">
     <path d="M 870.18 179.828125 
L 1016.2 179.828125 
Q 1019 179.828125 1019 177.028125 
L 1019 96.2 
Q 1019 93.4 1016.2 93.4 
L 870.18 93.4 
Q 867.38 93.4 867.38 96.2 
L 867.38 177.028125 
Q 867.38 179.828125 870.18 179.828125 
z
" style="fill:#f0f0f0;opacity:0.8;stroke:#cccccc;stroke-linejoin:miter;stroke-width:0.5;"/>
    </g>
    <g id="patch_9">
     <path d="M 872.98 109.64 
L 900.98 109.64 
L 900.98 99.84 
L 872.98 99.84 
z
" style="fill:#a60628;opacity:0.85;"/>
    </g>
    <g id="text_12">
     <!-- posterior of $p_A$ -->
     <defs>
      <path d="M 18.109375 8.203125 
L 18.109375 -20.796875 
L 9.078125 -20.796875 
L 9.078125 54.6875 
L 18.109375 54.6875 
L 18.109375 46.390625 
Q 20.953125 51.265625 25.265625 53.625 
Q 29.59375 56 35.59375 56 
Q 45.5625 56 51.78125 48.09375 
Q 58.015625 40.1875 58.015625 27.296875 
Q 58.015625 14.40625 51.78125 6.484375 
Q 45.5625 -1.421875 35.59375 -1.421875 
Q 29.59375 -1.421875 25.265625 0.953125 
Q 20.953125 3.328125 18.109375 8.203125 
z
M 48.6875 27.296875 
Q 48.6875 37.203125 44.609375 42.84375 
Q 40.53125 48.484375 33.40625 48.484375 
Q 26.265625 48.484375 22.1875 42.84375 
Q 18.109375 37.203125 18.109375 27.296875 
Q 18.109375 17.390625 22.1875 11.75 
Q 26.265625 6.109375 33.40625 6.109375 
Q 40.53125 6.109375 44.609375 11.75 
Q 48.6875 17.390625 48.6875 27.296875 
z
" id="DejaVuSans-112"/>
     </defs>
     <g transform="translate(912.18 109.64)scale(0.14 -0.14)">
      <use transform="translate(0 0.015625)" xlink:href="#DejaVuSans-112"/>
      <use transform="translate(63.476562 0.015625)" xlink:href="#DejaVuSans-111"/>
      <use transform="translate(124.658203 0.015625)" xlink:href="#DejaVuSans-115"/>
      <use transform="translate(176.757812 0.015625)" xlink:href="#DejaVuSans-116"/>
      <use transform="translate(215.966797 0.015625)" xlink:href="#DejaVuSans-101"/>
      <use transform="translate(277.490234 0.015625)" xlink:href="#DejaVuSans-114"/>
      <use transform="translate(318.603516 0.015625)" xlink:href="#DejaVuSans-105"/>
      <use transform="translate(346.386719 0.015625)" xlink:href="#DejaVuSans-111"/>
      <use transform="translate(407.568359 0.015625)" xlink:href="#DejaVuSans-114"/>
      <use transform="translate(448.681641 0.015625)" xlink:href="#DejaVuSans-32"/>
      <use transform="translate(480.46875 0.015625)" xlink:href="#DejaVuSans-111"/>
      <use transform="translate(541.650391 0.015625)" xlink:href="#DejaVuSans-102"/>
      <use transform="translate(576.855469 0.015625)" xlink:href="#DejaVuSans-32"/>
      <use transform="translate(608.642578 0.015625)" xlink:href="#DejaVuSans-Oblique-112"/>
      <use transform="translate(672.119141 -16.390625)scale(0.7)" xlink:href="#DejaVuSans-Oblique-65"/>
     </g>
    </g>
    <g id="line2d_21">
     <path d="M 872.98 125.317813 
L 900.98 125.317813 
" style="fill:none;stroke:#ffffff;stroke-dasharray:14.8,6.4;stroke-dashoffset:0;stroke-opacity:0.5;stroke-width:4;"/>
    </g>
    <g id="text_13">
     <!-- mean delta -->
     <defs>
      <path d="M 52 44.1875 
Q 55.375 50.25 60.0625 53.125 
Q 64.75 56 71.09375 56 
Q 79.640625 56 84.28125 50.015625 
Q 88.921875 44.046875 88.921875 33.015625 
L 88.921875 0 
L 79.890625 0 
L 79.890625 32.71875 
Q 79.890625 40.578125 77.09375 44.375 
Q 74.3125 48.1875 68.609375 48.1875 
Q 61.625 48.1875 57.5625 43.546875 
Q 53.515625 38.921875 53.515625 30.90625 
L 53.515625 0 
L 44.484375 0 
L 44.484375 32.71875 
Q 44.484375 40.625 41.703125 44.40625 
Q 38.921875 48.1875 33.109375 48.1875 
Q 26.21875 48.1875 22.15625 43.53125 
Q 18.109375 38.875 18.109375 30.90625 
L 18.109375 0 
L 9.078125 0 
L 9.078125 54.6875 
L 18.109375 54.6875 
L 18.109375 46.1875 
Q 21.1875 51.21875 25.484375 53.609375 
Q 29.78125 56 35.6875 56 
Q 41.65625 56 45.828125 52.96875 
Q 50 49.953125 52 44.1875 
z
" id="DejaVuSans-109"/>
     </defs>
     <g transform="translate(912.18 130.217813)scale(0.14 -0.14)">
      <use xlink:href="#DejaVuSans-109"/>
      <use x="97.412109" xlink:href="#DejaVuSans-101"/>
      <use x="158.935547" xlink:href="#DejaVuSans-97"/>
      <use x="220.214844" xlink:href="#DejaVuSans-110"/>
      <use x="283.59375" xlink:href="#DejaVuSans-32"/>
      <use x="315.380859" xlink:href="#DejaVuSans-100"/>
      <use x="378.857422" xlink:href="#DejaVuSans-101"/>
      <use x="440.380859" xlink:href="#DejaVuSans-108"/>
      <use x="468.164062" xlink:href="#DejaVuSans-116"/>
      <use x="507.373047" xlink:href="#DejaVuSans-97"/>
     </g>
    </g>
    <g id="line2d_22">
     <path d="M 872.98 145.867187 
L 900.98 145.867187 
" style="fill:none;stroke:#000000;stroke-dasharray:14.8,6.4;stroke-dashoffset:0;stroke-opacity:0.5;stroke-width:4;"/>
    </g>
    <g id="text_14">
     <!-- 2.5% -->
     <defs>
      <path d="M 10.796875 72.90625 
L 49.515625 72.90625 
L 49.515625 64.59375 
L 19.828125 64.59375 
L 19.828125 46.734375 
Q 21.96875 47.46875 24.109375 47.828125 
Q 26.265625 48.1875 28.421875 48.1875 
Q 40.625 48.1875 47.75 41.5 
Q 54.890625 34.8125 54.890625 23.390625 
Q 54.890625 11.625 47.5625 5.09375 
Q 40.234375 -1.421875 26.90625 -1.421875 
Q 22.3125 -1.421875 17.546875 -0.640625 
Q 12.796875 0.140625 7.71875 1.703125 
L 7.71875 11.625 
Q 12.109375 9.234375 16.796875 8.0625 
Q 21.484375 6.890625 26.703125 6.890625 
Q 35.15625 6.890625 40.078125 11.328125 
Q 45.015625 15.765625 45.015625 23.390625 
Q 45.015625 31 40.078125 35.4375 
Q 35.15625 39.890625 26.703125 39.890625 
Q 22.75 39.890625 18.8125 39.015625 
Q 14.890625 38.140625 10.796875 36.28125 
z
" id="DejaVuSans-53"/>
      <path d="M 72.703125 32.078125 
Q 68.453125 32.078125 66.03125 28.46875 
Q 63.625 24.859375 63.625 18.40625 
Q 63.625 12.0625 66.03125 8.421875 
Q 68.453125 4.78125 72.703125 4.78125 
Q 76.859375 4.78125 79.265625 8.421875 
Q 81.6875 12.0625 81.6875 18.40625 
Q 81.6875 24.8125 79.265625 28.4375 
Q 76.859375 32.078125 72.703125 32.078125 
z
M 72.703125 38.28125 
Q 80.421875 38.28125 84.953125 32.90625 
Q 89.5 27.546875 89.5 18.40625 
Q 89.5 9.28125 84.9375 3.921875 
Q 80.375 -1.421875 72.703125 -1.421875 
Q 64.890625 -1.421875 60.34375 3.921875 
Q 55.8125 9.28125 55.8125 18.40625 
Q 55.8125 27.59375 60.375 32.9375 
Q 64.9375 38.28125 72.703125 38.28125 
z
M 22.3125 68.015625 
Q 18.109375 68.015625 15.6875 64.375 
Q 13.28125 60.75 13.28125 54.390625 
Q 13.28125 47.953125 15.671875 44.328125 
Q 18.0625 40.71875 22.3125 40.71875 
Q 26.5625 40.71875 28.96875 44.328125 
Q 31.390625 47.953125 31.390625 54.390625 
Q 31.390625 60.6875 28.953125 64.34375 
Q 26.515625 68.015625 22.3125 68.015625 
z
M 66.40625 74.21875 
L 74.21875 74.21875 
L 28.609375 -1.421875 
L 20.796875 -1.421875 
z
M 22.3125 74.21875 
Q 30.03125 74.21875 34.609375 68.875 
Q 39.203125 63.53125 39.203125 54.390625 
Q 39.203125 45.171875 34.640625 39.84375 
Q 30.078125 34.515625 22.3125 34.515625 
Q 14.546875 34.515625 10.03125 39.859375 
Q 5.515625 45.21875 5.515625 54.390625 
Q 5.515625 63.484375 10.046875 68.84375 
Q 14.59375 74.21875 22.3125 74.21875 
z
" id="DejaVuSans-37"/>
     </defs>
     <g transform="translate(912.18 150.767187)scale(0.14 -0.14)">
      <use xlink:href="#DejaVuSans-50"/>
      <use x="63.623047" xlink:href="#DejaVuSans-46"/>
      <use x="95.410156" xlink:href="#DejaVuSans-53"/>
      <use x="159.033203" xlink:href="#DejaVuSans-37"/>
     </g>
    </g>
    <g id="line2d_23">
     <path d="M 872.98 166.416563 
L 900.98 166.416563 
" style="fill:none;stroke:#000000;stroke-dasharray:14.8,6.4;stroke-dashoffset:0;stroke-opacity:0.5;stroke-width:4;"/>
    </g>
    <g id="text_15">
     <!-- 97.5% -->
     <defs>
      <path d="M 10.984375 1.515625 
L 10.984375 10.5 
Q 14.703125 8.734375 18.5 7.8125 
Q 22.3125 6.890625 25.984375 6.890625 
Q 35.75 6.890625 40.890625 13.453125 
Q 46.046875 20.015625 46.78125 33.40625 
Q 43.953125 29.203125 39.59375 26.953125 
Q 35.25 24.703125 29.984375 24.703125 
Q 19.046875 24.703125 12.671875 31.3125 
Q 6.296875 37.9375 6.296875 49.421875 
Q 6.296875 60.640625 12.9375 67.421875 
Q 19.578125 74.21875 30.609375 74.21875 
Q 43.265625 74.21875 49.921875 64.515625 
Q 56.59375 54.828125 56.59375 36.375 
Q 56.59375 19.140625 48.40625 8.859375 
Q 40.234375 -1.421875 26.421875 -1.421875 
Q 22.703125 -1.421875 18.890625 -0.6875 
Q 15.09375 0.046875 10.984375 1.515625 
z
M 30.609375 32.421875 
Q 37.25 32.421875 41.125 36.953125 
Q 45.015625 41.5 45.015625 49.421875 
Q 45.015625 57.28125 41.125 61.84375 
Q 37.25 66.40625 30.609375 66.40625 
Q 23.96875 66.40625 20.09375 61.84375 
Q 16.21875 57.28125 16.21875 49.421875 
Q 16.21875 41.5 20.09375 36.953125 
Q 23.96875 32.421875 30.609375 32.421875 
z
" id="DejaVuSans-57"/>
      <path d="M 8.203125 72.90625 
L 55.078125 72.90625 
L 55.078125 68.703125 
L 28.609375 0 
L 18.3125 0 
L 43.21875 64.59375 
L 8.203125 64.59375 
z
" id="DejaVuSans-55"/>
     </defs>
     <g transform="translate(912.18 171.316563)scale(0.14 -0.14)">
      <use xlink:href="#DejaVuSans-57"/>
      <use x="63.623047" xlink:href="#DejaVuSans-55"/>
      <use x="127.246094" xlink:href="#DejaVuSans-46"/>
      <use x="159.033203" xlink:href="#DejaVuSans-53"/>
      <use x="222.65625" xlink:href="#DejaVuSans-37"/>
     </g>
    </g>
   </g>
  </g>
  <g id="axes_2">
   <g id="patch_10">
    <path d="M 86.4 463.764706 
L 1026 463.764706 
L 1026 292.235294 
L 86.4 292.235294 
z
" style="fill:#f0f0f0;"/>
   </g>
   <g id="matplotlib.axis_3">
    <g id="xtick_7">
     <g id="line2d_24">
      <path clip-path="url(#pa72f62cb3e)" d="M 86.4 463.764706 
L 86.4 292.235294 
" style="fill:none;stroke:#cbcbcb;"/>
     </g>
     <g id="line2d_25"/>
     <g id="text_16">
      <!-- 0.0 -->
      <g transform="translate(75.267813 477.902518)scale(0.14 -0.14)">
       <use xlink:href="#DejaVuSans-48"/>
       <use x="63.623047" xlink:href="#DejaVuSans-46"/>
       <use x="95.410156" xlink:href="#DejaVuSans-48"/>
      </g>
     </g>
    </g>
    <g id="xtick_8">
     <g id="line2d_26">
      <path clip-path="url(#pa72f62cb3e)" d="M 274.32 463.764706 
L 274.32 292.235294 
" style="fill:none;stroke:#cbcbcb;"/>
     </g>
     <g id="line2d_27"/>
     <g id="text_17">
      <!-- 0.2 -->
      <g transform="translate(263.187813 477.902518)scale(0.14 -0.14)">
       <use xlink:href="#DejaVuSans-48"/>
       <use x="63.623047" xlink:href="#DejaVuSans-46"/>
       <use x="95.410156" xlink:href="#DejaVuSans-50"/>
      </g>
     </g>
    </g>
    <g id="xtick_9">
     <g id="line2d_28">
      <path clip-path="url(#pa72f62cb3e)" d="M 462.24 463.764706 
L 462.24 292.235294 
" style="fill:none;stroke:#cbcbcb;"/>
     </g>
     <g id="line2d_29"/>
     <g id="text_18">
      <!-- 0.4 -->
      <g transform="translate(451.107813 477.902518)scale(0.14 -0.14)">
       <use xlink:href="#DejaVuSans-48"/>
       <use x="63.623047" xlink:href="#DejaVuSans-46"/>
       <use x="95.410156" xlink:href="#DejaVuSans-52"/>
      </g>
     </g>
    </g>
    <g id="xtick_10">
     <g id="line2d_30">
      <path clip-path="url(#pa72f62cb3e)" d="M 650.16 463.764706 
L 650.16 292.235294 
" style="fill:none;stroke:#cbcbcb;"/>
     </g>
     <g id="line2d_31"/>
     <g id="text_19">
      <!-- 0.6 -->
      <g transform="translate(639.027813 477.902518)scale(0.14 -0.14)">
       <use xlink:href="#DejaVuSans-48"/>
       <use x="63.623047" xlink:href="#DejaVuSans-46"/>
       <use x="95.410156" xlink:href="#DejaVuSans-54"/>
      </g>
     </g>
    </g>
    <g id="xtick_11">
     <g id="line2d_32">
      <path clip-path="url(#pa72f62cb3e)" d="M 838.08 463.764706 
L 838.08 292.235294 
" style="fill:none;stroke:#cbcbcb;"/>
     </g>
     <g id="line2d_33"/>
     <g id="text_20">
      <!-- 0.8 -->
      <g transform="translate(826.947813 477.902518)scale(0.14 -0.14)">
       <use xlink:href="#DejaVuSans-48"/>
       <use x="63.623047" xlink:href="#DejaVuSans-46"/>
       <use x="95.410156" xlink:href="#DejaVuSans-56"/>
      </g>
     </g>
    </g>
    <g id="xtick_12">
     <g id="line2d_34">
      <path clip-path="url(#pa72f62cb3e)" d="M 1026 463.764706 
L 1026 292.235294 
" style="fill:none;stroke:#cbcbcb;"/>
     </g>
     <g id="line2d_35"/>
     <g id="text_21">
      <!-- 1.0 -->
      <g transform="translate(1014.867813 477.902518)scale(0.14 -0.14)">
       <use xlink:href="#DejaVuSans-49"/>
       <use x="63.623047" xlink:href="#DejaVuSans-46"/>
       <use x="95.410156" xlink:href="#DejaVuSans-48"/>
      </g>
     </g>
    </g>
   </g>
   <g id="matplotlib.axis_4">
    <g id="ytick_5">
     <g id="line2d_36">
      <path clip-path="url(#pa72f62cb3e)" d="M 86.4 463.764706 
L 1026 463.764706 
" style="fill:none;stroke:#cbcbcb;"/>
     </g>
     <g id="line2d_37"/>
     <g id="text_22">
      <!-- 0 -->
      <g transform="translate(73.9925 469.083612)scale(0.14 -0.14)">
       <use xlink:href="#DejaVuSans-48"/>
      </g>
     </g>
    </g>
    <g id="ytick_6">
     <g id="line2d_38">
      <path clip-path="url(#pa72f62cb3e)" d="M 86.4 411.465223 
L 1026 411.465223 
" style="fill:none;stroke:#cbcbcb;"/>
     </g>
     <g id="line2d_39"/>
     <g id="text_23">
      <!-- 1 -->
      <g transform="translate(73.9925 416.784129)scale(0.14 -0.14)">
       <use xlink:href="#DejaVuSans-49"/>
      </g>
     </g>
    </g>
    <g id="ytick_7">
     <g id="line2d_40">
      <path clip-path="url(#pa72f62cb3e)" d="M 86.4 359.16574 
L 1026 359.16574 
" style="fill:none;stroke:#cbcbcb;"/>
     </g>
     <g id="line2d_41"/>
     <g id="text_24">
      <!-- 2 -->
      <g transform="translate(73.9925 364.484646)scale(0.14 -0.14)">
       <use xlink:href="#DejaVuSans-50"/>
      </g>
     </g>
    </g>
    <g id="ytick_8">
     <g id="line2d_42">
      <path clip-path="url(#pa72f62cb3e)" d="M 86.4 306.866257 
L 1026 306.866257 
" style="fill:none;stroke:#cbcbcb;"/>
     </g>
     <g id="line2d_43"/>
     <g id="text_25">
      <!-- 3 -->
      <defs>
       <path d="M 40.578125 39.3125 
Q 47.65625 37.796875 51.625 33 
Q 55.609375 28.21875 55.609375 21.1875 
Q 55.609375 10.40625 48.1875 4.484375 
Q 40.765625 -1.421875 27.09375 -1.421875 
Q 22.515625 -1.421875 17.65625 -0.515625 
Q 12.796875 0.390625 7.625 2.203125 
L 7.625 11.71875 
Q 11.71875 9.328125 16.59375 8.109375 
Q 21.484375 6.890625 26.8125 6.890625 
Q 36.078125 6.890625 40.9375 10.546875 
Q 45.796875 14.203125 45.796875 21.1875 
Q 45.796875 27.640625 41.28125 31.265625 
Q 36.765625 34.90625 28.71875 34.90625 
L 20.21875 34.90625 
L 20.21875 43.015625 
L 29.109375 43.015625 
Q 36.375 43.015625 40.234375 45.921875 
Q 44.09375 48.828125 44.09375 54.296875 
Q 44.09375 59.90625 40.109375 62.90625 
Q 36.140625 65.921875 28.71875 65.921875 
Q 24.65625 65.921875 20.015625 65.03125 
Q 15.375 64.15625 9.8125 62.3125 
L 9.8125 71.09375 
Q 15.4375 72.65625 20.34375 73.4375 
Q 25.25 74.21875 29.59375 74.21875 
Q 40.828125 74.21875 47.359375 69.109375 
Q 53.90625 64.015625 53.90625 55.328125 
Q 53.90625 49.265625 50.4375 45.09375 
Q 46.96875 40.921875 40.578125 39.3125 
z
" id="DejaVuSans-51"/>
      </defs>
      <g transform="translate(73.9925 312.185163)scale(0.14 -0.14)">
       <use xlink:href="#DejaVuSans-51"/>
      </g>
     </g>
    </g>
   </g>
   <g id="patch_11">
    <path clip-path="url(#pa72f62cb3e)" d="M 181.317978 463.764706 
L 181.317978 463.725502 
L 214.304081 463.725502 
L 214.304081 463.725502 
L 247.290183 463.725502 
L 247.290183 463.725502 
L 280.276286 463.725502 
L 280.276286 463.568688 
L 313.262389 463.568688 
L 313.262389 463.019838 
L 346.248492 463.019838 
L 346.248492 461.922137 
L 379.234595 461.922137 
L 379.234595 459.609126 
L 412.220698 459.609126 
L 412.220698 455.022306 
L 445.206801 455.022306 
L 445.206801 449.416193 
L 478.192903 449.416193 
L 478.192903 440.830608 
L 511.179006 440.830608 
L 511.179006 428.599089 
L 544.165109 428.599089 
L 544.165109 409.15411 
L 577.151212 409.15411 
L 577.151212 389.709131 
L 610.137315 389.709131 
L 610.137315 367.794326 
L 643.123418 367.794326 
L 643.123418 341.841552 
L 676.10952 341.841552 
L 676.10952 329.100387 
L 709.095623 329.100387 
L 709.095623 307.146378 
L 742.081726 307.146378 
L 742.081726 300.403361 
L 775.067829 300.403361 
L 775.067829 300.442565 
L 808.053932 300.442565 
L 808.053932 317.417718 
L 841.040035 317.417718 
L 841.040035 344.703414 
L 874.026138 344.703414 
L 874.026138 374.929379 
L 907.01224 374.929379 
L 907.01224 408.644463 
L 939.998343 408.644463 
L 939.998343 440.673793 
L 972.984446 440.673793 
L 972.984446 459.256293 
L 1005.970549 459.256293 
L 1005.970549 463.764706 
L 972.984446 463.764706 
L 972.984446 463.764706 
L 939.998343 463.764706 
L 939.998343 463.764706 
L 907.01224 463.764706 
L 907.01224 463.764706 
L 874.026138 463.764706 
L 874.026138 463.764706 
L 841.040035 463.764706 
L 841.040035 463.764706 
L 808.053932 463.764706 
L 808.053932 463.764706 
L 775.067829 463.764706 
L 775.067829 463.764706 
L 742.081726 463.764706 
L 742.081726 463.764706 
L 709.095623 463.764706 
L 709.095623 463.764706 
L 676.10952 463.764706 
L 676.10952 463.764706 
L 643.123418 463.764706 
L 643.123418 463.764706 
L 610.137315 463.764706 
L 610.137315 463.764706 
L 577.151212 463.764706 
L 577.151212 463.764706 
L 544.165109 463.764706 
L 544.165109 463.764706 
L 511.179006 463.764706 
L 511.179006 463.764706 
L 478.192903 463.764706 
L 478.192903 463.764706 
L 445.206801 463.764706 
L 445.206801 463.764706 
L 412.220698 463.764706 
L 412.220698 463.764706 
L 379.234595 463.764706 
L 379.234595 463.764706 
L 346.248492 463.764706 
L 346.248492 463.764706 
L 313.262389 463.764706 
L 313.262389 463.764706 
L 280.276286 463.764706 
L 280.276286 463.764706 
L 247.290183 463.764706 
L 247.290183 463.764706 
L 214.304081 463.764706 
L 214.304081 463.764706 
z
" style="fill:#467821;opacity:0.85;"/>
   </g>
   <g id="LineCollection_4">
    <path clip-path="url(#pa72f62cb3e)" d="M 734.724 463.764706 
L 734.724 306.866257 
" style="fill:none;stroke:#ffffff;stroke-dasharray:14.8,6.4;stroke-dashoffset:0;stroke-opacity:0.5;stroke-width:4;"/>
   </g>
   <g id="LineCollection_5">
    <path clip-path="url(#pa72f62cb3e)" d="M 518.616 463.764706 
L 518.616 421.925119 
" style="fill:none;stroke:#000000;stroke-dasharray:14.8,6.4;stroke-dashoffset:0;stroke-opacity:0.5;stroke-width:4;"/>
   </g>
   <g id="LineCollection_6">
    <path clip-path="url(#pa72f62cb3e)" d="M 950.832 463.764706 
L 950.832 421.925119 
" style="fill:none;stroke:#000000;stroke-dasharray:14.8,6.4;stroke-dashoffset:0;stroke-opacity:0.5;stroke-width:4;"/>
   </g>
   <g id="patch_12">
    <path d="M 86.4 463.764706 
L 86.4 292.235294 
" style="fill:none;stroke:#f0f0f0;stroke-linecap:square;stroke-linejoin:miter;stroke-width:3;"/>
   </g>
   <g id="patch_13">
    <path d="M 1026 463.764706 
L 1026 292.235294 
" style="fill:none;stroke:#f0f0f0;stroke-linecap:square;stroke-linejoin:miter;stroke-width:3;"/>
   </g>
   <g id="patch_14">
    <path d="M 86.4 463.764706 
L 1026 463.764706 
" style="fill:none;stroke:#f0f0f0;stroke-linecap:square;stroke-linejoin:miter;stroke-width:3;"/>
   </g>
   <g id="patch_15">
    <path d="M 86.4 292.235294 
L 1026 292.235294 
" style="fill:none;stroke:#f0f0f0;stroke-linecap:square;stroke-linejoin:miter;stroke-width:3;"/>
   </g>
   <g id="legend_2">
    <g id="patch_16">
     <path d="M 870.18 385.663419 
L 1016.2 385.663419 
Q 1019 385.663419 1019 382.863419 
L 1019 302.035294 
Q 1019 299.235294 1016.2 299.235294 
L 870.18 299.235294 
Q 867.38 299.235294 867.38 302.035294 
L 867.38 382.863419 
Q 867.38 385.663419 870.18 385.663419 
z
" style="fill:#f0f0f0;opacity:0.8;stroke:#cccccc;stroke-linejoin:miter;stroke-width:0.5;"/>
    </g>
    <g id="patch_17">
     <path d="M 872.98 315.475294 
L 900.98 315.475294 
L 900.98 305.675294 
L 872.98 305.675294 
z
" style="fill:#467821;opacity:0.85;"/>
    </g>
    <g id="text_26">
     <!-- posterior of $p_B$ -->
     <g transform="translate(912.18 315.475294)scale(0.14 -0.14)">
      <use transform="translate(0 0.015625)" xlink:href="#DejaVuSans-112"/>
      <use transform="translate(63.476562 0.015625)" xlink:href="#DejaVuSans-111"/>
      <use transform="translate(124.658203 0.015625)" xlink:href="#DejaVuSans-115"/>
      <use transform="translate(176.757812 0.015625)" xlink:href="#DejaVuSans-116"/>
      <use transform="translate(215.966797 0.015625)" xlink:href="#DejaVuSans-101"/>
      <use transform="translate(277.490234 0.015625)" xlink:href="#DejaVuSans-114"/>
      <use transform="translate(318.603516 0.015625)" xlink:href="#DejaVuSans-105"/>
      <use transform="translate(346.386719 0.015625)" xlink:href="#DejaVuSans-111"/>
      <use transform="translate(407.568359 0.015625)" xlink:href="#DejaVuSans-114"/>
      <use transform="translate(448.681641 0.015625)" xlink:href="#DejaVuSans-32"/>
      <use transform="translate(480.46875 0.015625)" xlink:href="#DejaVuSans-111"/>
      <use transform="translate(541.650391 0.015625)" xlink:href="#DejaVuSans-102"/>
      <use transform="translate(576.855469 0.015625)" xlink:href="#DejaVuSans-32"/>
      <use transform="translate(608.642578 0.015625)" xlink:href="#DejaVuSans-Oblique-112"/>
      <use transform="translate(672.119141 -16.390625)scale(0.7)" xlink:href="#DejaVuSans-Oblique-66"/>
     </g>
    </g>
    <g id="line2d_44">
     <path d="M 872.98 331.153107 
L 900.98 331.153107 
" style="fill:none;stroke:#ffffff;stroke-dasharray:14.8,6.4;stroke-dashoffset:0;stroke-opacity:0.5;stroke-width:4;"/>
    </g>
    <g id="text_27">
     <!-- mean delta -->
     <g transform="translate(912.18 336.053107)scale(0.14 -0.14)">
      <use xlink:href="#DejaVuSans-109"/>
      <use x="97.412109" xlink:href="#DejaVuSans-101"/>
      <use x="158.935547" xlink:href="#DejaVuSans-97"/>
      <use x="220.214844" xlink:href="#DejaVuSans-110"/>
      <use x="283.59375" xlink:href="#DejaVuSans-32"/>
      <use x="315.380859" xlink:href="#DejaVuSans-100"/>
      <use x="378.857422" xlink:href="#DejaVuSans-101"/>
      <use x="440.380859" xlink:href="#DejaVuSans-108"/>
      <use x="468.164062" xlink:href="#DejaVuSans-116"/>
      <use x="507.373047" xlink:href="#DejaVuSans-97"/>
     </g>
    </g>
    <g id="line2d_45">
     <path d="M 872.98 351.702482 
L 900.98 351.702482 
" style="fill:none;stroke:#000000;stroke-dasharray:14.8,6.4;stroke-dashoffset:0;stroke-opacity:0.5;stroke-width:4;"/>
    </g>
    <g id="text_28">
     <!-- 2.5% -->
     <g transform="translate(912.18 356.602482)scale(0.14 -0.14)">
      <use xlink:href="#DejaVuSans-50"/>
      <use x="63.623047" xlink:href="#DejaVuSans-46"/>
      <use x="95.410156" xlink:href="#DejaVuSans-53"/>
      <use x="159.033203" xlink:href="#DejaVuSans-37"/>
     </g>
    </g>
    <g id="line2d_46">
     <path d="M 872.98 372.251857 
L 900.98 372.251857 
" style="fill:none;stroke:#000000;stroke-dasharray:14.8,6.4;stroke-dashoffset:0;stroke-opacity:0.5;stroke-width:4;"/>
    </g>
    <g id="text_29">
     <!-- 97.5% -->
     <g transform="translate(912.18 377.151857)scale(0.14 -0.14)">
      <use xlink:href="#DejaVuSans-57"/>
      <use x="63.623047" xlink:href="#DejaVuSans-55"/>
      <use x="127.246094" xlink:href="#DejaVuSans-46"/>
      <use x="159.033203" xlink:href="#DejaVuSans-53"/>
      <use x="222.65625" xlink:href="#DejaVuSans-37"/>
     </g>
    </g>
   </g>
  </g>
  <g id="axes_3">
   <g id="patch_18">
    <path d="M 86.4 669.6 
L 1026 669.6 
L 1026 498.070588 
L 86.4 498.070588 
z
" style="fill:#f0f0f0;"/>
   </g>
   <g id="matplotlib.axis_5">
    <g id="xtick_13">
     <g id="line2d_47">
      <path clip-path="url(#pd34d030127)" d="M 180.36 669.6 
L 180.36 498.070588 
" style="fill:none;stroke:#cbcbcb;"/>
     </g>
     <g id="line2d_48"/>
     <g id="text_30">
      <!-- 0.4 -->
      <defs>
       <path d="M 10.59375 35.5 
L 73.1875 35.5 
L 73.1875 27.203125 
L 10.59375 27.203125 
z
" id="DejaVuSans-8722"/>
      </defs>
      <g transform="translate(163.362031 683.737813)scale(0.14 -0.14)">
       <use xlink:href="#DejaVuSans-8722"/>
       <use x="83.789062" xlink:href="#DejaVuSans-48"/>
       <use x="147.412109" xlink:href="#DejaVuSans-46"/>
       <use x="179.199219" xlink:href="#DejaVuSans-52"/>
      </g>
     </g>
    </g>
    <g id="xtick_14">
     <g id="line2d_49">
      <path clip-path="url(#pd34d030127)" d="M 368.28 669.6 
L 368.28 498.070588 
" style="fill:none;stroke:#cbcbcb;"/>
     </g>
     <g id="line2d_50"/>
     <g id="text_31">
      <!-- 0.2 -->
      <g transform="translate(351.282031 683.737813)scale(0.14 -0.14)">
       <use xlink:href="#DejaVuSans-8722"/>
       <use x="83.789062" xlink:href="#DejaVuSans-48"/>
       <use x="147.412109" xlink:href="#DejaVuSans-46"/>
       <use x="179.199219" xlink:href="#DejaVuSans-50"/>
      </g>
     </g>
    </g>
    <g id="xtick_15">
     <g id="line2d_51">
      <path clip-path="url(#pd34d030127)" d="M 556.2 669.6 
L 556.2 498.070588 
" style="fill:none;stroke:#cbcbcb;"/>
     </g>
     <g id="line2d_52"/>
     <g id="text_32">
      <!-- 0.0 -->
      <g transform="translate(545.067813 683.737813)scale(0.14 -0.14)">
       <use xlink:href="#DejaVuSans-48"/>
       <use x="63.623047" xlink:href="#DejaVuSans-46"/>
       <use x="95.410156" xlink:href="#DejaVuSans-48"/>
      </g>
     </g>
    </g>
    <g id="xtick_16">
     <g id="line2d_53">
      <path clip-path="url(#pd34d030127)" d="M 744.12 669.6 
L 744.12 498.070588 
" style="fill:none;stroke:#cbcbcb;"/>
     </g>
     <g id="line2d_54"/>
     <g id="text_33">
      <!-- 0.2 -->
      <g transform="translate(732.987813 683.737813)scale(0.14 -0.14)">
       <use xlink:href="#DejaVuSans-48"/>
       <use x="63.623047" xlink:href="#DejaVuSans-46"/>
       <use x="95.410156" xlink:href="#DejaVuSans-50"/>
      </g>
     </g>
    </g>
    <g id="xtick_17">
     <g id="line2d_55">
      <path clip-path="url(#pd34d030127)" d="M 932.04 669.6 
L 932.04 498.070588 
" style="fill:none;stroke:#cbcbcb;"/>
     </g>
     <g id="line2d_56"/>
     <g id="text_34">
      <!-- 0.4 -->
      <g transform="translate(920.907812 683.737813)scale(0.14 -0.14)">
       <use xlink:href="#DejaVuSans-48"/>
       <use x="63.623047" xlink:href="#DejaVuSans-46"/>
       <use x="95.410156" xlink:href="#DejaVuSans-52"/>
      </g>
     </g>
    </g>
   </g>
   <g id="matplotlib.axis_6">
    <g id="ytick_9">
     <g id="line2d_57">
      <path clip-path="url(#pd34d030127)" d="M 86.4 669.6 
L 1026 669.6 
" style="fill:none;stroke:#cbcbcb;"/>
     </g>
     <g id="line2d_58"/>
     <g id="text_35">
      <!-- 0 -->
      <g transform="translate(73.9925 674.918906)scale(0.14 -0.14)">
       <use xlink:href="#DejaVuSans-48"/>
      </g>
     </g>
    </g>
    <g id="ytick_10">
     <g id="line2d_59">
      <path clip-path="url(#pd34d030127)" d="M 86.4 615.146218 
L 1026 615.146218 
" style="fill:none;stroke:#cbcbcb;"/>
     </g>
     <g id="line2d_60"/>
     <g id="text_36">
      <!-- 1 -->
      <g transform="translate(73.9925 620.465125)scale(0.14 -0.14)">
       <use xlink:href="#DejaVuSans-49"/>
      </g>
     </g>
    </g>
    <g id="ytick_11">
     <g id="line2d_61">
      <path clip-path="url(#pd34d030127)" d="M 86.4 560.692437 
L 1026 560.692437 
" style="fill:none;stroke:#cbcbcb;"/>
     </g>
     <g id="line2d_62"/>
     <g id="text_37">
      <!-- 2 -->
      <g transform="translate(73.9925 566.011343)scale(0.14 -0.14)">
       <use xlink:href="#DejaVuSans-50"/>
      </g>
     </g>
    </g>
    <g id="ytick_12">
     <g id="line2d_63">
      <path clip-path="url(#pd34d030127)" d="M 86.4 506.238655 
L 1026 506.238655 
" style="fill:none;stroke:#cbcbcb;"/>
     </g>
     <g id="line2d_64"/>
     <g id="text_38">
      <!-- 3 -->
      <g transform="translate(73.9925 511.557562)scale(0.14 -0.14)">
       <use xlink:href="#DejaVuSans-51"/>
      </g>
     </g>
    </g>
   </g>
   <g id="patch_19">
    <path clip-path="url(#pd34d030127)" d="M 216.272576 669.6 
L 216.272576 669.39758 
L 249.531216 669.39758 
L 249.531216 669.114192 
L 282.789856 669.114192 
L 282.789856 667.45435 
L 316.048496 667.45435 
L 316.048496 662.758211 
L 349.307136 662.758211 
L 349.307136 655.835454 
L 382.565776 655.835454 
L 382.565776 642.5972 
L 415.824416 642.5972 
L 415.824416 622.517156 
L 449.083056 622.517156 
L 449.083056 593.854514 
L 482.341696 593.854514 
L 482.341696 561.669767 
L 515.600336 561.669767 
L 515.600336 543.08763 
L 548.858976 543.08763 
L 548.858976 525.39614 
L 582.117616 525.39614 
L 582.117616 515.88241 
L 615.376256 515.88241 
L 615.376256 512.927081 
L 648.634896 512.927081 
L 648.634896 521.7121 
L 681.893536 521.7121 
L 681.893536 538.229555 
L 715.152176 538.229555 
L 715.152176 561.18396 
L 748.410816 561.18396 
L 748.410816 581.061583 
L 781.669456 581.061583 
L 781.669456 604.096955 
L 814.928096 604.096955 
L 814.928096 621.42409 
L 848.186736 621.42409 
L 848.186736 635.714927 
L 881.445376 635.714927 
L 881.445376 647.414791 
L 914.704016 647.414791 
L 914.704016 656.361746 
L 947.962656 656.361746 
L 947.962656 661.179337 
L 981.221296 661.179337 
L 981.221296 665.146765 
L 1014.479936 665.146765 
L 1014.479936 666.968543 
L 1047.738576 666.968543 
L 1047.738576 668.668869 
L 1080.997217 668.668869 
L 1080.997217 669.39758 
L 1114.255857 669.39758 
L 1114.255857 669.438064 
L 1147.514497 669.438064 
L 1147.514497 669.6 
L 1180.773137 669.6 
L 1180.773137 669.519032 
L 1214.031777 669.519032 
L 1214.031777 669.6 
L 1180.773137 669.6 
L 1180.773137 669.6 
L 1147.514497 669.6 
L 1147.514497 669.6 
L 1114.255857 669.6 
L 1114.255857 669.6 
L 1080.997217 669.6 
L 1080.997217 669.6 
L 1047.738576 669.6 
L 1047.738576 669.6 
L 1014.479936 669.6 
L 1014.479936 669.6 
L 981.221296 669.6 
L 981.221296 669.6 
L 947.962656 669.6 
L 947.962656 669.6 
L 914.704016 669.6 
L 914.704016 669.6 
L 881.445376 669.6 
L 881.445376 669.6 
L 848.186736 669.6 
L 848.186736 669.6 
L 814.928096 669.6 
L 814.928096 669.6 
L 781.669456 669.6 
L 781.669456 669.6 
L 748.410816 669.6 
L 748.410816 669.6 
L 715.152176 669.6 
L 715.152176 669.6 
L 681.893536 669.6 
L 681.893536 669.6 
L 648.634896 669.6 
L 648.634896 669.6 
L 615.376256 669.6 
L 615.376256 669.6 
L 582.117616 669.6 
L 582.117616 669.6 
L 548.858976 669.6 
L 548.858976 669.6 
L 515.600336 669.6 
L 515.600336 669.6 
L 482.341696 669.6 
L 482.341696 669.6 
L 449.083056 669.6 
L 449.083056 669.6 
L 415.824416 669.6 
L 415.824416 669.6 
L 382.565776 669.6 
L 382.565776 669.6 
L 349.307136 669.6 
L 349.307136 669.6 
L 316.048496 669.6 
L 316.048496 669.6 
L 282.789856 669.6 
L 282.789856 669.6 
L 249.531216 669.6 
L 249.531216 669.6 
z
" style="fill:#7a68a6;opacity:0.85;"/>
   </g>
   <g id="LineCollection_7">
    <path clip-path="url(#pd34d030127)" d="M 631.368 669.6 
L 631.368 506.238655 
" style="fill:none;stroke:#ffffff;stroke-dasharray:14.8,6.4;stroke-dashoffset:0;stroke-opacity:0.5;stroke-width:4;"/>
   </g>
   <g id="LineCollection_8">
    <path clip-path="url(#pd34d030127)" d="M 405.864 669.6 
L 405.864 655.986555 
" style="fill:none;stroke:#000000;stroke-dasharray:14.8,6.4;stroke-dashoffset:0;stroke-opacity:0.5;stroke-width:4;"/>
   </g>
   <g id="LineCollection_9">
    <path clip-path="url(#pd34d030127)" d="M 894.456 669.6 
L 894.456 655.986555 
" style="fill:none;stroke:#000000;stroke-dasharray:14.8,6.4;stroke-dashoffset:0;stroke-opacity:0.5;stroke-width:4;"/>
   </g>
   <g id="patch_20">
    <path d="M 86.4 669.6 
L 86.4 498.070588 
" style="fill:none;stroke:#f0f0f0;stroke-linecap:square;stroke-linejoin:miter;stroke-width:3;"/>
   </g>
   <g id="patch_21">
    <path d="M 1026 669.6 
L 1026 498.070588 
" style="fill:none;stroke:#f0f0f0;stroke-linecap:square;stroke-linejoin:miter;stroke-width:3;"/>
   </g>
   <g id="patch_22">
    <path d="M 86.4 669.6 
L 1026 669.6 
" style="fill:none;stroke:#f0f0f0;stroke-linecap:square;stroke-linejoin:miter;stroke-width:3;"/>
   </g>
   <g id="patch_23">
    <path d="M 86.4 498.070588 
L 1026 498.070588 
" style="fill:none;stroke:#f0f0f0;stroke-linecap:square;stroke-linejoin:miter;stroke-width:3;"/>
   </g>
   <g id="legend_3">
    <g id="patch_24">
     <path d="M 850.730937 591.468088 
L 1016.2 591.468088 
Q 1019 591.468088 1019 588.668088 
L 1019 507.870588 
Q 1019 505.070588 1016.2 505.070588 
L 850.730937 505.070588 
Q 847.930937 505.070588 847.930937 507.870588 
L 847.930937 588.668088 
Q 847.930937 591.468088 850.730937 591.468088 
z
" style="fill:#f0f0f0;opacity:0.8;stroke:#cccccc;stroke-linejoin:miter;stroke-width:0.5;"/>
    </g>
    <g id="patch_25">
     <path d="M 853.530937 521.308401 
L 881.530937 521.308401 
L 881.530937 511.508401 
L 853.530937 511.508401 
z
" style="fill:#7a68a6;opacity:0.85;"/>
    </g>
    <g id="text_39">
     <!-- posterior of delta -->
     <g transform="translate(892.730937 521.308401)scale(0.14 -0.14)">
      <use xlink:href="#DejaVuSans-112"/>
      <use x="63.476562" xlink:href="#DejaVuSans-111"/>
      <use x="124.658203" xlink:href="#DejaVuSans-115"/>
      <use x="176.757812" xlink:href="#DejaVuSans-116"/>
      <use x="215.966797" xlink:href="#DejaVuSans-101"/>
      <use x="277.490234" xlink:href="#DejaVuSans-114"/>
      <use x="318.603516" xlink:href="#DejaVuSans-105"/>
      <use x="346.386719" xlink:href="#DejaVuSans-111"/>
      <use x="407.568359" xlink:href="#DejaVuSans-114"/>
      <use x="448.681641" xlink:href="#DejaVuSans-32"/>
      <use x="480.46875" xlink:href="#DejaVuSans-111"/>
      <use x="541.650391" xlink:href="#DejaVuSans-102"/>
      <use x="576.855469" xlink:href="#DejaVuSans-32"/>
      <use x="608.642578" xlink:href="#DejaVuSans-100"/>
      <use x="672.119141" xlink:href="#DejaVuSans-101"/>
      <use x="733.642578" xlink:href="#DejaVuSans-108"/>
      <use x="761.425781" xlink:href="#DejaVuSans-116"/>
      <use x="800.634766" xlink:href="#DejaVuSans-97"/>
     </g>
    </g>
    <g id="line2d_65">
     <path d="M 853.530937 536.957776 
L 881.530937 536.957776 
" style="fill:none;stroke:#ffffff;stroke-dasharray:14.8,6.4;stroke-dashoffset:0;stroke-opacity:0.5;stroke-width:4;"/>
    </g>
    <g id="text_40">
     <!-- mean delta -->
     <g transform="translate(892.730937 541.857776)scale(0.14 -0.14)">
      <use xlink:href="#DejaVuSans-109"/>
      <use x="97.412109" xlink:href="#DejaVuSans-101"/>
      <use x="158.935547" xlink:href="#DejaVuSans-97"/>
      <use x="220.214844" xlink:href="#DejaVuSans-110"/>
      <use x="283.59375" xlink:href="#DejaVuSans-32"/>
      <use x="315.380859" xlink:href="#DejaVuSans-100"/>
      <use x="378.857422" xlink:href="#DejaVuSans-101"/>
      <use x="440.380859" xlink:href="#DejaVuSans-108"/>
      <use x="468.164062" xlink:href="#DejaVuSans-116"/>
      <use x="507.373047" xlink:href="#DejaVuSans-97"/>
     </g>
    </g>
    <g id="line2d_66">
     <path d="M 853.530937 557.507151 
L 881.530937 557.507151 
" style="fill:none;stroke:#000000;stroke-dasharray:14.8,6.4;stroke-dashoffset:0;stroke-opacity:0.5;stroke-width:4;"/>
    </g>
    <g id="text_41">
     <!-- 2.5% -->
     <g transform="translate(892.730937 562.407151)scale(0.14 -0.14)">
      <use xlink:href="#DejaVuSans-50"/>
      <use x="63.623047" xlink:href="#DejaVuSans-46"/>
      <use x="95.410156" xlink:href="#DejaVuSans-53"/>
      <use x="159.033203" xlink:href="#DejaVuSans-37"/>
     </g>
    </g>
    <g id="line2d_67">
     <path d="M 853.530937 578.056526 
L 881.530937 578.056526 
" style="fill:none;stroke:#000000;stroke-dasharray:14.8,6.4;stroke-dashoffset:0;stroke-opacity:0.5;stroke-width:4;"/>
    </g>
    <g id="text_42">
     <!-- 97.5% -->
     <g transform="translate(892.730937 582.956526)scale(0.14 -0.14)">
      <use xlink:href="#DejaVuSans-57"/>
      <use x="63.623047" xlink:href="#DejaVuSans-55"/>
      <use x="127.246094" xlink:href="#DejaVuSans-46"/>
      <use x="159.033203" xlink:href="#DejaVuSans-53"/>
      <use x="222.65625" xlink:href="#DejaVuSans-37"/>
     </g>
    </g>
   </g>
  </g>
 </g>
 <defs>
  <clipPath id="p591cc09399">
   <rect height="171.529412" width="939.6" x="86.4" y="86.4"/>
  </clipPath>
  <clipPath id="pa72f62cb3e">
   <rect height="171.529412" width="939.6" x="86.4" y="292.235294"/>
  </clipPath>
  <clipPath id="pd34d030127">
   <rect height="171.529412" width="939.6" x="86.4" y="498.070588"/>
  </clipPath>
 </defs>
</svg>
