<?xml version="1.0" encoding="utf-8" standalone="no"?>
<!DOCTYPE svg PUBLIC "-//W3C//DTD SVG 1.1//EN"
  "http://www.w3.org/Graphics/SVG/1.1/DTD/svg11.dtd">
<!-- Created with matplotlib (https://matplotlib.org/) -->
<svg height="720pt" version="1.1" viewBox="0 0 1080 720" width="1080pt" xmlns="http://www.w3.org/2000/svg" xmlns:xlink="http://www.w3.org/1999/xlink">
 <defs>
  <style type="text/css">
*{stroke-linecap:butt;stroke-linejoin:round;}
  </style>
 </defs>
 <g id="figure_1">
  <g id="patch_1">
   <path d="M 0 720 
L 1080 720 
L 1080 0 
L 0 0 
z
" style="fill:#f0f0f0;"/>
  </g>
  <g id="axes_1">
   <g id="patch_2">
    <path d="M 86.4 246.282353 
L 1026 246.282353 
L 1026 86.4 
L 86.4 86.4 
z
" style="fill:#f0f0f0;"/>
   </g>
   <g id="matplotlib.axis_1">
    <g id="xtick_1">
     <g id="line2d_1">
      <path clip-path="url(#pa15a25991b)" d="M 86.4 246.282353 
L 86.4 86.4 
" style="fill:none;stroke:#cbcbcb;"/>
     </g>
     <g id="line2d_2"/>
     <g id="text_1">
      <!-- 0.0 -->
      <defs>
       <path d="M 31.78125 66.40625 
Q 24.171875 66.40625 20.328125 58.90625 
Q 16.5 51.421875 16.5 36.375 
Q 16.5 21.390625 20.328125 13.890625 
Q 24.171875 6.390625 31.78125 6.390625 
Q 39.453125 6.390625 43.28125 13.890625 
Q 47.125 21.390625 47.125 36.375 
Q 47.125 51.421875 43.28125 58.90625 
Q 39.453125 66.40625 31.78125 66.40625 
z
M 31.78125 74.21875 
Q 44.046875 74.21875 50.515625 64.515625 
Q 56.984375 54.828125 56.984375 36.375 
Q 56.984375 17.96875 50.515625 8.265625 
Q 44.046875 -1.421875 31.78125 -1.421875 
Q 19.53125 -1.421875 13.0625 8.265625 
Q 6.59375 17.96875 6.59375 36.375 
Q 6.59375 54.828125 13.0625 64.515625 
Q 19.53125 74.21875 31.78125 74.21875 
z
" id="DejaVuSans-48"/>
       <path d="M 10.6875 12.40625 
L 21 12.40625 
L 21 0 
L 10.6875 0 
z
" id="DejaVuSans-46"/>
      </defs>
      <g transform="translate(78.448438 257.38079)scale(0.1 -0.1)">
       <use xlink:href="#DejaVuSans-48"/>
       <use x="63.623047" xlink:href="#DejaVuSans-46"/>
       <use x="95.410156" xlink:href="#DejaVuSans-48"/>
      </g>
     </g>
    </g>
    <g id="xtick_2">
     <g id="line2d_3">
      <path clip-path="url(#pa15a25991b)" d="M 274.32 246.282353 
L 274.32 86.4 
" style="fill:none;stroke:#cbcbcb;"/>
     </g>
     <g id="line2d_4"/>
     <g id="text_2">
      <!-- 0.2 -->
      <defs>
       <path d="M 19.1875 8.296875 
L 53.609375 8.296875 
L 53.609375 0 
L 7.328125 0 
L 7.328125 8.296875 
Q 12.9375 14.109375 22.625 23.890625 
Q 32.328125 33.6875 34.8125 36.53125 
Q 39.546875 41.84375 41.421875 45.53125 
Q 43.3125 49.21875 43.3125 52.78125 
Q 43.3125 58.59375 39.234375 62.25 
Q 35.15625 65.921875 28.609375 65.921875 
Q 23.96875 65.921875 18.8125 64.3125 
Q 13.671875 62.703125 7.8125 59.421875 
L 7.8125 69.390625 
Q 13.765625 71.78125 18.9375 73 
Q 24.125 74.21875 28.421875 74.21875 
Q 39.75 74.21875 46.484375 68.546875 
Q 53.21875 62.890625 53.21875 53.421875 
Q 53.21875 48.921875 51.53125 44.890625 
Q 49.859375 40.875 45.40625 35.40625 
Q 44.1875 33.984375 37.640625 27.21875 
Q 31.109375 20.453125 19.1875 8.296875 
z
" id="DejaVuSans-50"/>
      </defs>
      <g transform="translate(266.368438 257.38079)scale(0.1 -0.1)">
       <use xlink:href="#DejaVuSans-48"/>
       <use x="63.623047" xlink:href="#DejaVuSans-46"/>
       <use x="95.410156" xlink:href="#DejaVuSans-50"/>
      </g>
     </g>
    </g>
    <g id="xtick_3">
     <g id="line2d_5">
      <path clip-path="url(#pa15a25991b)" d="M 462.24 246.282353 
L 462.24 86.4 
" style="fill:none;stroke:#cbcbcb;"/>
     </g>
     <g id="line2d_6"/>
     <g id="text_3">
      <!-- 0.4 -->
      <defs>
       <path d="M 37.796875 64.3125 
L 12.890625 25.390625 
L 37.796875 25.390625 
z
M 35.203125 72.90625 
L 47.609375 72.90625 
L 47.609375 25.390625 
L 58.015625 25.390625 
L 58.015625 17.1875 
L 47.609375 17.1875 
L 47.609375 0 
L 37.796875 0 
L 37.796875 17.1875 
L 4.890625 17.1875 
L 4.890625 26.703125 
z
" id="DejaVuSans-52"/>
      </defs>
      <g transform="translate(454.288437 257.38079)scale(0.1 -0.1)">
       <use xlink:href="#DejaVuSans-48"/>
       <use x="63.623047" xlink:href="#DejaVuSans-46"/>
       <use x="95.410156" xlink:href="#DejaVuSans-52"/>
      </g>
     </g>
    </g>
    <g id="xtick_4">
     <g id="line2d_7">
      <path clip-path="url(#pa15a25991b)" d="M 650.16 246.282353 
L 650.16 86.4 
" style="fill:none;stroke:#cbcbcb;"/>
     </g>
     <g id="line2d_8"/>
     <g id="text_4">
      <!-- 0.6 -->
      <defs>
       <path d="M 33.015625 40.375 
Q 26.375 40.375 22.484375 35.828125 
Q 18.609375 31.296875 18.609375 23.390625 
Q 18.609375 15.53125 22.484375 10.953125 
Q 26.375 6.390625 33.015625 6.390625 
Q 39.65625 6.390625 43.53125 10.953125 
Q 47.40625 15.53125 47.40625 23.390625 
Q 47.40625 31.296875 43.53125 35.828125 
Q 39.65625 40.375 33.015625 40.375 
z
M 52.59375 71.296875 
L 52.59375 62.3125 
Q 48.875 64.0625 45.09375 64.984375 
Q 41.3125 65.921875 37.59375 65.921875 
Q 27.828125 65.921875 22.671875 59.328125 
Q 17.53125 52.734375 16.796875 39.40625 
Q 19.671875 43.65625 24.015625 45.921875 
Q 28.375 48.1875 33.59375 48.1875 
Q 44.578125 48.1875 50.953125 41.515625 
Q 57.328125 34.859375 57.328125 23.390625 
Q 57.328125 12.15625 50.6875 5.359375 
Q 44.046875 -1.421875 33.015625 -1.421875 
Q 20.359375 -1.421875 13.671875 8.265625 
Q 6.984375 17.96875 6.984375 36.375 
Q 6.984375 53.65625 15.1875 63.9375 
Q 23.390625 74.21875 37.203125 74.21875 
Q 40.921875 74.21875 44.703125 73.484375 
Q 48.484375 72.75 52.59375 71.296875 
z
" id="DejaVuSans-54"/>
      </defs>
      <g transform="translate(642.208438 257.38079)scale(0.1 -0.1)">
       <use xlink:href="#DejaVuSans-48"/>
       <use x="63.623047" xlink:href="#DejaVuSans-46"/>
       <use x="95.410156" xlink:href="#DejaVuSans-54"/>
      </g>
     </g>
    </g>
    <g id="xtick_5">
     <g id="line2d_9">
      <path clip-path="url(#pa15a25991b)" d="M 838.08 246.282353 
L 838.08 86.4 
" style="fill:none;stroke:#cbcbcb;"/>
     </g>
     <g id="line2d_10"/>
     <g id="text_5">
      <!-- 0.8 -->
      <defs>
       <path d="M 31.78125 34.625 
Q 24.75 34.625 20.71875 30.859375 
Q 16.703125 27.09375 16.703125 20.515625 
Q 16.703125 13.921875 20.71875 10.15625 
Q 24.75 6.390625 31.78125 6.390625 
Q 38.8125 6.390625 42.859375 10.171875 
Q 46.921875 13.96875 46.921875 20.515625 
Q 46.921875 27.09375 42.890625 30.859375 
Q 38.875 34.625 31.78125 34.625 
z
M 21.921875 38.8125 
Q 15.578125 40.375 12.03125 44.71875 
Q 8.5 49.078125 8.5 55.328125 
Q 8.5 64.0625 14.71875 69.140625 
Q 20.953125 74.21875 31.78125 74.21875 
Q 42.671875 74.21875 48.875 69.140625 
Q 55.078125 64.0625 55.078125 55.328125 
Q 55.078125 49.078125 51.53125 44.71875 
Q 48 40.375 41.703125 38.8125 
Q 48.828125 37.15625 52.796875 32.3125 
Q 56.78125 27.484375 56.78125 20.515625 
Q 56.78125 9.90625 50.3125 4.234375 
Q 43.84375 -1.421875 31.78125 -1.421875 
Q 19.734375 -1.421875 13.25 4.234375 
Q 6.78125 9.90625 6.78125 20.515625 
Q 6.78125 27.484375 10.78125 32.3125 
Q 14.796875 37.15625 21.921875 38.8125 
z
M 18.3125 54.390625 
Q 18.3125 48.734375 21.84375 45.5625 
Q 25.390625 42.390625 31.78125 42.390625 
Q 38.140625 42.390625 41.71875 45.5625 
Q 45.3125 48.734375 45.3125 54.390625 
Q 45.3125 60.0625 41.71875 63.234375 
Q 38.140625 66.40625 31.78125 66.40625 
Q 25.390625 66.40625 21.84375 63.234375 
Q 18.3125 60.0625 18.3125 54.390625 
z
" id="DejaVuSans-56"/>
      </defs>
      <g transform="translate(830.128438 257.38079)scale(0.1 -0.1)">
       <use xlink:href="#DejaVuSans-48"/>
       <use x="63.623047" xlink:href="#DejaVuSans-46"/>
       <use x="95.410156" xlink:href="#DejaVuSans-56"/>
      </g>
     </g>
    </g>
    <g id="xtick_6">
     <g id="line2d_11">
      <path clip-path="url(#pa15a25991b)" d="M 1026 246.282353 
L 1026 86.4 
" style="fill:none;stroke:#cbcbcb;"/>
     </g>
     <g id="line2d_12"/>
     <g id="text_6">
      <!-- 1.0 -->
      <defs>
       <path d="M 12.40625 8.296875 
L 28.515625 8.296875 
L 28.515625 63.921875 
L 10.984375 60.40625 
L 10.984375 69.390625 
L 28.421875 72.90625 
L 38.28125 72.90625 
L 38.28125 8.296875 
L 54.390625 8.296875 
L 54.390625 0 
L 12.40625 0 
z
" id="DejaVuSans-49"/>
      </defs>
      <g transform="translate(1018.048437 257.38079)scale(0.1 -0.1)">
       <use xlink:href="#DejaVuSans-49"/>
       <use x="63.623047" xlink:href="#DejaVuSans-46"/>
       <use x="95.410156" xlink:href="#DejaVuSans-48"/>
      </g>
     </g>
    </g>
   </g>
   <g id="matplotlib.axis_2">
    <g id="ytick_1">
     <g id="line2d_13">
      <path clip-path="url(#pa15a25991b)" d="M 86.4 246.282353 
L 1026 246.282353 
" style="fill:none;stroke:#cbcbcb;"/>
     </g>
     <g id="line2d_14"/>
     <g id="text_7">
      <!-- 0 -->
      <g transform="translate(76.5375 250.081572)scale(0.1 -0.1)">
       <use xlink:href="#DejaVuSans-48"/>
      </g>
     </g>
    </g>
    <g id="ytick_2">
     <g id="line2d_15">
      <path clip-path="url(#pa15a25991b)" d="M 86.4 222.610368 
L 1026 222.610368 
" style="fill:none;stroke:#cbcbcb;"/>
     </g>
     <g id="line2d_16"/>
     <g id="text_8">
      <!-- 2 -->
      <g transform="translate(76.5375 226.409587)scale(0.1 -0.1)">
       <use xlink:href="#DejaVuSans-50"/>
      </g>
     </g>
    </g>
    <g id="ytick_3">
     <g id="line2d_17">
      <path clip-path="url(#pa15a25991b)" d="M 86.4 198.938383 
L 1026 198.938383 
" style="fill:none;stroke:#cbcbcb;"/>
     </g>
     <g id="line2d_18"/>
     <g id="text_9">
      <!-- 4 -->
      <g transform="translate(76.5375 202.737601)scale(0.1 -0.1)">
       <use xlink:href="#DejaVuSans-52"/>
      </g>
     </g>
    </g>
    <g id="ytick_4">
     <g id="line2d_19">
      <path clip-path="url(#pa15a25991b)" d="M 86.4 175.266398 
L 1026 175.266398 
" style="fill:none;stroke:#cbcbcb;"/>
     </g>
     <g id="line2d_20"/>
     <g id="text_10">
      <!-- 6 -->
      <g transform="translate(76.5375 179.065616)scale(0.1 -0.1)">
       <use xlink:href="#DejaVuSans-54"/>
      </g>
     </g>
    </g>
    <g id="ytick_5">
     <g id="line2d_21">
      <path clip-path="url(#pa15a25991b)" d="M 86.4 151.594412 
L 1026 151.594412 
" style="fill:none;stroke:#cbcbcb;"/>
     </g>
     <g id="line2d_22"/>
     <g id="text_11">
      <!-- 8 -->
      <g transform="translate(76.5375 155.393631)scale(0.1 -0.1)">
       <use xlink:href="#DejaVuSans-56"/>
      </g>
     </g>
    </g>
    <g id="ytick_6">
     <g id="line2d_23">
      <path clip-path="url(#pa15a25991b)" d="M 86.4 127.922427 
L 1026 127.922427 
" style="fill:none;stroke:#cbcbcb;"/>
     </g>
     <g id="line2d_24"/>
     <g id="text_12">
      <!-- 10 -->
      <g transform="translate(70.175 131.721646)scale(0.1 -0.1)">
       <use xlink:href="#DejaVuSans-49"/>
       <use x="63.623047" xlink:href="#DejaVuSans-48"/>
      </g>
     </g>
    </g>
    <g id="ytick_7">
     <g id="line2d_25">
      <path clip-path="url(#pa15a25991b)" d="M 86.4 104.250442 
L 1026 104.250442 
" style="fill:none;stroke:#cbcbcb;"/>
     </g>
     <g id="line2d_26"/>
     <g id="text_13">
      <!-- 12 -->
      <g transform="translate(70.175 108.049661)scale(0.1 -0.1)">
       <use xlink:href="#DejaVuSans-49"/>
       <use x="63.623047" xlink:href="#DejaVuSans-50"/>
      </g>
     </g>
    </g>
   </g>
   <g id="patch_3">
    <path clip-path="url(#pa15a25991b)" d="M 651.186335 246.282353 
L 651.186335 246.154851 
L 660.367718 246.154851 
L 660.367718 246.250478 
L 669.549101 246.250478 
L 669.549101 245.995474 
L 678.730484 245.995474 
L 678.730484 245.421716 
L 687.911867 245.421716 
L 687.911867 244.656706 
L 697.09325 244.656706 
L 697.09325 241.56479 
L 706.274633 241.56479 
L 706.274633 237.80349 
L 715.456016 237.80349 
L 715.456016 226.23271 
L 724.637399 226.23271 
L 724.637399 213.960671 
L 733.818782 213.960671 
L 733.818782 193.656025 
L 743.000165 193.656025 
L 743.000165 167.550052 
L 752.181548 167.550052 
L 752.181548 138.766543 
L 761.362931 138.766543 
L 761.362931 113.170576 
L 770.544314 113.170576 
L 770.544314 95.224712 
L 779.725697 95.224712 
L 779.725697 94.013445 
L 788.90708 94.013445 
L 788.90708 101.536046 
L 798.088463 101.536046 
L 798.088463 124.2951 
L 807.269846 124.2951 
L 807.269846 161.302469 
L 816.451229 161.302469 
L 816.451229 190.595985 
L 825.632612 190.595985 
L 825.632612 212.175648 
L 834.813995 212.175648 
L 834.813995 229.93026 
L 843.995378 229.93026 
L 843.995378 239.461012 
L 853.176761 239.461012 
L 853.176761 244.337952 
L 862.358144 244.337952 
L 862.358144 245.581094 
L 871.539527 245.581094 
L 871.539527 246.154851 
L 880.72091 246.154851 
L 880.72091 246.282353 
L 871.539527 246.282353 
L 871.539527 246.282353 
L 862.358144 246.282353 
L 862.358144 246.282353 
L 853.176761 246.282353 
L 853.176761 246.282353 
L 843.995378 246.282353 
L 843.995378 246.282353 
L 834.813995 246.282353 
L 834.813995 246.282353 
L 825.632612 246.282353 
L 825.632612 246.282353 
L 816.451229 246.282353 
L 816.451229 246.282353 
L 807.269846 246.282353 
L 807.269846 246.282353 
L 798.088463 246.282353 
L 798.088463 246.282353 
L 788.90708 246.282353 
L 788.90708 246.282353 
L 779.725697 246.282353 
L 779.725697 246.282353 
L 770.544314 246.282353 
L 770.544314 246.282353 
L 761.362931 246.282353 
L 761.362931 246.282353 
L 752.181548 246.282353 
L 752.181548 246.282353 
L 743.000165 246.282353 
L 743.000165 246.282353 
L 733.818782 246.282353 
L 733.818782 246.282353 
L 724.637399 246.282353 
L 724.637399 246.282353 
L 715.456016 246.282353 
L 715.456016 246.282353 
L 706.274633 246.282353 
L 706.274633 246.282353 
L 697.09325 246.282353 
L 697.09325 246.282353 
L 687.911867 246.282353 
L 687.911867 246.282353 
L 678.730484 246.282353 
L 678.730484 246.282353 
L 669.549101 246.282353 
L 669.549101 246.282353 
L 660.367718 246.282353 
L 660.367718 246.282353 
z
" style="fill:#006bb6;opacity:0.85;"/>
   </g>
   <g id="LineCollection_1">
    <path clip-path="url(#pa15a25991b)" d="M 781.704 246.282353 
L 781.704 98.332446 
" style="fill:none;stroke:#ffffff;stroke-dasharray:14.8,6.4;stroke-dashoffset:0;stroke-opacity:0.5;stroke-width:4;"/>
   </g>
   <g id="LineCollection_2">
    <path clip-path="url(#pa15a25991b)" d="M 725.328 246.282353 
L 725.328 230.895563 
" style="fill:none;stroke:#000000;stroke-dasharray:14.8,6.4;stroke-dashoffset:0;stroke-opacity:0.5;stroke-width:4;"/>
   </g>
   <g id="LineCollection_3">
    <path clip-path="url(#pa15a25991b)" d="M 838.08 246.282353 
L 838.08 230.895563 
" style="fill:none;stroke:#000000;stroke-dasharray:14.8,6.4;stroke-dashoffset:0;stroke-opacity:0.5;stroke-width:4;"/>
   </g>
   <g id="patch_4">
    <path d="M 86.4 246.282353 
L 86.4 86.4 
" style="fill:none;stroke:#f0f0f0;stroke-linecap:square;stroke-linejoin:miter;stroke-width:3;"/>
   </g>
   <g id="patch_5">
    <path d="M 1026 246.282353 
L 1026 86.4 
" style="fill:none;stroke:#f0f0f0;stroke-linecap:square;stroke-linejoin:miter;stroke-width:3;"/>
   </g>
   <g id="patch_6">
    <path d="M 86.4 246.282353 
L 1026 246.282353 
" style="fill:none;stroke:#f0f0f0;stroke-linecap:square;stroke-linejoin:miter;stroke-width:3;"/>
   </g>
   <g id="patch_7">
    <path d="M 86.4 86.4 
L 1026 86.4 
" style="fill:none;stroke:#f0f0f0;stroke-linecap:square;stroke-linejoin:miter;stroke-width:3;"/>
   </g>
   <g id="text_14">
    <!-- Regular Season  -->
    <defs>
     <path d="M 44.390625 34.1875 
Q 47.5625 33.109375 50.5625 29.59375 
Q 53.5625 26.078125 56.59375 19.921875 
L 66.609375 0 
L 56 0 
L 46.6875 18.703125 
Q 43.0625 26.03125 39.671875 28.421875 
Q 36.28125 30.8125 30.421875 30.8125 
L 19.671875 30.8125 
L 19.671875 0 
L 9.8125 0 
L 9.8125 72.90625 
L 32.078125 72.90625 
Q 44.578125 72.90625 50.734375 67.671875 
Q 56.890625 62.453125 56.890625 51.90625 
Q 56.890625 45.015625 53.6875 40.46875 
Q 50.484375 35.9375 44.390625 34.1875 
z
M 19.671875 64.796875 
L 19.671875 38.921875 
L 32.078125 38.921875 
Q 39.203125 38.921875 42.84375 42.21875 
Q 46.484375 45.515625 46.484375 51.90625 
Q 46.484375 58.296875 42.84375 61.546875 
Q 39.203125 64.796875 32.078125 64.796875 
z
" id="DejaVuSans-82"/>
     <path d="M 56.203125 29.59375 
L 56.203125 25.203125 
L 14.890625 25.203125 
Q 15.484375 15.921875 20.484375 11.0625 
Q 25.484375 6.203125 34.421875 6.203125 
Q 39.59375 6.203125 44.453125 7.46875 
Q 49.3125 8.734375 54.109375 11.28125 
L 54.109375 2.78125 
Q 49.265625 0.734375 44.1875 -0.34375 
Q 39.109375 -1.421875 33.890625 -1.421875 
Q 20.796875 -1.421875 13.15625 6.1875 
Q 5.515625 13.8125 5.515625 26.8125 
Q 5.515625 40.234375 12.765625 48.109375 
Q 20.015625 56 32.328125 56 
Q 43.359375 56 49.78125 48.890625 
Q 56.203125 41.796875 56.203125 29.59375 
z
M 47.21875 32.234375 
Q 47.125 39.59375 43.09375 43.984375 
Q 39.0625 48.390625 32.421875 48.390625 
Q 24.90625 48.390625 20.390625 44.140625 
Q 15.875 39.890625 15.1875 32.171875 
z
" id="DejaVuSans-101"/>
     <path d="M 45.40625 27.984375 
Q 45.40625 37.75 41.375 43.109375 
Q 37.359375 48.484375 30.078125 48.484375 
Q 22.859375 48.484375 18.828125 43.109375 
Q 14.796875 37.75 14.796875 27.984375 
Q 14.796875 18.265625 18.828125 12.890625 
Q 22.859375 7.515625 30.078125 7.515625 
Q 37.359375 7.515625 41.375 12.890625 
Q 45.40625 18.265625 45.40625 27.984375 
z
M 54.390625 6.78125 
Q 54.390625 -7.171875 48.1875 -13.984375 
Q 42 -20.796875 29.203125 -20.796875 
Q 24.46875 -20.796875 20.265625 -20.09375 
Q 16.0625 -19.390625 12.109375 -17.921875 
L 12.109375 -9.1875 
Q 16.0625 -11.328125 19.921875 -12.34375 
Q 23.78125 -13.375 27.78125 -13.375 
Q 36.625 -13.375 41.015625 -8.765625 
Q 45.40625 -4.15625 45.40625 5.171875 
L 45.40625 9.625 
Q 42.625 4.78125 38.28125 2.390625 
Q 33.9375 0 27.875 0 
Q 17.828125 0 11.671875 7.65625 
Q 5.515625 15.328125 5.515625 27.984375 
Q 5.515625 40.671875 11.671875 48.328125 
Q 17.828125 56 27.875 56 
Q 33.9375 56 38.28125 53.609375 
Q 42.625 51.21875 45.40625 46.390625 
L 45.40625 54.6875 
L 54.390625 54.6875 
z
" id="DejaVuSans-103"/>
     <path d="M 8.5 21.578125 
L 8.5 54.6875 
L 17.484375 54.6875 
L 17.484375 21.921875 
Q 17.484375 14.15625 20.5 10.265625 
Q 23.53125 6.390625 29.59375 6.390625 
Q 36.859375 6.390625 41.078125 11.03125 
Q 45.3125 15.671875 45.3125 23.6875 
L 45.3125 54.6875 
L 54.296875 54.6875 
L 54.296875 0 
L 45.3125 0 
L 45.3125 8.40625 
Q 42.046875 3.421875 37.71875 1 
Q 33.40625 -1.421875 27.6875 -1.421875 
Q 18.265625 -1.421875 13.375 4.4375 
Q 8.5 10.296875 8.5 21.578125 
z
M 31.109375 56 
z
" id="DejaVuSans-117"/>
     <path d="M 9.421875 75.984375 
L 18.40625 75.984375 
L 18.40625 0 
L 9.421875 0 
z
" id="DejaVuSans-108"/>
     <path d="M 34.28125 27.484375 
Q 23.390625 27.484375 19.1875 25 
Q 14.984375 22.515625 14.984375 16.5 
Q 14.984375 11.71875 18.140625 8.90625 
Q 21.296875 6.109375 26.703125 6.109375 
Q 34.1875 6.109375 38.703125 11.40625 
Q 43.21875 16.703125 43.21875 25.484375 
L 43.21875 27.484375 
z
M 52.203125 31.203125 
L 52.203125 0 
L 43.21875 0 
L 43.21875 8.296875 
Q 40.140625 3.328125 35.546875 0.953125 
Q 30.953125 -1.421875 24.3125 -1.421875 
Q 15.921875 -1.421875 10.953125 3.296875 
Q 6 8.015625 6 15.921875 
Q 6 25.140625 12.171875 29.828125 
Q 18.359375 34.515625 30.609375 34.515625 
L 43.21875 34.515625 
L 43.21875 35.40625 
Q 43.21875 41.609375 39.140625 45 
Q 35.0625 48.390625 27.6875 48.390625 
Q 23 48.390625 18.546875 47.265625 
Q 14.109375 46.140625 10.015625 43.890625 
L 10.015625 52.203125 
Q 14.9375 54.109375 19.578125 55.046875 
Q 24.21875 56 28.609375 56 
Q 40.484375 56 46.34375 49.84375 
Q 52.203125 43.703125 52.203125 31.203125 
z
" id="DejaVuSans-97"/>
     <path d="M 41.109375 46.296875 
Q 39.59375 47.171875 37.8125 47.578125 
Q 36.03125 48 33.890625 48 
Q 26.265625 48 22.1875 43.046875 
Q 18.109375 38.09375 18.109375 28.8125 
L 18.109375 0 
L 9.078125 0 
L 9.078125 54.6875 
L 18.109375 54.6875 
L 18.109375 46.1875 
Q 20.953125 51.171875 25.484375 53.578125 
Q 30.03125 56 36.53125 56 
Q 37.453125 56 38.578125 55.875 
Q 39.703125 55.765625 41.0625 55.515625 
z
" id="DejaVuSans-114"/>
     <path id="DejaVuSans-32"/>
     <path d="M 53.515625 70.515625 
L 53.515625 60.890625 
Q 47.90625 63.578125 42.921875 64.890625 
Q 37.9375 66.21875 33.296875 66.21875 
Q 25.25 66.21875 20.875 63.09375 
Q 16.5 59.96875 16.5 54.203125 
Q 16.5 49.359375 19.40625 46.890625 
Q 22.3125 44.4375 30.421875 42.921875 
L 36.375 41.703125 
Q 47.40625 39.59375 52.65625 34.296875 
Q 57.90625 29 57.90625 20.125 
Q 57.90625 9.515625 50.796875 4.046875 
Q 43.703125 -1.421875 29.984375 -1.421875 
Q 24.8125 -1.421875 18.96875 -0.25 
Q 13.140625 0.921875 6.890625 3.21875 
L 6.890625 13.375 
Q 12.890625 10.015625 18.65625 8.296875 
Q 24.421875 6.59375 29.984375 6.59375 
Q 38.421875 6.59375 43.015625 9.90625 
Q 47.609375 13.234375 47.609375 19.390625 
Q 47.609375 24.75 44.3125 27.78125 
Q 41.015625 30.8125 33.5 32.328125 
L 27.484375 33.5 
Q 16.453125 35.6875 11.515625 40.375 
Q 6.59375 45.0625 6.59375 53.421875 
Q 6.59375 63.09375 13.40625 68.65625 
Q 20.21875 74.21875 32.171875 74.21875 
Q 37.3125 74.21875 42.625 73.28125 
Q 47.953125 72.359375 53.515625 70.515625 
z
" id="DejaVuSans-83"/>
     <path d="M 44.28125 53.078125 
L 44.28125 44.578125 
Q 40.484375 46.53125 36.375 47.5 
Q 32.28125 48.484375 27.875 48.484375 
Q 21.1875 48.484375 17.84375 46.4375 
Q 14.5 44.390625 14.5 40.28125 
Q 14.5 37.15625 16.890625 35.375 
Q 19.28125 33.59375 26.515625 31.984375 
L 29.59375 31.296875 
Q 39.15625 29.25 43.1875 25.515625 
Q 47.21875 21.78125 47.21875 15.09375 
Q 47.21875 7.46875 41.1875 3.015625 
Q 35.15625 -1.421875 24.609375 -1.421875 
Q 20.21875 -1.421875 15.453125 -0.5625 
Q 10.6875 0.296875 5.421875 2 
L 5.421875 11.28125 
Q 10.40625 8.6875 15.234375 7.390625 
Q 20.0625 6.109375 24.8125 6.109375 
Q 31.15625 6.109375 34.5625 8.28125 
Q 37.984375 10.453125 37.984375 14.40625 
Q 37.984375 18.0625 35.515625 20.015625 
Q 33.0625 21.96875 24.703125 23.78125 
L 21.578125 24.515625 
Q 13.234375 26.265625 9.515625 29.90625 
Q 5.8125 33.546875 5.8125 39.890625 
Q 5.8125 47.609375 11.28125 51.796875 
Q 16.75 56 26.8125 56 
Q 31.78125 56 36.171875 55.265625 
Q 40.578125 54.546875 44.28125 53.078125 
z
" id="DejaVuSans-115"/>
     <path d="M 30.609375 48.390625 
Q 23.390625 48.390625 19.1875 42.75 
Q 14.984375 37.109375 14.984375 27.296875 
Q 14.984375 17.484375 19.15625 11.84375 
Q 23.34375 6.203125 30.609375 6.203125 
Q 37.796875 6.203125 41.984375 11.859375 
Q 46.1875 17.53125 46.1875 27.296875 
Q 46.1875 37.015625 41.984375 42.703125 
Q 37.796875 48.390625 30.609375 48.390625 
z
M 30.609375 56 
Q 42.328125 56 49.015625 48.375 
Q 55.71875 40.765625 55.71875 27.296875 
Q 55.71875 13.875 49.015625 6.21875 
Q 42.328125 -1.421875 30.609375 -1.421875 
Q 18.84375 -1.421875 12.171875 6.21875 
Q 5.515625 13.875 5.515625 27.296875 
Q 5.515625 40.765625 12.171875 48.375 
Q 18.84375 56 30.609375 56 
z
" id="DejaVuSans-111"/>
     <path d="M 54.890625 33.015625 
L 54.890625 0 
L 45.90625 0 
L 45.90625 32.71875 
Q 45.90625 40.484375 42.875 44.328125 
Q 39.84375 48.1875 33.796875 48.1875 
Q 26.515625 48.1875 22.3125 43.546875 
Q 18.109375 38.921875 18.109375 30.90625 
L 18.109375 0 
L 9.078125 0 
L 9.078125 54.6875 
L 18.109375 54.6875 
L 18.109375 46.1875 
Q 21.34375 51.125 25.703125 53.5625 
Q 30.078125 56 35.796875 56 
Q 45.21875 56 50.046875 50.171875 
Q 54.890625 44.34375 54.890625 33.015625 
z
" id="DejaVuSans-110"/>
    </defs>
    <g transform="translate(497.556 31.962)scale(0.144 -0.144)">
     <use xlink:href="#DejaVuSans-82"/>
     <use x="69.419922" xlink:href="#DejaVuSans-101"/>
     <use x="130.943359" xlink:href="#DejaVuSans-103"/>
     <use x="194.419922" xlink:href="#DejaVuSans-117"/>
     <use x="257.798828" xlink:href="#DejaVuSans-108"/>
     <use x="285.582031" xlink:href="#DejaVuSans-97"/>
     <use x="346.861328" xlink:href="#DejaVuSans-114"/>
     <use x="387.974609" xlink:href="#DejaVuSans-32"/>
     <use x="419.761719" xlink:href="#DejaVuSans-83"/>
     <use x="483.238281" xlink:href="#DejaVuSans-101"/>
     <use x="544.761719" xlink:href="#DejaVuSans-97"/>
     <use x="606.041016" xlink:href="#DejaVuSans-115"/>
     <use x="658.140625" xlink:href="#DejaVuSans-111"/>
     <use x="719.322266" xlink:href="#DejaVuSans-110"/>
     <use x="782.701172" xlink:href="#DejaVuSans-32"/>
    </g>
    <!--  Posterior distributions of $p_A$, $p_B$, and delta unknowns  -->
    <defs>
     <path d="M 19.671875 64.796875 
L 19.671875 37.40625 
L 32.078125 37.40625 
Q 38.96875 37.40625 42.71875 40.96875 
Q 46.484375 44.53125 46.484375 51.125 
Q 46.484375 57.671875 42.71875 61.234375 
Q 38.96875 64.796875 32.078125 64.796875 
z
M 9.8125 72.90625 
L 32.078125 72.90625 
Q 44.34375 72.90625 50.609375 67.359375 
Q 56.890625 61.8125 56.890625 51.125 
Q 56.890625 40.328125 50.609375 34.8125 
Q 44.34375 29.296875 32.078125 29.296875 
L 19.671875 29.296875 
L 19.671875 0 
L 9.8125 0 
z
" id="DejaVuSans-80"/>
     <path d="M 18.3125 70.21875 
L 18.3125 54.6875 
L 36.8125 54.6875 
L 36.8125 47.703125 
L 18.3125 47.703125 
L 18.3125 18.015625 
Q 18.3125 11.328125 20.140625 9.421875 
Q 21.96875 7.515625 27.59375 7.515625 
L 36.8125 7.515625 
L 36.8125 0 
L 27.59375 0 
Q 17.1875 0 13.234375 3.875 
Q 9.28125 7.765625 9.28125 18.015625 
L 9.28125 47.703125 
L 2.6875 47.703125 
L 2.6875 54.6875 
L 9.28125 54.6875 
L 9.28125 70.21875 
z
" id="DejaVuSans-116"/>
     <path d="M 9.421875 54.6875 
L 18.40625 54.6875 
L 18.40625 0 
L 9.421875 0 
z
M 9.421875 75.984375 
L 18.40625 75.984375 
L 18.40625 64.59375 
L 9.421875 64.59375 
z
" id="DejaVuSans-105"/>
     <path d="M 45.40625 46.390625 
L 45.40625 75.984375 
L 54.390625 75.984375 
L 54.390625 0 
L 45.40625 0 
L 45.40625 8.203125 
Q 42.578125 3.328125 38.25 0.953125 
Q 33.9375 -1.421875 27.875 -1.421875 
Q 17.96875 -1.421875 11.734375 6.484375 
Q 5.515625 14.40625 5.515625 27.296875 
Q 5.515625 40.1875 11.734375 48.09375 
Q 17.96875 56 27.875 56 
Q 33.9375 56 38.25 53.625 
Q 42.578125 51.265625 45.40625 46.390625 
z
M 14.796875 27.296875 
Q 14.796875 17.390625 18.875 11.75 
Q 22.953125 6.109375 30.078125 6.109375 
Q 37.203125 6.109375 41.296875 11.75 
Q 45.40625 17.390625 45.40625 27.296875 
Q 45.40625 37.203125 41.296875 42.84375 
Q 37.203125 48.484375 30.078125 48.484375 
Q 22.953125 48.484375 18.875 42.84375 
Q 14.796875 37.203125 14.796875 27.296875 
z
" id="DejaVuSans-100"/>
     <path d="M 48.6875 27.296875 
Q 48.6875 37.203125 44.609375 42.84375 
Q 40.53125 48.484375 33.40625 48.484375 
Q 26.265625 48.484375 22.1875 42.84375 
Q 18.109375 37.203125 18.109375 27.296875 
Q 18.109375 17.390625 22.1875 11.75 
Q 26.265625 6.109375 33.40625 6.109375 
Q 40.53125 6.109375 44.609375 11.75 
Q 48.6875 17.390625 48.6875 27.296875 
z
M 18.109375 46.390625 
Q 20.953125 51.265625 25.265625 53.625 
Q 29.59375 56 35.59375 56 
Q 45.5625 56 51.78125 48.09375 
Q 58.015625 40.1875 58.015625 27.296875 
Q 58.015625 14.40625 51.78125 6.484375 
Q 45.5625 -1.421875 35.59375 -1.421875 
Q 29.59375 -1.421875 25.265625 0.953125 
Q 20.953125 3.328125 18.109375 8.203125 
L 18.109375 0 
L 9.078125 0 
L 9.078125 75.984375 
L 18.109375 75.984375 
z
" id="DejaVuSans-98"/>
     <path d="M 37.109375 75.984375 
L 37.109375 68.5 
L 28.515625 68.5 
Q 23.6875 68.5 21.796875 66.546875 
Q 19.921875 64.59375 19.921875 59.515625 
L 19.921875 54.6875 
L 34.71875 54.6875 
L 34.71875 47.703125 
L 19.921875 47.703125 
L 19.921875 0 
L 10.890625 0 
L 10.890625 47.703125 
L 2.296875 47.703125 
L 2.296875 54.6875 
L 10.890625 54.6875 
L 10.890625 58.5 
Q 10.890625 67.625 15.140625 71.796875 
Q 19.390625 75.984375 28.609375 75.984375 
z
" id="DejaVuSans-102"/>
     <path d="M 49.609375 33.6875 
Q 49.609375 40.875 46.484375 44.671875 
Q 43.359375 48.484375 37.5 48.484375 
Q 33.5 48.484375 29.859375 46.4375 
Q 26.21875 44.390625 23.390625 40.484375 
Q 20.609375 36.625 18.9375 31.15625 
Q 17.28125 25.6875 17.28125 20.3125 
Q 17.28125 13.484375 20.40625 9.796875 
Q 23.53125 6.109375 29.296875 6.109375 
Q 33.546875 6.109375 37.1875 8.109375 
Q 40.828125 10.109375 43.40625 13.921875 
Q 46.1875 17.921875 47.890625 23.34375 
Q 49.609375 28.765625 49.609375 33.6875 
z
M 21.78125 46.390625 
Q 25.390625 51.125 30.296875 53.5625 
Q 35.203125 56 41.21875 56 
Q 49.609375 56 54.25 50.5 
Q 58.890625 45.015625 58.890625 35.109375 
Q 58.890625 27 56 19.65625 
Q 53.125 12.3125 47.703125 6.5 
Q 44.09375 2.640625 39.546875 0.609375 
Q 35.015625 -1.421875 29.984375 -1.421875 
Q 24.171875 -1.421875 20.21875 1 
Q 16.265625 3.421875 14.3125 8.203125 
L 8.6875 -20.796875 
L -0.296875 -20.796875 
L 14.40625 54.6875 
L 23.390625 54.6875 
z
" id="DejaVuSans-Oblique-112"/>
     <path d="M 36.8125 72.90625 
L 48 72.90625 
L 61.53125 0 
L 51.21875 0 
L 48.1875 18.703125 
L 15.375 18.703125 
L 5.078125 0 
L -5.328125 0 
z
M 40.375 63.1875 
L 19.921875 26.90625 
L 46.6875 26.90625 
z
" id="DejaVuSans-Oblique-65"/>
     <path d="M 11.71875 12.40625 
L 22.015625 12.40625 
L 22.015625 4 
L 14.015625 -11.625 
L 7.71875 -11.625 
L 11.71875 4 
z
" id="DejaVuSans-44"/>
     <path d="M 16.890625 72.90625 
L 42.09375 72.90625 
Q 52.34375 72.90625 57.421875 69.09375 
Q 62.5 65.28125 62.5 57.625 
Q 62.5 50.59375 58.125 45.484375 
Q 53.765625 40.375 46.6875 39.3125 
Q 52.734375 37.9375 55.765625 34.078125 
Q 58.796875 30.21875 58.796875 23.78125 
Q 58.796875 12.796875 50.65625 6.390625 
Q 42.53125 0 28.421875 0 
L 2.6875 0 
z
M 19.28125 34.8125 
L 14.109375 8.109375 
L 29.984375 8.109375 
Q 38.921875 8.109375 43.75 12.203125 
Q 48.578125 16.3125 48.578125 23.78125 
Q 48.578125 29.546875 45.375 32.171875 
Q 42.1875 34.8125 35.109375 34.8125 
z
M 25.09375 64.796875 
L 20.796875 42.828125 
L 35.5 42.828125 
Q 43.359375 42.828125 47.78125 46.234375 
Q 52.203125 49.65625 52.203125 55.71875 
Q 52.203125 60.453125 49.21875 62.625 
Q 46.234375 64.796875 39.703125 64.796875 
z
" id="DejaVuSans-Oblique-66"/>
     <path d="M 9.078125 75.984375 
L 18.109375 75.984375 
L 18.109375 31.109375 
L 44.921875 54.6875 
L 56.390625 54.6875 
L 27.390625 29.109375 
L 57.625 0 
L 45.90625 0 
L 18.109375 26.703125 
L 18.109375 0 
L 9.078125 0 
z
" id="DejaVuSans-107"/>
     <path d="M 4.203125 54.6875 
L 13.1875 54.6875 
L 24.421875 12.015625 
L 35.59375 54.6875 
L 46.1875 54.6875 
L 57.421875 12.015625 
L 68.609375 54.6875 
L 77.59375 54.6875 
L 63.28125 0 
L 52.6875 0 
L 40.921875 44.828125 
L 29.109375 0 
L 18.5 0 
z
" id="DejaVuSans-119"/>
    </defs>
    <g transform="translate(362.52 48.08955)scale(0.144 -0.144)">
     <use transform="translate(0 0.015625)" xlink:href="#DejaVuSans-32"/>
     <use transform="translate(31.787109 0.015625)" xlink:href="#DejaVuSans-80"/>
     <use transform="translate(92.089844 0.015625)" xlink:href="#DejaVuSans-111"/>
     <use transform="translate(153.271484 0.015625)" xlink:href="#DejaVuSans-115"/>
     <use transform="translate(205.371094 0.015625)" xlink:href="#DejaVuSans-116"/>
     <use transform="translate(244.580078 0.015625)" xlink:href="#DejaVuSans-101"/>
     <use transform="translate(306.103516 0.015625)" xlink:href="#DejaVuSans-114"/>
     <use transform="translate(347.216797 0.015625)" xlink:href="#DejaVuSans-105"/>
     <use transform="translate(375 0.015625)" xlink:href="#DejaVuSans-111"/>
     <use transform="translate(436.181641 0.015625)" xlink:href="#DejaVuSans-114"/>
     <use transform="translate(477.294922 0.015625)" xlink:href="#DejaVuSans-32"/>
     <use transform="translate(509.082031 0.015625)" xlink:href="#DejaVuSans-100"/>
     <use transform="translate(572.558594 0.015625)" xlink:href="#DejaVuSans-105"/>
     <use transform="translate(600.341797 0.015625)" xlink:href="#DejaVuSans-115"/>
     <use transform="translate(652.441406 0.015625)" xlink:href="#DejaVuSans-116"/>
     <use transform="translate(691.650391 0.015625)" xlink:href="#DejaVuSans-114"/>
     <use transform="translate(732.763672 0.015625)" xlink:href="#DejaVuSans-105"/>
     <use transform="translate(760.546875 0.015625)" xlink:href="#DejaVuSans-98"/>
     <use transform="translate(824.023438 0.015625)" xlink:href="#DejaVuSans-117"/>
     <use transform="translate(887.402344 0.015625)" xlink:href="#DejaVuSans-116"/>
     <use transform="translate(926.611328 0.015625)" xlink:href="#DejaVuSans-105"/>
     <use transform="translate(954.394531 0.015625)" xlink:href="#DejaVuSans-111"/>
     <use transform="translate(1015.576172 0.015625)" xlink:href="#DejaVuSans-110"/>
     <use transform="translate(1078.955078 0.015625)" xlink:href="#DejaVuSans-115"/>
     <use transform="translate(1131.054688 0.015625)" xlink:href="#DejaVuSans-32"/>
     <use transform="translate(1162.841797 0.015625)" xlink:href="#DejaVuSans-111"/>
     <use transform="translate(1224.023438 0.015625)" xlink:href="#DejaVuSans-102"/>
     <use transform="translate(1259.228516 0.015625)" xlink:href="#DejaVuSans-32"/>
     <use transform="translate(1291.015625 0.015625)" xlink:href="#DejaVuSans-Oblique-112"/>
     <use transform="translate(1354.492188 -16.390625)scale(0.7)" xlink:href="#DejaVuSans-Oblique-65"/>
     <use transform="translate(1405.112305 0.015625)" xlink:href="#DejaVuSans-44"/>
     <use transform="translate(1436.899414 0.015625)" xlink:href="#DejaVuSans-32"/>
     <use transform="translate(1468.686523 0.015625)" xlink:href="#DejaVuSans-Oblique-112"/>
     <use transform="translate(1532.163086 -16.390625)scale(0.7)" xlink:href="#DejaVuSans-Oblique-66"/>
     <use transform="translate(1582.919922 0.015625)" xlink:href="#DejaVuSans-44"/>
     <use transform="translate(1614.707031 0.015625)" xlink:href="#DejaVuSans-32"/>
     <use transform="translate(1646.494141 0.015625)" xlink:href="#DejaVuSans-97"/>
     <use transform="translate(1707.773438 0.015625)" xlink:href="#DejaVuSans-110"/>
     <use transform="translate(1771.152344 0.015625)" xlink:href="#DejaVuSans-100"/>
     <use transform="translate(1834.628906 0.015625)" xlink:href="#DejaVuSans-32"/>
     <use transform="translate(1866.416016 0.015625)" xlink:href="#DejaVuSans-100"/>
     <use transform="translate(1929.892578 0.015625)" xlink:href="#DejaVuSans-101"/>
     <use transform="translate(1991.416016 0.015625)" xlink:href="#DejaVuSans-108"/>
     <use transform="translate(2019.199219 0.015625)" xlink:href="#DejaVuSans-116"/>
     <use transform="translate(2058.408203 0.015625)" xlink:href="#DejaVuSans-97"/>
     <use transform="translate(2119.6875 0.015625)" xlink:href="#DejaVuSans-32"/>
     <use transform="translate(2151.474609 0.015625)" xlink:href="#DejaVuSans-117"/>
     <use transform="translate(2214.853516 0.015625)" xlink:href="#DejaVuSans-110"/>
     <use transform="translate(2278.232422 0.015625)" xlink:href="#DejaVuSans-107"/>
     <use transform="translate(2336.142578 0.015625)" xlink:href="#DejaVuSans-110"/>
     <use transform="translate(2399.521484 0.015625)" xlink:href="#DejaVuSans-111"/>
     <use transform="translate(2460.703125 0.015625)" xlink:href="#DejaVuSans-119"/>
     <use transform="translate(2542.490234 0.015625)" xlink:href="#DejaVuSans-110"/>
     <use transform="translate(2605.869141 0.015625)" xlink:href="#DejaVuSans-115"/>
     <use transform="translate(2657.96875 0.015625)" xlink:href="#DejaVuSans-32"/>
    </g>
    <!--  -->
    <g transform="translate(556.2 64.24365)scale(0.144 -0.144)"/>
    <!--  $p_A$: Mean Win % with KD -->
    <defs>
     <path d="M 11.71875 12.40625 
L 22.015625 12.40625 
L 22.015625 0 
L 11.71875 0 
z
M 11.71875 51.703125 
L 22.015625 51.703125 
L 22.015625 39.3125 
L 11.71875 39.3125 
z
" id="DejaVuSans-58"/>
     <path d="M 9.8125 72.90625 
L 24.515625 72.90625 
L 43.109375 23.296875 
L 61.8125 72.90625 
L 76.515625 72.90625 
L 76.515625 0 
L 66.890625 0 
L 66.890625 64.015625 
L 48.09375 14.015625 
L 38.1875 14.015625 
L 19.390625 64.015625 
L 19.390625 0 
L 9.8125 0 
z
" id="DejaVuSans-77"/>
     <path d="M 3.328125 72.90625 
L 13.28125 72.90625 
L 28.609375 11.28125 
L 43.890625 72.90625 
L 54.984375 72.90625 
L 70.3125 11.28125 
L 85.59375 72.90625 
L 95.609375 72.90625 
L 77.296875 0 
L 64.890625 0 
L 49.515625 63.28125 
L 33.984375 0 
L 21.578125 0 
z
" id="DejaVuSans-87"/>
     <path d="M 72.703125 32.078125 
Q 68.453125 32.078125 66.03125 28.46875 
Q 63.625 24.859375 63.625 18.40625 
Q 63.625 12.0625 66.03125 8.421875 
Q 68.453125 4.78125 72.703125 4.78125 
Q 76.859375 4.78125 79.265625 8.421875 
Q 81.6875 12.0625 81.6875 18.40625 
Q 81.6875 24.8125 79.265625 28.4375 
Q 76.859375 32.078125 72.703125 32.078125 
z
M 72.703125 38.28125 
Q 80.421875 38.28125 84.953125 32.90625 
Q 89.5 27.546875 89.5 18.40625 
Q 89.5 9.28125 84.9375 3.921875 
Q 80.375 -1.421875 72.703125 -1.421875 
Q 64.890625 -1.421875 60.34375 3.921875 
Q 55.8125 9.28125 55.8125 18.40625 
Q 55.8125 27.59375 60.375 32.9375 
Q 64.9375 38.28125 72.703125 38.28125 
z
M 22.3125 68.015625 
Q 18.109375 68.015625 15.6875 64.375 
Q 13.28125 60.75 13.28125 54.390625 
Q 13.28125 47.953125 15.671875 44.328125 
Q 18.0625 40.71875 22.3125 40.71875 
Q 26.5625 40.71875 28.96875 44.328125 
Q 31.390625 47.953125 31.390625 54.390625 
Q 31.390625 60.6875 28.953125 64.34375 
Q 26.515625 68.015625 22.3125 68.015625 
z
M 66.40625 74.21875 
L 74.21875 74.21875 
L 28.609375 -1.421875 
L 20.796875 -1.421875 
z
M 22.3125 74.21875 
Q 30.03125 74.21875 34.609375 68.875 
Q 39.203125 63.53125 39.203125 54.390625 
Q 39.203125 45.171875 34.640625 39.84375 
Q 30.078125 34.515625 22.3125 34.515625 
Q 14.546875 34.515625 10.03125 39.859375 
Q 5.515625 45.21875 5.515625 54.390625 
Q 5.515625 63.484375 10.046875 68.84375 
Q 14.59375 74.21875 22.3125 74.21875 
z
" id="DejaVuSans-37"/>
     <path d="M 54.890625 33.015625 
L 54.890625 0 
L 45.90625 0 
L 45.90625 32.71875 
Q 45.90625 40.484375 42.875 44.328125 
Q 39.84375 48.1875 33.796875 48.1875 
Q 26.515625 48.1875 22.3125 43.546875 
Q 18.109375 38.921875 18.109375 30.90625 
L 18.109375 0 
L 9.078125 0 
L 9.078125 75.984375 
L 18.109375 75.984375 
L 18.109375 46.1875 
Q 21.34375 51.125 25.703125 53.5625 
Q 30.078125 56 35.796875 56 
Q 45.21875 56 50.046875 50.171875 
Q 54.890625 44.34375 54.890625 33.015625 
z
" id="DejaVuSans-104"/>
     <path d="M 9.8125 72.90625 
L 19.671875 72.90625 
L 19.671875 42.09375 
L 52.390625 72.90625 
L 65.09375 72.90625 
L 28.90625 38.921875 
L 67.671875 0 
L 54.6875 0 
L 19.671875 35.109375 
L 19.671875 0 
L 9.8125 0 
z
" id="DejaVuSans-75"/>
     <path d="M 19.671875 64.796875 
L 19.671875 8.109375 
L 31.59375 8.109375 
Q 46.6875 8.109375 53.6875 14.9375 
Q 60.6875 21.78125 60.6875 36.53125 
Q 60.6875 51.171875 53.6875 57.984375 
Q 46.6875 64.796875 31.59375 64.796875 
z
M 9.8125 72.90625 
L 30.078125 72.90625 
Q 51.265625 72.90625 61.171875 64.09375 
Q 71.09375 55.28125 71.09375 36.53125 
Q 71.09375 17.671875 61.125 8.828125 
Q 51.171875 0 30.078125 0 
L 9.8125 0 
z
" id="DejaVuSans-68"/>
    </defs>
    <g transform="translate(466.128 80.3712)scale(0.144 -0.144)">
     <use transform="translate(0 0.015625)" xlink:href="#DejaVuSans-32"/>
     <use transform="translate(31.787109 0.015625)" xlink:href="#DejaVuSans-Oblique-112"/>
     <use transform="translate(95.263672 -16.390625)scale(0.7)" xlink:href="#DejaVuSans-Oblique-65"/>
     <use transform="translate(145.883789 0.015625)" xlink:href="#DejaVuSans-58"/>
     <use transform="translate(179.575195 0.015625)" xlink:href="#DejaVuSans-32"/>
     <use transform="translate(211.362305 0.015625)" xlink:href="#DejaVuSans-77"/>
     <use transform="translate(297.641602 0.015625)" xlink:href="#DejaVuSans-101"/>
     <use transform="translate(359.165039 0.015625)" xlink:href="#DejaVuSans-97"/>
     <use transform="translate(420.444336 0.015625)" xlink:href="#DejaVuSans-110"/>
     <use transform="translate(483.823242 0.015625)" xlink:href="#DejaVuSans-32"/>
     <use transform="translate(515.610352 0.015625)" xlink:href="#DejaVuSans-87"/>
     <use transform="translate(614.487305 0.015625)" xlink:href="#DejaVuSans-105"/>
     <use transform="translate(642.270508 0.015625)" xlink:href="#DejaVuSans-110"/>
     <use transform="translate(705.649414 0.015625)" xlink:href="#DejaVuSans-32"/>
     <use transform="translate(737.436523 0.015625)" xlink:href="#DejaVuSans-37"/>
     <use transform="translate(832.456055 0.015625)" xlink:href="#DejaVuSans-32"/>
     <use transform="translate(864.243164 0.015625)" xlink:href="#DejaVuSans-119"/>
     <use transform="translate(946.030273 0.015625)" xlink:href="#DejaVuSans-105"/>
     <use transform="translate(973.813477 0.015625)" xlink:href="#DejaVuSans-116"/>
     <use transform="translate(1013.022461 0.015625)" xlink:href="#DejaVuSans-104"/>
     <use transform="translate(1076.401367 0.015625)" xlink:href="#DejaVuSans-32"/>
     <use transform="translate(1108.188477 0.015625)" xlink:href="#DejaVuSans-75"/>
     <use transform="translate(1173.764648 0.015625)" xlink:href="#DejaVuSans-68"/>
    </g>
   </g>
   <g id="legend_1">
    <g id="patch_8">
     <path d="M 914.7 153.134375 
L 1019 153.134375 
Q 1021 153.134375 1021 151.134375 
L 1021 93.4 
Q 1021 91.4 1019 91.4 
L 914.7 91.4 
Q 912.7 91.4 912.7 93.4 
L 912.7 151.134375 
Q 912.7 153.134375 914.7 153.134375 
z
" style="fill:#f0f0f0;opacity:0.8;stroke:#cccccc;stroke-linejoin:miter;stroke-width:0.5;"/>
    </g>
    <g id="patch_9">
     <path d="M 916.7 103 
L 936.7 103 
L 936.7 96 
L 916.7 96 
z
" style="fill:#006bb6;opacity:0.85;"/>
    </g>
    <g id="text_15">
     <!-- posterior of $p_A$ -->
     <defs>
      <path d="M 18.109375 8.203125 
L 18.109375 -20.796875 
L 9.078125 -20.796875 
L 9.078125 54.6875 
L 18.109375 54.6875 
L 18.109375 46.390625 
Q 20.953125 51.265625 25.265625 53.625 
Q 29.59375 56 35.59375 56 
Q 45.5625 56 51.78125 48.09375 
Q 58.015625 40.1875 58.015625 27.296875 
Q 58.015625 14.40625 51.78125 6.484375 
Q 45.5625 -1.421875 35.59375 -1.421875 
Q 29.59375 -1.421875 25.265625 0.953125 
Q 20.953125 3.328125 18.109375 8.203125 
z
M 48.6875 27.296875 
Q 48.6875 37.203125 44.609375 42.84375 
Q 40.53125 48.484375 33.40625 48.484375 
Q 26.265625 48.484375 22.1875 42.84375 
Q 18.109375 37.203125 18.109375 27.296875 
Q 18.109375 17.390625 22.1875 11.75 
Q 26.265625 6.109375 33.40625 6.109375 
Q 40.53125 6.109375 44.609375 11.75 
Q 48.6875 17.390625 48.6875 27.296875 
z
" id="DejaVuSans-112"/>
     </defs>
     <g transform="translate(944.7 103)scale(0.1 -0.1)">
      <use transform="translate(0 0.015625)" xlink:href="#DejaVuSans-112"/>
      <use transform="translate(63.476562 0.015625)" xlink:href="#DejaVuSans-111"/>
      <use transform="translate(124.658203 0.015625)" xlink:href="#DejaVuSans-115"/>
      <use transform="translate(176.757812 0.015625)" xlink:href="#DejaVuSans-116"/>
      <use transform="translate(215.966797 0.015625)" xlink:href="#DejaVuSans-101"/>
      <use transform="translate(277.490234 0.015625)" xlink:href="#DejaVuSans-114"/>
      <use transform="translate(318.603516 0.015625)" xlink:href="#DejaVuSans-105"/>
      <use transform="translate(346.386719 0.015625)" xlink:href="#DejaVuSans-111"/>
      <use transform="translate(407.568359 0.015625)" xlink:href="#DejaVuSans-114"/>
      <use transform="translate(448.681641 0.015625)" xlink:href="#DejaVuSans-32"/>
      <use transform="translate(480.46875 0.015625)" xlink:href="#DejaVuSans-111"/>
      <use transform="translate(541.650391 0.015625)" xlink:href="#DejaVuSans-102"/>
      <use transform="translate(576.855469 0.015625)" xlink:href="#DejaVuSans-32"/>
      <use transform="translate(608.642578 0.015625)" xlink:href="#DejaVuSans-Oblique-112"/>
      <use transform="translate(672.119141 -16.390625)scale(0.7)" xlink:href="#DejaVuSans-Oblique-65"/>
     </g>
    </g>
    <g id="line2d_27">
     <path d="M 916.7 114.198437 
L 936.7 114.198437 
" style="fill:none;stroke:#ffffff;stroke-dasharray:14.8,6.4;stroke-dashoffset:0;stroke-opacity:0.5;stroke-width:4;"/>
    </g>
    <g id="text_16">
     <!-- mean -->
     <defs>
      <path d="M 52 44.1875 
Q 55.375 50.25 60.0625 53.125 
Q 64.75 56 71.09375 56 
Q 79.640625 56 84.28125 50.015625 
Q 88.921875 44.046875 88.921875 33.015625 
L 88.921875 0 
L 79.890625 0 
L 79.890625 32.71875 
Q 79.890625 40.578125 77.09375 44.375 
Q 74.3125 48.1875 68.609375 48.1875 
Q 61.625 48.1875 57.5625 43.546875 
Q 53.515625 38.921875 53.515625 30.90625 
L 53.515625 0 
L 44.484375 0 
L 44.484375 32.71875 
Q 44.484375 40.625 41.703125 44.40625 
Q 38.921875 48.1875 33.109375 48.1875 
Q 26.21875 48.1875 22.15625 43.53125 
Q 18.109375 38.875 18.109375 30.90625 
L 18.109375 0 
L 9.078125 0 
L 9.078125 54.6875 
L 18.109375 54.6875 
L 18.109375 46.1875 
Q 21.1875 51.21875 25.484375 53.609375 
Q 29.78125 56 35.6875 56 
Q 41.65625 56 45.828125 52.96875 
Q 50 49.953125 52 44.1875 
z
" id="DejaVuSans-109"/>
     </defs>
     <g transform="translate(944.7 117.698437)scale(0.1 -0.1)">
      <use xlink:href="#DejaVuSans-109"/>
      <use x="97.412109" xlink:href="#DejaVuSans-101"/>
      <use x="158.935547" xlink:href="#DejaVuSans-97"/>
      <use x="220.214844" xlink:href="#DejaVuSans-110"/>
     </g>
    </g>
    <g id="line2d_28">
     <path d="M 916.7 128.876562 
L 936.7 128.876562 
" style="fill:none;stroke:#000000;stroke-dasharray:14.8,6.4;stroke-dashoffset:0;stroke-opacity:0.5;stroke-width:4;"/>
    </g>
    <g id="text_17">
     <!-- 2.5% -->
     <defs>
      <path d="M 10.796875 72.90625 
L 49.515625 72.90625 
L 49.515625 64.59375 
L 19.828125 64.59375 
L 19.828125 46.734375 
Q 21.96875 47.46875 24.109375 47.828125 
Q 26.265625 48.1875 28.421875 48.1875 
Q 40.625 48.1875 47.75 41.5 
Q 54.890625 34.8125 54.890625 23.390625 
Q 54.890625 11.625 47.5625 5.09375 
Q 40.234375 -1.421875 26.90625 -1.421875 
Q 22.3125 -1.421875 17.546875 -0.640625 
Q 12.796875 0.140625 7.71875 1.703125 
L 7.71875 11.625 
Q 12.109375 9.234375 16.796875 8.0625 
Q 21.484375 6.890625 26.703125 6.890625 
Q 35.15625 6.890625 40.078125 11.328125 
Q 45.015625 15.765625 45.015625 23.390625 
Q 45.015625 31 40.078125 35.4375 
Q 35.15625 39.890625 26.703125 39.890625 
Q 22.75 39.890625 18.8125 39.015625 
Q 14.890625 38.140625 10.796875 36.28125 
z
" id="DejaVuSans-53"/>
     </defs>
     <g transform="translate(944.7 132.376562)scale(0.1 -0.1)">
      <use xlink:href="#DejaVuSans-50"/>
      <use x="63.623047" xlink:href="#DejaVuSans-46"/>
      <use x="95.410156" xlink:href="#DejaVuSans-53"/>
      <use x="159.033203" xlink:href="#DejaVuSans-37"/>
     </g>
    </g>
    <g id="line2d_29">
     <path d="M 916.7 143.554688 
L 936.7 143.554688 
" style="fill:none;stroke:#000000;stroke-dasharray:14.8,6.4;stroke-dashoffset:0;stroke-opacity:0.5;stroke-width:4;"/>
    </g>
    <g id="text_18">
     <!-- 97.5% -->
     <defs>
      <path d="M 10.984375 1.515625 
L 10.984375 10.5 
Q 14.703125 8.734375 18.5 7.8125 
Q 22.3125 6.890625 25.984375 6.890625 
Q 35.75 6.890625 40.890625 13.453125 
Q 46.046875 20.015625 46.78125 33.40625 
Q 43.953125 29.203125 39.59375 26.953125 
Q 35.25 24.703125 29.984375 24.703125 
Q 19.046875 24.703125 12.671875 31.3125 
Q 6.296875 37.9375 6.296875 49.421875 
Q 6.296875 60.640625 12.9375 67.421875 
Q 19.578125 74.21875 30.609375 74.21875 
Q 43.265625 74.21875 49.921875 64.515625 
Q 56.59375 54.828125 56.59375 36.375 
Q 56.59375 19.140625 48.40625 8.859375 
Q 40.234375 -1.421875 26.421875 -1.421875 
Q 22.703125 -1.421875 18.890625 -0.6875 
Q 15.09375 0.046875 10.984375 1.515625 
z
M 30.609375 32.421875 
Q 37.25 32.421875 41.125 36.953125 
Q 45.015625 41.5 45.015625 49.421875 
Q 45.015625 57.28125 41.125 61.84375 
Q 37.25 66.40625 30.609375 66.40625 
Q 23.96875 66.40625 20.09375 61.84375 
Q 16.21875 57.28125 16.21875 49.421875 
Q 16.21875 41.5 20.09375 36.953125 
Q 23.96875 32.421875 30.609375 32.421875 
z
" id="DejaVuSans-57"/>
      <path d="M 8.203125 72.90625 
L 55.078125 72.90625 
L 55.078125 68.703125 
L 28.609375 0 
L 18.3125 0 
L 43.21875 64.59375 
L 8.203125 64.59375 
z
" id="DejaVuSans-55"/>
     </defs>
     <g transform="translate(944.7 147.054688)scale(0.1 -0.1)">
      <use xlink:href="#DejaVuSans-57"/>
      <use x="63.623047" xlink:href="#DejaVuSans-55"/>
      <use x="127.246094" xlink:href="#DejaVuSans-46"/>
      <use x="159.033203" xlink:href="#DejaVuSans-53"/>
      <use x="222.65625" xlink:href="#DejaVuSans-37"/>
     </g>
    </g>
   </g>
  </g>
  <g id="axes_2">
   <g id="patch_10">
    <path d="M 86.4 438.141176 
L 1026 438.141176 
L 1026 278.258824 
L 86.4 278.258824 
z
" style="fill:#f0f0f0;"/>
   </g>
   <g id="matplotlib.axis_3">
    <g id="xtick_7">
     <g id="line2d_30">
      <path clip-path="url(#p2347d93e02)" d="M 86.4 438.141176 
L 86.4 278.258824 
" style="fill:none;stroke:#cbcbcb;"/>
     </g>
     <g id="line2d_31"/>
     <g id="text_19">
      <!-- 0.0 -->
      <g transform="translate(78.448438 449.239614)scale(0.1 -0.1)">
       <use xlink:href="#DejaVuSans-48"/>
       <use x="63.623047" xlink:href="#DejaVuSans-46"/>
       <use x="95.410156" xlink:href="#DejaVuSans-48"/>
      </g>
     </g>
    </g>
    <g id="xtick_8">
     <g id="line2d_32">
      <path clip-path="url(#p2347d93e02)" d="M 274.32 438.141176 
L 274.32 278.258824 
" style="fill:none;stroke:#cbcbcb;"/>
     </g>
     <g id="line2d_33"/>
     <g id="text_20">
      <!-- 0.2 -->
      <g transform="translate(266.368438 449.239614)scale(0.1 -0.1)">
       <use xlink:href="#DejaVuSans-48"/>
       <use x="63.623047" xlink:href="#DejaVuSans-46"/>
       <use x="95.410156" xlink:href="#DejaVuSans-50"/>
      </g>
     </g>
    </g>
    <g id="xtick_9">
     <g id="line2d_34">
      <path clip-path="url(#p2347d93e02)" d="M 462.24 438.141176 
L 462.24 278.258824 
" style="fill:none;stroke:#cbcbcb;"/>
     </g>
     <g id="line2d_35"/>
     <g id="text_21">
      <!-- 0.4 -->
      <g transform="translate(454.288437 449.239614)scale(0.1 -0.1)">
       <use xlink:href="#DejaVuSans-48"/>
       <use x="63.623047" xlink:href="#DejaVuSans-46"/>
       <use x="95.410156" xlink:href="#DejaVuSans-52"/>
      </g>
     </g>
    </g>
    <g id="xtick_10">
     <g id="line2d_36">
      <path clip-path="url(#p2347d93e02)" d="M 650.16 438.141176 
L 650.16 278.258824 
" style="fill:none;stroke:#cbcbcb;"/>
     </g>
     <g id="line2d_37"/>
     <g id="text_22">
      <!-- 0.6 -->
      <g transform="translate(642.208438 449.239614)scale(0.1 -0.1)">
       <use xlink:href="#DejaVuSans-48"/>
       <use x="63.623047" xlink:href="#DejaVuSans-46"/>
       <use x="95.410156" xlink:href="#DejaVuSans-54"/>
      </g>
     </g>
    </g>
    <g id="xtick_11">
     <g id="line2d_38">
      <path clip-path="url(#p2347d93e02)" d="M 838.08 438.141176 
L 838.08 278.258824 
" style="fill:none;stroke:#cbcbcb;"/>
     </g>
     <g id="line2d_39"/>
     <g id="text_23">
      <!-- 0.8 -->
      <g transform="translate(830.128438 449.239614)scale(0.1 -0.1)">
       <use xlink:href="#DejaVuSans-48"/>
       <use x="63.623047" xlink:href="#DejaVuSans-46"/>
       <use x="95.410156" xlink:href="#DejaVuSans-56"/>
      </g>
     </g>
    </g>
    <g id="xtick_12">
     <g id="line2d_40">
      <path clip-path="url(#p2347d93e02)" d="M 1026 438.141176 
L 1026 278.258824 
" style="fill:none;stroke:#cbcbcb;"/>
     </g>
     <g id="line2d_41"/>
     <g id="text_24">
      <!-- 1.0 -->
      <g transform="translate(1018.048437 449.239614)scale(0.1 -0.1)">
       <use xlink:href="#DejaVuSans-49"/>
       <use x="63.623047" xlink:href="#DejaVuSans-46"/>
       <use x="95.410156" xlink:href="#DejaVuSans-48"/>
      </g>
     </g>
    </g>
   </g>
   <g id="matplotlib.axis_4">
    <g id="ytick_8">
     <g id="line2d_42">
      <path clip-path="url(#p2347d93e02)" d="M 86.4 438.141176 
L 1026 438.141176 
" style="fill:none;stroke:#cbcbcb;"/>
     </g>
     <g id="line2d_43"/>
     <g id="text_25">
      <!-- 0 -->
      <g transform="translate(76.5375 441.940395)scale(0.1 -0.1)">
       <use xlink:href="#DejaVuSans-48"/>
      </g>
     </g>
    </g>
    <g id="ytick_9">
     <g id="line2d_44">
      <path clip-path="url(#p2347d93e02)" d="M 86.4 411.736587 
L 1026 411.736587 
" style="fill:none;stroke:#cbcbcb;"/>
     </g>
     <g id="line2d_45"/>
     <g id="text_26">
      <!-- 1 -->
      <g transform="translate(76.5375 415.535805)scale(0.1 -0.1)">
       <use xlink:href="#DejaVuSans-49"/>
      </g>
     </g>
    </g>
    <g id="ytick_10">
     <g id="line2d_46">
      <path clip-path="url(#p2347d93e02)" d="M 86.4 385.331997 
L 1026 385.331997 
" style="fill:none;stroke:#cbcbcb;"/>
     </g>
     <g id="line2d_47"/>
     <g id="text_27">
      <!-- 2 -->
      <g transform="translate(76.5375 389.131216)scale(0.1 -0.1)">
       <use xlink:href="#DejaVuSans-50"/>
      </g>
     </g>
    </g>
    <g id="ytick_11">
     <g id="line2d_48">
      <path clip-path="url(#p2347d93e02)" d="M 86.4 358.927407 
L 1026 358.927407 
" style="fill:none;stroke:#cbcbcb;"/>
     </g>
     <g id="line2d_49"/>
     <g id="text_28">
      <!-- 3 -->
      <defs>
       <path d="M 40.578125 39.3125 
Q 47.65625 37.796875 51.625 33 
Q 55.609375 28.21875 55.609375 21.1875 
Q 55.609375 10.40625 48.1875 4.484375 
Q 40.765625 -1.421875 27.09375 -1.421875 
Q 22.515625 -1.421875 17.65625 -0.515625 
Q 12.796875 0.390625 7.625 2.203125 
L 7.625 11.71875 
Q 11.71875 9.328125 16.59375 8.109375 
Q 21.484375 6.890625 26.8125 6.890625 
Q 36.078125 6.890625 40.9375 10.546875 
Q 45.796875 14.203125 45.796875 21.1875 
Q 45.796875 27.640625 41.28125 31.265625 
Q 36.765625 34.90625 28.71875 34.90625 
L 20.21875 34.90625 
L 20.21875 43.015625 
L 29.109375 43.015625 
Q 36.375 43.015625 40.234375 45.921875 
Q 44.09375 48.828125 44.09375 54.296875 
Q 44.09375 59.90625 40.109375 62.90625 
Q 36.140625 65.921875 28.71875 65.921875 
Q 24.65625 65.921875 20.015625 65.03125 
Q 15.375 64.15625 9.8125 62.3125 
L 9.8125 71.09375 
Q 15.4375 72.65625 20.34375 73.4375 
Q 25.25 74.21875 29.59375 74.21875 
Q 40.828125 74.21875 47.359375 69.109375 
Q 53.90625 64.015625 53.90625 55.328125 
Q 53.90625 49.265625 50.4375 45.09375 
Q 46.96875 40.921875 40.578125 39.3125 
z
" id="DejaVuSans-51"/>
      </defs>
      <g transform="translate(76.5375 362.726626)scale(0.1 -0.1)">
       <use xlink:href="#DejaVuSans-51"/>
      </g>
     </g>
    </g>
    <g id="ytick_12">
     <g id="line2d_50">
      <path clip-path="url(#p2347d93e02)" d="M 86.4 332.522817 
L 1026 332.522817 
" style="fill:none;stroke:#cbcbcb;"/>
     </g>
     <g id="line2d_51"/>
     <g id="text_29">
      <!-- 4 -->
      <g transform="translate(76.5375 336.322036)scale(0.1 -0.1)">
       <use xlink:href="#DejaVuSans-52"/>
      </g>
     </g>
    </g>
    <g id="ytick_13">
     <g id="line2d_52">
      <path clip-path="url(#p2347d93e02)" d="M 86.4 306.118228 
L 1026 306.118228 
" style="fill:none;stroke:#cbcbcb;"/>
     </g>
     <g id="line2d_53"/>
     <g id="text_30">
      <!-- 5 -->
      <g transform="translate(76.5375 309.917446)scale(0.1 -0.1)">
       <use xlink:href="#DejaVuSans-53"/>
      </g>
     </g>
    </g>
    <g id="ytick_14">
     <g id="line2d_54">
      <path clip-path="url(#p2347d93e02)" d="M 86.4 279.713638 
L 1026 279.713638 
" style="fill:none;stroke:#cbcbcb;"/>
     </g>
     <g id="line2d_55"/>
     <g id="text_31">
      <!-- 6 -->
      <g transform="translate(76.5375 283.512857)scale(0.1 -0.1)">
       <use xlink:href="#DejaVuSans-54"/>
      </g>
     </g>
    </g>
   </g>
   <g id="patch_11">
    <path clip-path="url(#p2347d93e02)" d="M 556.270613 438.141176 
L 556.270613 435.751111 
L 571.294825 435.751111 
L 571.294825 433.708691 
L 586.319037 433.708691 
L 586.319037 431.927006 
L 601.343249 431.927006 
L 601.343249 427.494521 
L 616.367461 427.494521 
L 616.367461 421.497629 
L 631.391673 421.497629 
L 631.391673 413.501773 
L 646.415884 413.501773 
L 646.415884 402.768205 
L 661.440096 402.768205 
L 661.440096 389.166559 
L 676.464308 389.166559 
L 676.464308 377.650789 
L 691.48852 377.650789 
L 691.48852 357.183136 
L 706.512732 357.183136 
L 706.512732 341.278335 
L 721.536944 341.278335 
L 721.536944 324.808611 
L 736.561156 324.808611 
L 736.561156 304.949338 
L 751.585368 304.949338 
L 751.585368 296.301646 
L 766.60958 296.301646 
L 766.60958 290.826223 
L 781.633792 290.826223 
L 781.633792 285.872269 
L 796.658004 285.872269 
L 796.658004 299.256636 
L 811.682216 299.256636 
L 811.682216 315.856728 
L 826.706428 315.856728 
L 826.706428 333.239024 
L 841.73064 333.239024 
L 841.73064 359.79048 
L 856.754852 359.79048 
L 856.754852 382.908933 
L 871.779064 382.908933 
L 871.779064 400.465051 
L 886.803275 400.465051 
L 886.803275 416.065661 
L 901.827487 416.065661 
L 901.827487 426.929596 
L 916.851699 426.929596 
L 916.851699 433.013399 
L 931.875911 433.013399 
L 931.875911 438.141176 
L 916.851699 438.141176 
L 916.851699 438.141176 
L 901.827487 438.141176 
L 901.827487 438.141176 
L 886.803275 438.141176 
L 886.803275 438.141176 
L 871.779064 438.141176 
L 871.779064 438.141176 
L 856.754852 438.141176 
L 856.754852 438.141176 
L 841.73064 438.141176 
L 841.73064 438.141176 
L 826.706428 438.141176 
L 826.706428 438.141176 
L 811.682216 438.141176 
L 811.682216 438.141176 
L 796.658004 438.141176 
L 796.658004 438.141176 
L 781.633792 438.141176 
L 781.633792 438.141176 
L 766.60958 438.141176 
L 766.60958 438.141176 
L 751.585368 438.141176 
L 751.585368 438.141176 
L 736.561156 438.141176 
L 736.561156 438.141176 
L 721.536944 438.141176 
L 721.536944 438.141176 
L 706.512732 438.141176 
L 706.512732 438.141176 
L 691.48852 438.141176 
L 691.48852 438.141176 
L 676.464308 438.141176 
L 676.464308 438.141176 
L 661.440096 438.141176 
L 661.440096 438.141176 
L 646.415884 438.141176 
L 646.415884 438.141176 
L 631.391673 438.141176 
L 631.391673 438.141176 
L 616.367461 438.141176 
L 616.367461 438.141176 
L 601.343249 438.141176 
L 601.343249 438.141176 
L 586.319037 438.141176 
L 586.319037 438.141176 
L 571.294825 438.141176 
L 571.294825 438.141176 
z
" style="fill:#fdb927;opacity:0.85;"/>
   </g>
   <g id="LineCollection_4">
    <path clip-path="url(#p2347d93e02)" d="M 772.308 438.141176 
L 772.308 292.915933 
" style="fill:none;stroke:#ffffff;stroke-dasharray:14.8,6.4;stroke-dashoffset:0;stroke-opacity:0.5;stroke-width:4;"/>
   </g>
   <g id="LineCollection_5">
    <path clip-path="url(#p2347d93e02)" d="M 640.764 438.141176 
L 640.764 417.017505 
" style="fill:none;stroke:#000000;stroke-dasharray:14.8,6.4;stroke-dashoffset:0;stroke-opacity:0.5;stroke-width:4;"/>
   </g>
   <g id="LineCollection_6">
    <path clip-path="url(#p2347d93e02)" d="M 885.06 438.141176 
L 885.06 417.017505 
" style="fill:none;stroke:#000000;stroke-dasharray:14.8,6.4;stroke-dashoffset:0;stroke-opacity:0.5;stroke-width:4;"/>
   </g>
   <g id="patch_12">
    <path d="M 86.4 438.141176 
L 86.4 278.258824 
" style="fill:none;stroke:#f0f0f0;stroke-linecap:square;stroke-linejoin:miter;stroke-width:3;"/>
   </g>
   <g id="patch_13">
    <path d="M 1026 438.141176 
L 1026 278.258824 
" style="fill:none;stroke:#f0f0f0;stroke-linecap:square;stroke-linejoin:miter;stroke-width:3;"/>
   </g>
   <g id="patch_14">
    <path d="M 86.4 438.141176 
L 1026 438.141176 
" style="fill:none;stroke:#f0f0f0;stroke-linecap:square;stroke-linejoin:miter;stroke-width:3;"/>
   </g>
   <g id="patch_15">
    <path d="M 86.4 278.258824 
L 1026 278.258824 
" style="fill:none;stroke:#f0f0f0;stroke-linecap:square;stroke-linejoin:miter;stroke-width:3;"/>
   </g>
   <g id="text_32">
    <!-- $p_B$: Mean Win % No KD -->
    <defs>
     <path d="M 9.8125 72.90625 
L 23.09375 72.90625 
L 55.421875 11.921875 
L 55.421875 72.90625 
L 64.984375 72.90625 
L 64.984375 0 
L 51.703125 0 
L 19.390625 60.984375 
L 19.390625 0 
L 9.8125 0 
z
" id="DejaVuSans-78"/>
    </defs>
    <g transform="translate(473.904 272.258824)scale(0.144 -0.144)">
     <use transform="translate(0 0.015625)" xlink:href="#DejaVuSans-Oblique-112"/>
     <use transform="translate(63.476562 -16.390625)scale(0.7)" xlink:href="#DejaVuSans-Oblique-66"/>
     <use transform="translate(114.233398 0.015625)" xlink:href="#DejaVuSans-58"/>
     <use transform="translate(147.924805 0.015625)" xlink:href="#DejaVuSans-32"/>
     <use transform="translate(179.711914 0.015625)" xlink:href="#DejaVuSans-77"/>
     <use transform="translate(265.991211 0.015625)" xlink:href="#DejaVuSans-101"/>
     <use transform="translate(327.514648 0.015625)" xlink:href="#DejaVuSans-97"/>
     <use transform="translate(388.793945 0.015625)" xlink:href="#DejaVuSans-110"/>
     <use transform="translate(452.172852 0.015625)" xlink:href="#DejaVuSans-32"/>
     <use transform="translate(483.959961 0.015625)" xlink:href="#DejaVuSans-87"/>
     <use transform="translate(582.836914 0.015625)" xlink:href="#DejaVuSans-105"/>
     <use transform="translate(610.620117 0.015625)" xlink:href="#DejaVuSans-110"/>
     <use transform="translate(673.999023 0.015625)" xlink:href="#DejaVuSans-32"/>
     <use transform="translate(705.786133 0.015625)" xlink:href="#DejaVuSans-37"/>
     <use transform="translate(800.805664 0.015625)" xlink:href="#DejaVuSans-32"/>
     <use transform="translate(832.592773 0.015625)" xlink:href="#DejaVuSans-78"/>
     <use transform="translate(907.397461 0.015625)" xlink:href="#DejaVuSans-111"/>
     <use transform="translate(968.579102 0.015625)" xlink:href="#DejaVuSans-32"/>
     <use transform="translate(1000.366211 0.015625)" xlink:href="#DejaVuSans-75"/>
     <use transform="translate(1065.942383 0.015625)" xlink:href="#DejaVuSans-68"/>
    </g>
   </g>
   <g id="legend_2">
    <g id="patch_16">
     <path d="M 914.7 344.993199 
L 1019 344.993199 
Q 1021 344.993199 1021 342.993199 
L 1021 285.258824 
Q 1021 283.258824 1019 283.258824 
L 914.7 283.258824 
Q 912.7 283.258824 912.7 285.258824 
L 912.7 342.993199 
Q 912.7 344.993199 914.7 344.993199 
z
" style="fill:#f0f0f0;opacity:0.8;stroke:#cccccc;stroke-linejoin:miter;stroke-width:0.5;"/>
    </g>
    <g id="patch_17">
     <path d="M 916.7 294.858824 
L 936.7 294.858824 
L 936.7 287.858824 
L 916.7 287.858824 
z
" style="fill:#fdb927;opacity:0.85;"/>
    </g>
    <g id="text_33">
     <!-- posterior of $p_B$ -->
     <g transform="translate(944.7 294.858824)scale(0.1 -0.1)">
      <use transform="translate(0 0.015625)" xlink:href="#DejaVuSans-112"/>
      <use transform="translate(63.476562 0.015625)" xlink:href="#DejaVuSans-111"/>
      <use transform="translate(124.658203 0.015625)" xlink:href="#DejaVuSans-115"/>
      <use transform="translate(176.757812 0.015625)" xlink:href="#DejaVuSans-116"/>
      <use transform="translate(215.966797 0.015625)" xlink:href="#DejaVuSans-101"/>
      <use transform="translate(277.490234 0.015625)" xlink:href="#DejaVuSans-114"/>
      <use transform="translate(318.603516 0.015625)" xlink:href="#DejaVuSans-105"/>
      <use transform="translate(346.386719 0.015625)" xlink:href="#DejaVuSans-111"/>
      <use transform="translate(407.568359 0.015625)" xlink:href="#DejaVuSans-114"/>
      <use transform="translate(448.681641 0.015625)" xlink:href="#DejaVuSans-32"/>
      <use transform="translate(480.46875 0.015625)" xlink:href="#DejaVuSans-111"/>
      <use transform="translate(541.650391 0.015625)" xlink:href="#DejaVuSans-102"/>
      <use transform="translate(576.855469 0.015625)" xlink:href="#DejaVuSans-32"/>
      <use transform="translate(608.642578 0.015625)" xlink:href="#DejaVuSans-Oblique-112"/>
      <use transform="translate(672.119141 -16.390625)scale(0.7)" xlink:href="#DejaVuSans-Oblique-66"/>
     </g>
    </g>
    <g id="line2d_56">
     <path d="M 916.7 306.057261 
L 936.7 306.057261 
" style="fill:none;stroke:#ffffff;stroke-dasharray:14.8,6.4;stroke-dashoffset:0;stroke-opacity:0.5;stroke-width:4;"/>
    </g>
    <g id="text_34">
     <!-- mean -->
     <g transform="translate(944.7 309.557261)scale(0.1 -0.1)">
      <use xlink:href="#DejaVuSans-109"/>
      <use x="97.412109" xlink:href="#DejaVuSans-101"/>
      <use x="158.935547" xlink:href="#DejaVuSans-97"/>
      <use x="220.214844" xlink:href="#DejaVuSans-110"/>
     </g>
    </g>
    <g id="line2d_57">
     <path d="M 916.7 320.735386 
L 936.7 320.735386 
" style="fill:none;stroke:#000000;stroke-dasharray:14.8,6.4;stroke-dashoffset:0;stroke-opacity:0.5;stroke-width:4;"/>
    </g>
    <g id="text_35">
     <!-- 2.5% -->
     <g transform="translate(944.7 324.235386)scale(0.1 -0.1)">
      <use xlink:href="#DejaVuSans-50"/>
      <use x="63.623047" xlink:href="#DejaVuSans-46"/>
      <use x="95.410156" xlink:href="#DejaVuSans-53"/>
      <use x="159.033203" xlink:href="#DejaVuSans-37"/>
     </g>
    </g>
    <g id="line2d_58">
     <path d="M 916.7 335.413511 
L 936.7 335.413511 
" style="fill:none;stroke:#000000;stroke-dasharray:14.8,6.4;stroke-dashoffset:0;stroke-opacity:0.5;stroke-width:4;"/>
    </g>
    <g id="text_36">
     <!-- 97.5% -->
     <g transform="translate(944.7 338.913511)scale(0.1 -0.1)">
      <use xlink:href="#DejaVuSans-57"/>
      <use x="63.623047" xlink:href="#DejaVuSans-55"/>
      <use x="127.246094" xlink:href="#DejaVuSans-46"/>
      <use x="159.033203" xlink:href="#DejaVuSans-53"/>
      <use x="222.65625" xlink:href="#DejaVuSans-37"/>
     </g>
    </g>
   </g>
  </g>
  <g id="axes_3">
   <g id="patch_18">
    <path d="M 86.4 630 
L 1026 630 
L 1026 470.117647 
L 86.4 470.117647 
z
" style="fill:#f0f0f0;"/>
   </g>
   <g id="matplotlib.axis_5">
    <g id="xtick_13">
     <g id="line2d_59">
      <path clip-path="url(#pb5493bbcb1)" d="M 180.36 630 
L 180.36 470.117647 
" style="fill:none;stroke:#cbcbcb;"/>
     </g>
     <g id="line2d_60"/>
     <g id="text_37">
      <!-- 0.4 -->
      <defs>
       <path d="M 10.59375 35.5 
L 73.1875 35.5 
L 73.1875 27.203125 
L 10.59375 27.203125 
z
" id="DejaVuSans-8722"/>
      </defs>
      <g transform="translate(168.218594 641.098438)scale(0.1 -0.1)">
       <use xlink:href="#DejaVuSans-8722"/>
       <use x="83.789062" xlink:href="#DejaVuSans-48"/>
       <use x="147.412109" xlink:href="#DejaVuSans-46"/>
       <use x="179.199219" xlink:href="#DejaVuSans-52"/>
      </g>
     </g>
    </g>
    <g id="xtick_14">
     <g id="line2d_61">
      <path clip-path="url(#pb5493bbcb1)" d="M 368.28 630 
L 368.28 470.117647 
" style="fill:none;stroke:#cbcbcb;"/>
     </g>
     <g id="line2d_62"/>
     <g id="text_38">
      <!-- 0.2 -->
      <g transform="translate(356.138594 641.098438)scale(0.1 -0.1)">
       <use xlink:href="#DejaVuSans-8722"/>
       <use x="83.789062" xlink:href="#DejaVuSans-48"/>
       <use x="147.412109" xlink:href="#DejaVuSans-46"/>
       <use x="179.199219" xlink:href="#DejaVuSans-50"/>
      </g>
     </g>
    </g>
    <g id="xtick_15">
     <g id="line2d_63">
      <path clip-path="url(#pb5493bbcb1)" d="M 556.2 630 
L 556.2 470.117647 
" style="fill:none;stroke:#cbcbcb;"/>
     </g>
     <g id="line2d_64"/>
     <g id="text_39">
      <!-- 0.0 -->
      <g transform="translate(548.248438 641.098438)scale(0.1 -0.1)">
       <use xlink:href="#DejaVuSans-48"/>
       <use x="63.623047" xlink:href="#DejaVuSans-46"/>
       <use x="95.410156" xlink:href="#DejaVuSans-48"/>
      </g>
     </g>
    </g>
    <g id="xtick_16">
     <g id="line2d_65">
      <path clip-path="url(#pb5493bbcb1)" d="M 744.12 630 
L 744.12 470.117647 
" style="fill:none;stroke:#cbcbcb;"/>
     </g>
     <g id="line2d_66"/>
     <g id="text_40">
      <!-- 0.2 -->
      <g transform="translate(736.168437 641.098438)scale(0.1 -0.1)">
       <use xlink:href="#DejaVuSans-48"/>
       <use x="63.623047" xlink:href="#DejaVuSans-46"/>
       <use x="95.410156" xlink:href="#DejaVuSans-50"/>
      </g>
     </g>
    </g>
    <g id="xtick_17">
     <g id="line2d_67">
      <path clip-path="url(#pb5493bbcb1)" d="M 932.04 630 
L 932.04 470.117647 
" style="fill:none;stroke:#cbcbcb;"/>
     </g>
     <g id="line2d_68"/>
     <g id="text_41">
      <!-- 0.4 -->
      <g transform="translate(924.088437 641.098438)scale(0.1 -0.1)">
       <use xlink:href="#DejaVuSans-48"/>
       <use x="63.623047" xlink:href="#DejaVuSans-46"/>
       <use x="95.410156" xlink:href="#DejaVuSans-52"/>
      </g>
     </g>
    </g>
   </g>
   <g id="matplotlib.axis_6">
    <g id="ytick_15">
     <g id="line2d_69">
      <path clip-path="url(#pb5493bbcb1)" d="M 86.4 630 
L 1026 630 
" style="fill:none;stroke:#cbcbcb;"/>
     </g>
     <g id="line2d_70"/>
     <g id="text_42">
      <!-- 0 -->
      <g transform="translate(76.5375 633.799219)scale(0.1 -0.1)">
       <use xlink:href="#DejaVuSans-48"/>
      </g>
     </g>
    </g>
    <g id="ytick_16">
     <g id="line2d_71">
      <path clip-path="url(#pb5493bbcb1)" d="M 86.4 600.769415 
L 1026 600.769415 
" style="fill:none;stroke:#cbcbcb;"/>
     </g>
     <g id="line2d_72"/>
     <g id="text_43">
      <!-- 1 -->
      <g transform="translate(76.5375 604.568633)scale(0.1 -0.1)">
       <use xlink:href="#DejaVuSans-49"/>
      </g>
     </g>
    </g>
    <g id="ytick_17">
     <g id="line2d_73">
      <path clip-path="url(#pb5493bbcb1)" d="M 86.4 571.538829 
L 1026 571.538829 
" style="fill:none;stroke:#cbcbcb;"/>
     </g>
     <g id="line2d_74"/>
     <g id="text_44">
      <!-- 2 -->
      <g transform="translate(76.5375 575.338048)scale(0.1 -0.1)">
       <use xlink:href="#DejaVuSans-50"/>
      </g>
     </g>
    </g>
    <g id="ytick_18">
     <g id="line2d_75">
      <path clip-path="url(#pb5493bbcb1)" d="M 86.4 542.308244 
L 1026 542.308244 
" style="fill:none;stroke:#cbcbcb;"/>
     </g>
     <g id="line2d_76"/>
     <g id="text_45">
      <!-- 3 -->
      <g transform="translate(76.5375 546.107463)scale(0.1 -0.1)">
       <use xlink:href="#DejaVuSans-51"/>
      </g>
     </g>
    </g>
    <g id="ytick_19">
     <g id="line2d_77">
      <path clip-path="url(#pb5493bbcb1)" d="M 86.4 513.077658 
L 1026 513.077658 
" style="fill:none;stroke:#cbcbcb;"/>
     </g>
     <g id="line2d_78"/>
     <g id="text_46">
      <!-- 4 -->
      <g transform="translate(76.5375 516.876877)scale(0.1 -0.1)">
       <use xlink:href="#DejaVuSans-52"/>
      </g>
     </g>
    </g>
    <g id="ytick_20">
     <g id="line2d_79">
      <path clip-path="url(#pb5493bbcb1)" d="M 86.4 483.847073 
L 1026 483.847073 
" style="fill:none;stroke:#cbcbcb;"/>
     </g>
     <g id="line2d_80"/>
     <g id="text_47">
      <!-- 5 -->
      <g transform="translate(76.5375 487.646292)scale(0.1 -0.1)">
       <use xlink:href="#DejaVuSans-53"/>
      </g>
     </g>
    </g>
   </g>
   <g id="patch_19">
    <path clip-path="url(#pb5493bbcb1)" d="M 339.984495 630 
L 339.984495 629.688521 
L 356.227474 629.688521 
L 356.227474 628.932071 
L 372.470454 628.932071 
L 372.470454 627.908639 
L 388.713433 627.908639 
L 388.713433 623.992898 
L 404.956413 623.992898 
L 404.956413 617.62982 
L 421.199392 617.62982 
L 421.199392 607.929463 
L 437.442372 607.929463 
L 437.442372 594.891827 
L 453.685351 594.891827 
L 453.685351 573.978213 
L 469.928331 573.978213 
L 469.928331 554.26602 
L 486.17131 554.26602 
L 486.17131 533.485897 
L 502.41429 533.485897 
L 502.41429 509.323998 
L 518.65727 509.323998 
L 518.65727 492.904587 
L 534.900249 492.904587 
L 534.900249 482.314289 
L 551.143229 482.314289 
L 551.143229 479.555472 
L 567.386208 479.555472 
L 567.386208 477.731092 
L 583.629188 477.731092 
L 583.629188 493.750031 
L 599.872167 493.750031 
L 599.872167 509.768969 
L 616.115147 509.768969 
L 616.115147 523.830037 
L 632.358126 523.830037 
L 632.358126 542.563295 
L 648.601106 542.563295 
L 648.601106 563.120933 
L 664.844086 563.120933 
L 664.844086 578.427918 
L 681.087065 578.427918 
L 681.087065 593.823898 
L 697.330045 593.823898 
L 697.330045 602.411829 
L 713.573024 602.411829 
L 713.573024 612.290174 
L 729.816004 612.290174 
L 729.816004 618.38627 
L 746.058983 618.38627 
L 746.058983 623.369939 
L 762.301963 623.369939 
L 762.301963 626.351242 
L 778.544942 626.351242 
L 778.544942 627.819645 
L 794.787922 627.819645 
L 794.787922 628.976568 
L 811.030901 628.976568 
L 811.030901 629.688521 
L 827.273881 629.688521 
L 827.273881 630 
L 811.030901 630 
L 811.030901 630 
L 794.787922 630 
L 794.787922 630 
L 778.544942 630 
L 778.544942 630 
L 762.301963 630 
L 762.301963 630 
L 746.058983 630 
L 746.058983 630 
L 729.816004 630 
L 729.816004 630 
L 713.573024 630 
L 713.573024 630 
L 697.330045 630 
L 697.330045 630 
L 681.087065 630 
L 681.087065 630 
L 664.844086 630 
L 664.844086 630 
L 648.601106 630 
L 648.601106 630 
L 632.358126 630 
L 632.358126 630 
L 616.115147 630 
L 616.115147 630 
L 599.872167 630 
L 599.872167 630 
L 583.629188 630 
L 583.629188 630 
L 567.386208 630 
L 567.386208 630 
L 551.143229 630 
L 551.143229 630 
L 534.900249 630 
L 534.900249 630 
L 518.65727 630 
L 518.65727 630 
L 502.41429 630 
L 502.41429 630 
L 486.17131 630 
L 486.17131 630 
L 469.928331 630 
L 469.928331 630 
L 453.685351 630 
L 453.685351 630 
L 437.442372 630 
L 437.442372 630 
L 421.199392 630 
L 421.199392 630 
L 404.956413 630 
L 404.956413 630 
L 388.713433 630 
L 388.713433 630 
L 372.470454 630 
L 372.470454 630 
L 356.227474 630 
L 356.227474 630 
z
" style="fill:#be3a34;opacity:0.85;"/>
   </g>
   <g id="LineCollection_7">
    <path clip-path="url(#pb5493bbcb1)" d="M 565.596 630 
L 565.596 483.847073 
" style="fill:none;stroke:#ffffff;stroke-dasharray:14.8,6.4;stroke-dashoffset:0;stroke-opacity:0.5;stroke-width:4;"/>
   </g>
   <g id="LineCollection_8">
    <path clip-path="url(#pb5493bbcb1)" d="M 424.656 630 
L 424.656 600.769415 
" style="fill:none;stroke:#000000;stroke-dasharray:14.8,6.4;stroke-dashoffset:0;stroke-opacity:0.5;stroke-width:4;"/>
   </g>
   <g id="LineCollection_9">
    <path clip-path="url(#pb5493bbcb1)" d="M 706.536 630 
L 706.536 600.769415 
" style="fill:none;stroke:#000000;stroke-dasharray:14.8,6.4;stroke-dashoffset:0;stroke-opacity:0.5;stroke-width:4;"/>
   </g>
   <g id="patch_20">
    <path d="M 86.4 630 
L 86.4 470.117647 
" style="fill:none;stroke:#f0f0f0;stroke-linecap:square;stroke-linejoin:miter;stroke-width:3;"/>
   </g>
   <g id="patch_21">
    <path d="M 1026 630 
L 1026 470.117647 
" style="fill:none;stroke:#f0f0f0;stroke-linecap:square;stroke-linejoin:miter;stroke-width:3;"/>
   </g>
   <g id="patch_22">
    <path d="M 86.4 630 
L 1026 630 
" style="fill:none;stroke:#f0f0f0;stroke-linecap:square;stroke-linejoin:miter;stroke-width:3;"/>
   </g>
   <g id="patch_23">
    <path d="M 86.4 470.117647 
L 1026 470.117647 
" style="fill:none;stroke:#f0f0f0;stroke-linecap:square;stroke-linejoin:miter;stroke-width:3;"/>
   </g>
   <g id="text_48">
    <!-- $delta$ = $p_A - p_B$ -->
    <defs>
     <path d="M 41.796875 8.203125 
Q 38.1875 3.46875 33.25 1.015625 
Q 28.328125 -1.421875 22.3125 -1.421875 
Q 14.109375 -1.421875 9.34375 4.171875 
Q 4.59375 9.765625 4.59375 19.484375 
Q 4.59375 27.59375 7.46875 34.9375 
Q 10.359375 42.28125 15.828125 48.09375 
Q 19.4375 51.953125 23.96875 53.96875 
Q 28.515625 56 33.5 56 
Q 38.765625 56 42.796875 53.453125 
Q 46.828125 50.921875 49.03125 46.1875 
L 54.890625 75.984375 
L 63.921875 75.984375 
L 49.125 0 
L 40.09375 0 
z
M 13.921875 21.09375 
Q 13.921875 14.015625 17.109375 10.0625 
Q 20.3125 6.109375 25.984375 6.109375 
Q 30.171875 6.109375 33.765625 8.125 
Q 37.359375 10.15625 40.09375 14.109375 
Q 42.96875 18.21875 44.625 23.578125 
Q 46.296875 28.953125 46.296875 34.1875 
Q 46.296875 40.96875 43.09375 44.765625 
Q 39.890625 48.578125 34.28125 48.578125 
Q 30.03125 48.578125 26.359375 46.578125 
Q 22.703125 44.578125 20.125 40.828125 
Q 17.28125 36.765625 15.59375 31.390625 
Q 13.921875 26.03125 13.921875 21.09375 
z
" id="DejaVuSans-Oblique-100"/>
     <path d="M 48.09375 32.234375 
Q 48.25 33.015625 48.3125 33.84375 
Q 48.390625 34.671875 48.390625 35.5 
Q 48.390625 41.453125 44.890625 44.921875 
Q 41.40625 48.390625 35.40625 48.390625 
Q 28.71875 48.390625 23.578125 44.15625 
Q 18.453125 39.9375 15.828125 32.171875 
z
M 55.90625 25.203125 
L 14.109375 25.203125 
Q 13.8125 23.34375 13.71875 22.265625 
Q 13.625 21.1875 13.625 20.40625 
Q 13.625 13.625 17.796875 9.90625 
Q 21.96875 6.203125 29.59375 6.203125 
Q 35.453125 6.203125 40.671875 7.515625 
Q 45.90625 8.84375 50.390625 11.375 
L 48.6875 2.484375 
Q 43.84375 0.53125 38.6875 -0.4375 
Q 33.546875 -1.421875 28.21875 -1.421875 
Q 16.84375 -1.421875 10.71875 4.015625 
Q 4.59375 9.46875 4.59375 19.484375 
Q 4.59375 28.03125 7.640625 35.375 
Q 10.6875 42.71875 16.609375 48.484375 
Q 20.40625 52.09375 25.65625 54.046875 
Q 30.90625 56 36.8125 56 
Q 46.09375 56 51.578125 50.4375 
Q 57.078125 44.875 57.078125 35.5 
Q 57.078125 33.25 56.78125 30.6875 
Q 56.5 28.125 55.90625 25.203125 
z
" id="DejaVuSans-Oblique-101"/>
     <path d="M 18.3125 75.984375 
L 27.296875 75.984375 
L 12.5 0 
L 3.515625 0 
z
" id="DejaVuSans-Oblique-108"/>
     <path d="M 42.28125 54.6875 
L 40.921875 47.703125 
L 23 47.703125 
L 17.1875 18.015625 
Q 16.890625 16.359375 16.75 15.234375 
Q 16.609375 14.109375 16.609375 13.484375 
Q 16.609375 10.359375 18.484375 8.9375 
Q 20.359375 7.515625 24.515625 7.515625 
L 33.59375 7.515625 
L 32.078125 0 
L 23.484375 0 
Q 15.484375 0 11.546875 3.125 
Q 7.625 6.25 7.625 12.59375 
Q 7.625 13.71875 7.765625 15.0625 
Q 7.90625 16.40625 8.203125 18.015625 
L 14.015625 47.703125 
L 6.390625 47.703125 
L 7.8125 54.6875 
L 15.28125 54.6875 
L 18.3125 70.21875 
L 27.296875 70.21875 
L 24.3125 54.6875 
z
" id="DejaVuSans-Oblique-116"/>
     <path d="M 53.71875 31.203125 
L 47.609375 0 
L 38.625 0 
L 40.28125 8.296875 
Q 36.328125 3.421875 31.265625 1 
Q 26.21875 -1.421875 20.015625 -1.421875 
Q 13.03125 -1.421875 8.5625 2.84375 
Q 4.109375 7.125 4.109375 13.8125 
Q 4.109375 23.390625 11.75 28.953125 
Q 19.390625 34.515625 32.8125 34.515625 
L 45.3125 34.515625 
L 45.796875 36.921875 
Q 45.90625 37.3125 45.953125 37.765625 
Q 46 38.234375 46 39.203125 
Q 46 43.5625 42.453125 45.96875 
Q 38.921875 48.390625 32.515625 48.390625 
Q 28.125 48.390625 23.5 47.265625 
Q 18.890625 46.140625 14.015625 43.890625 
L 15.578125 52.203125 
Q 20.65625 54.109375 25.515625 55.046875 
Q 30.375 56 34.90625 56 
Q 44.578125 56 49.625 51.796875 
Q 54.6875 47.609375 54.6875 39.59375 
Q 54.6875 37.984375 54.4375 35.8125 
Q 54.203125 33.640625 53.71875 31.203125 
z
M 44 27.484375 
L 35.015625 27.484375 
Q 23.96875 27.484375 18.671875 24.53125 
Q 13.375 21.578125 13.375 15.375 
Q 13.375 11.078125 16.078125 8.640625 
Q 18.796875 6.203125 23.578125 6.203125 
Q 30.90625 6.203125 36.375 11.453125 
Q 41.84375 16.703125 43.609375 25.484375 
z
" id="DejaVuSans-Oblique-97"/>
     <path d="M 10.59375 45.40625 
L 73.1875 45.40625 
L 73.1875 37.203125 
L 10.59375 37.203125 
z
M 10.59375 25.484375 
L 73.1875 25.484375 
L 73.1875 17.1875 
L 10.59375 17.1875 
z
" id="DejaVuSans-61"/>
    </defs>
    <g transform="translate(502.056 464.117647)scale(0.144 -0.144)">
     <use transform="translate(0 0.015625)" xlink:href="#DejaVuSans-Oblique-100"/>
     <use transform="translate(63.476562 0.015625)" xlink:href="#DejaVuSans-Oblique-101"/>
     <use transform="translate(125 0.015625)" xlink:href="#DejaVuSans-Oblique-108"/>
     <use transform="translate(152.783203 0.015625)" xlink:href="#DejaVuSans-Oblique-116"/>
     <use transform="translate(191.992188 0.015625)" xlink:href="#DejaVuSans-Oblique-97"/>
     <use transform="translate(253.271484 0.015625)" xlink:href="#DejaVuSans-32"/>
     <use transform="translate(285.058594 0.015625)" xlink:href="#DejaVuSans-61"/>
     <use transform="translate(368.847656 0.015625)" xlink:href="#DejaVuSans-32"/>
     <use transform="translate(400.634766 0.015625)" xlink:href="#DejaVuSans-Oblique-112"/>
     <use transform="translate(464.111328 -16.390625)scale(0.7)" xlink:href="#DejaVuSans-Oblique-65"/>
     <use transform="translate(534.213867 0.015625)" xlink:href="#DejaVuSans-8722"/>
     <use transform="translate(637.485352 0.015625)" xlink:href="#DejaVuSans-Oblique-112"/>
     <use transform="translate(700.961914 -16.390625)scale(0.7)" xlink:href="#DejaVuSans-Oblique-66"/>
    </g>
   </g>
   <g id="legend_3">
    <g id="patch_24">
     <path d="M 900.807813 536.830147 
L 1019 536.830147 
Q 1021 536.830147 1021 534.830147 
L 1021 477.117647 
Q 1021 475.117647 1019 475.117647 
L 900.807813 475.117647 
Q 898.807813 475.117647 898.807813 477.117647 
L 898.807813 534.830147 
Q 898.807813 536.830147 900.807813 536.830147 
z
" style="fill:#f0f0f0;opacity:0.8;stroke:#cccccc;stroke-linejoin:miter;stroke-width:0.5;"/>
    </g>
    <g id="patch_25">
     <path d="M 902.807813 486.716085 
L 922.807813 486.716085 
L 922.807813 479.716085 
L 902.807813 479.716085 
z
" style="fill:#be3a34;opacity:0.85;"/>
    </g>
    <g id="text_49">
     <!-- posterior of delta -->
     <g transform="translate(930.807813 486.716085)scale(0.1 -0.1)">
      <use xlink:href="#DejaVuSans-112"/>
      <use x="63.476562" xlink:href="#DejaVuSans-111"/>
      <use x="124.658203" xlink:href="#DejaVuSans-115"/>
      <use x="176.757812" xlink:href="#DejaVuSans-116"/>
      <use x="215.966797" xlink:href="#DejaVuSans-101"/>
      <use x="277.490234" xlink:href="#DejaVuSans-114"/>
      <use x="318.603516" xlink:href="#DejaVuSans-105"/>
      <use x="346.386719" xlink:href="#DejaVuSans-111"/>
      <use x="407.568359" xlink:href="#DejaVuSans-114"/>
      <use x="448.681641" xlink:href="#DejaVuSans-32"/>
      <use x="480.46875" xlink:href="#DejaVuSans-111"/>
      <use x="541.650391" xlink:href="#DejaVuSans-102"/>
      <use x="576.855469" xlink:href="#DejaVuSans-32"/>
      <use x="608.642578" xlink:href="#DejaVuSans-100"/>
      <use x="672.119141" xlink:href="#DejaVuSans-101"/>
      <use x="733.642578" xlink:href="#DejaVuSans-108"/>
      <use x="761.425781" xlink:href="#DejaVuSans-116"/>
      <use x="800.634766" xlink:href="#DejaVuSans-97"/>
     </g>
    </g>
    <g id="line2d_81">
     <path d="M 902.807813 497.89421 
L 922.807813 497.89421 
" style="fill:none;stroke:#ffffff;stroke-dasharray:14.8,6.4;stroke-dashoffset:0;stroke-opacity:0.5;stroke-width:4;"/>
    </g>
    <g id="text_50">
     <!-- mean delta -->
     <g transform="translate(930.807813 501.39421)scale(0.1 -0.1)">
      <use xlink:href="#DejaVuSans-109"/>
      <use x="97.412109" xlink:href="#DejaVuSans-101"/>
      <use x="158.935547" xlink:href="#DejaVuSans-97"/>
      <use x="220.214844" xlink:href="#DejaVuSans-110"/>
      <use x="283.59375" xlink:href="#DejaVuSans-32"/>
      <use x="315.380859" xlink:href="#DejaVuSans-100"/>
      <use x="378.857422" xlink:href="#DejaVuSans-101"/>
      <use x="440.380859" xlink:href="#DejaVuSans-108"/>
      <use x="468.164062" xlink:href="#DejaVuSans-116"/>
      <use x="507.373047" xlink:href="#DejaVuSans-97"/>
     </g>
    </g>
    <g id="line2d_82">
     <path d="M 902.807813 512.572335 
L 922.807813 512.572335 
" style="fill:none;stroke:#000000;stroke-dasharray:14.8,6.4;stroke-dashoffset:0;stroke-opacity:0.5;stroke-width:4;"/>
    </g>
    <g id="text_51">
     <!-- 2.5% -->
     <g transform="translate(930.807813 516.072335)scale(0.1 -0.1)">
      <use xlink:href="#DejaVuSans-50"/>
      <use x="63.623047" xlink:href="#DejaVuSans-46"/>
      <use x="95.410156" xlink:href="#DejaVuSans-53"/>
      <use x="159.033203" xlink:href="#DejaVuSans-37"/>
     </g>
    </g>
    <g id="line2d_83">
     <path d="M 902.807813 527.25046 
L 922.807813 527.25046 
" style="fill:none;stroke:#000000;stroke-dasharray:14.8,6.4;stroke-dashoffset:0;stroke-opacity:0.5;stroke-width:4;"/>
    </g>
    <g id="text_52">
     <!-- 97.5% -->
     <g transform="translate(930.807813 530.75046)scale(0.1 -0.1)">
      <use xlink:href="#DejaVuSans-57"/>
      <use x="63.623047" xlink:href="#DejaVuSans-55"/>
      <use x="127.246094" xlink:href="#DejaVuSans-46"/>
      <use x="159.033203" xlink:href="#DejaVuSans-53"/>
      <use x="222.65625" xlink:href="#DejaVuSans-37"/>
     </g>
    </g>
   </g>
  </g>
 </g>
 <defs>
  <clipPath id="pa15a25991b">
   <rect height="159.882353" width="939.6" x="86.4" y="86.4"/>
  </clipPath>
  <clipPath id="p2347d93e02">
   <rect height="159.882353" width="939.6" x="86.4" y="278.258824"/>
  </clipPath>
  <clipPath id="pb5493bbcb1">
   <rect height="159.882353" width="939.6" x="86.4" y="470.117647"/>
  </clipPath>
 </defs>
</svg>
